<?xml version="1.0" encoding="UTF-8"?>
<!DOCTYPE svg PUBLIC "-//W3C//DTD SVG 1.1//EN" "http://www.w3.org/Graphics/SVG/1.1/DTD/svg11.dtd">
<svg xmlns="http://www.w3.org/2000/svg" version="1.1" width="1600px" height="2300px" style="shape-rendering:geometricPrecision; text-rendering:geometricPrecision; image-rendering:optimizeQuality; fill-rule:evenodd; clip-rule:evenodd" xmlns:xlink="http://www.w3.org/1999/xlink">
<g><path style="opacity:0.986" fill="#2c0b01" d="M 996.5,1764.5 C 995.861,1771.15 995.527,1777.81 995.5,1784.5C 993.869,1812.14 991.203,1839.47 987.5,1866.5C 981.623,1898.47 975.79,1930.47 970,1962.5C 964.656,1993.54 953.989,2022.54 938,2049.5C 932.667,2055.5 927.333,2061.5 922,2067.5C 914.826,2075 906.326,2080.5 896.5,2084C 872.963,2091.17 848.963,2096.17 824.5,2099C 782.061,2105.41 739.394,2108.41 696.5,2108C 670.005,2107.77 644.005,2104.1 618.5,2097C 610.452,2093.66 602.452,2090.33 594.5,2087C 586.491,2080.33 579.991,2072.5 575,2063.5C 545.385,2011 525.052,1955 514,1895.5C 507.242,1859.27 502.742,1822.77 500.5,1786C 500.957,1778.05 502.124,1770.22 504,1762.5C 507.609,1758.1 511.776,1754.27 516.5,1751C 499.36,1704.88 483.194,1658.38 468,1611.5C 400.394,1396.35 333.394,1181.02 267,965.5C 258.057,943.946 249.39,922.279 241,900.5C 193.36,770.328 193.693,640.328 242,510.5C 279.604,416.567 341.437,343.067 427.5,290C 569.363,201.619 723.696,164.619 890.5,179C 971.188,190.03 1043.19,220.697 1106.5,271C 1208.82,352.803 1271.32,458.636 1294,588.5C 1316.14,702.744 1303.14,812.744 1255,918.5C 1192.27,1109.02 1131.77,1300.19 1073.5,1492C 1088.1,1489.35 1102.77,1486.69 1117.5,1484C 1144.21,1475.34 1164.71,1482.84 1179,1506.5C 1181.3,1512.08 1183.96,1517.41 1187,1522.5C 1190.28,1538.18 1190.28,1553.85 1187,1569.5C 1184.61,1579.45 1179.78,1587.95 1172.5,1595C 1168.93,1596.62 1165.27,1597.95 1161.5,1599C 1146.27,1601.37 1130.93,1602.71 1115.5,1603C 1090.17,1603.68 1064.84,1604.18 1039.5,1604.5C 1025.8,1652.28 1011.64,1699.95 997,1747.5C 996.501,1753.16 996.334,1758.82 996.5,1764.5 Z M 1210.5,997.5 C 1156.09,1163.23 1103.59,1329.57 1053,1496.5C 1033.26,1501.15 1013.43,1505.48 993.5,1509.5C 1000.1,1462.22 1007.27,1414.89 1015,1367.5C 1015.31,1366.69 1015.81,1366.03 1016.5,1365.5C 1024.72,1362.72 1032.39,1358.89 1039.5,1354C 1042.72,1350.45 1045.55,1346.61 1048,1342.5C 1048.97,1321.05 1051.63,1299.72 1056,1278.5C 1066.92,1242.42 1080.58,1207.42 1097,1173.5C 1107.33,1153.5 1117.67,1133.5 1128,1113.5C 1155.36,1074.65 1182.86,1035.99 1210.5,997.5 Z M 303.5,1029.5 C 333.248,1076.65 364.748,1122.65 398,1167.5C 440.715,1230.26 474.381,1297.6 499,1369.5C 502.283,1371.55 505.45,1373.72 508.5,1376C 518.125,1429.05 525.958,1482.21 532,1535.5C 542.96,1602.93 554.46,1670.26 566.5,1737.5C 565.975,1738.19 565.308,1738.69 564.5,1739C 552.153,1741.07 539.987,1743.9 528,1747.5C 527.228,1747.36 526.561,1747.02 526,1746.5C 514.644,1705.74 502.978,1665.08 491,1624.5C 427.411,1426.47 364.911,1228.14 303.5,1029.5 Z M 991.5,1372.5 C 992.675,1372.28 993.675,1372.61 994.5,1373.5C 986.942,1419.85 979.275,1466.18 971.5,1512.5C 970.975,1513.19 970.308,1513.69 969.5,1514C 956.795,1516.31 944.129,1518.81 931.5,1521.5C 929.159,1520.22 926.659,1519.22 924,1518.5C 921.566,1519.32 919.066,1519.66 916.5,1519.5C 930.091,1473.73 944.091,1428.06 958.5,1382.5C 969.597,1379.31 980.597,1375.98 991.5,1372.5 Z M 654.5,1687.5 C 654.19,1686.26 653.69,1686.26 653,1687.5C 652.517,1688.45 652.351,1689.45 652.5,1690.5C 650.766,1694.3 648.766,1697.97 646.5,1701.5C 645.094,1701.97 644.427,1702.97 644.5,1704.5C 641.836,1706.48 640.169,1709.15 639.5,1712.5C 636.414,1718.41 632.748,1723.91 628.5,1729C 612.925,1731.32 597.425,1733.82 582,1736.5C 570.758,1664.05 558.758,1591.71 546,1519.5C 539.37,1472.59 533.536,1425.59 528.5,1378.5C 531.839,1378.89 535.173,1379.39 538.5,1380C 539.701,1380.9 540.535,1382.07 541,1383.5C 549.275,1405.66 557.941,1427.66 567,1449.5C 592.93,1507.12 618.764,1564.79 644.5,1622.5C 638.147,1645.09 642.814,1665.09 658.5,1682.5C 657.113,1684.21 655.779,1685.88 654.5,1687.5 Z M 556.5,1383.5 C 592.856,1387.44 629.523,1390.94 666.5,1394C 749.663,1399.8 832.663,1398.14 915.5,1389C 924.601,1387.75 933.601,1386.41 942.5,1385C 928.676,1427.14 914.843,1469.31 901,1511.5C 899.846,1515.45 899.013,1519.45 898.5,1523.5C 877.167,1527.83 855.833,1532.17 834.5,1536.5C 834.814,1531.82 834.148,1527.32 832.5,1523C 832.957,1522.59 833.291,1522.09 833.5,1521.5C 831.568,1516.2 829.735,1510.87 828,1505.5C 817.657,1488.59 805.657,1487.26 792,1501.5C 786.972,1508.36 782.138,1515.36 777.5,1522.5C 767.898,1522.51 758.231,1522.68 748.5,1523C 741.955,1524.18 735.455,1525.34 729,1526.5C 722.551,1518.71 716.884,1510.38 712,1501.5C 695.789,1482.69 683.289,1484.85 674.5,1508C 670.706,1524.12 670.539,1540.29 674,1556.5C 674.892,1559.28 676.058,1561.95 677.5,1564.5C 673.832,1573.67 670.666,1583 668,1592.5C 661,1596.83 655.333,1602.5 651,1609.5C 616.645,1535.24 585.145,1459.91 556.5,1383.5 Z M 973.5,1602.5 C 988.822,1603.2 1004.16,1603.87 1019.5,1604.5C 1006.99,1648.2 994.325,1691.86 981.5,1735.5C 970.013,1732.17 958.346,1729.67 946.5,1728C 956.583,1686.42 965.583,1644.58 973.5,1602.5 Z M 909.5,1605.5 C 924.194,1605.96 938.861,1605.96 953.5,1605.5C 945.801,1645.66 939.135,1685.99 933.5,1726.5C 918.892,1724.07 904.226,1722.07 889.5,1720.5C 896.424,1698.47 902.257,1676.14 907,1653.5C 910.231,1637.61 911.064,1621.61 909.5,1605.5 Z M 861.5,1607.5 C 861.5,1608.5 861.5,1609.5 861.5,1610.5C 860.163,1609.69 859.163,1608.52 858.5,1607C 859.577,1606.53 860.577,1606.7 861.5,1607.5 Z"/></g>
<g><path style="opacity:1" fill="#fedb7b" d="M 940.5,929.5 C 939.732,930.263 939.232,931.263 939,932.5C 938.501,936.486 938.334,940.486 938.5,944.5C 932.133,1014.17 925.633,1083.84 919,1153.5C 915.919,1190.8 913.419,1228.13 911.5,1265.5C 909.436,1265.76 908.103,1266.93 907.5,1269C 874.275,1272.99 840.942,1274.33 807.5,1273C 804.526,1272.01 801.526,1271.17 798.5,1270.5C 793.27,1157.21 789.104,1043.88 786,930.5C 777.718,720.151 769.052,509.818 760,299.5C 758.125,268.497 756.291,237.497 754.5,206.5C 775.145,204.918 795.812,204.084 816.5,204C 825.203,215.233 833.036,227.066 840,239.5C 858.991,276.805 874.658,315.471 887,355.5C 933.614,498.469 954.281,645.135 949,795.5C 946.906,840.218 944.073,884.884 940.5,929.5 Z"/></g>
<g><path style="opacity:1" fill="#f4686a" d="M 991.5,1253.5 C 967.838,1258.83 944.171,1264.17 920.5,1269.5C 922.251,1235.48 924.418,1201.48 927,1167.5C 936.107,1073.54 944.774,979.535 953,885.5C 957.997,824.248 959.831,762.914 958.5,701.5C 958.45,690.311 957.783,679.311 956.5,668.5C 948.184,536.75 920.017,409.417 872,286.5C 860.471,257.602 845.971,230.435 828.5,205C 850.617,204.297 872.617,205.63 894.5,209C 897.861,209.054 900.861,210.054 903.5,212C 975.957,272.46 1031.79,345.627 1071,431.5C 1109.3,516.038 1130.97,604.705 1136,697.5C 1139.04,773.614 1127.04,847.28 1100,918.5C 1072.7,985.057 1047.37,1052.39 1024,1120.5C 1010.49,1164.19 999.662,1208.52 991.5,1253.5 Z"/></g>
<g><path style="opacity:1" fill="#f4686a" d="M 789.5,1272.5 C 762.794,1267.66 737.461,1258.82 713.5,1246C 699.303,1236.4 684.637,1227.57 669.5,1219.5C 650.634,1133.37 631.134,1047.37 611,961.5C 591.23,874.57 579.563,786.57 576,697.5C 570.621,578.819 586.621,463.153 624,350.5C 636.687,314.794 652.353,280.461 671,247.5C 677.385,236.452 684.552,225.952 692.5,216C 710.046,212.598 727.713,210.098 745.5,208.5C 751.798,316.774 756.964,425.107 761,533.5C 770.487,751.444 778.487,969.444 785,1187.5C 786.722,1215.82 788.222,1244.16 789.5,1272.5 Z"/></g>
<g><path style="opacity:1" fill="#fedb7b" d="M 1036.5,1235.5 C 1025.35,1239.74 1014.02,1243.41 1002.5,1246.5C 1014.28,1180.39 1032.44,1116.06 1057,1053.5C 1072.94,1011.68 1089.27,970.009 1106,928.5C 1124.29,881.004 1136.46,832.004 1142.5,781.5C 1144.18,776.432 1144.84,771.098 1144.5,765.5C 1144.21,759.741 1144.55,754.075 1145.5,748.5C 1146.66,730.338 1146.83,712.005 1146,693.5C 1145.69,685.96 1144.86,678.626 1143.5,671.5C 1142.6,668.609 1142.26,665.609 1142.5,662.5C 1142.56,657.269 1141.89,652.269 1140.5,647.5C 1125.87,519.311 1080.03,403.978 1003,301.5C 988.04,283.538 972.707,265.871 957,248.5C 944.8,236.632 932.3,225.132 919.5,214C 980.051,226.946 1034.72,252.28 1083.5,290C 1175.48,361.054 1234.31,453.554 1260,567.5C 1287.71,682.952 1277.71,794.952 1230,903.5C 1212.94,937.979 1193.6,970.979 1172,1002.5C 1137.29,1046.92 1105.29,1093.25 1076,1141.5C 1059.24,1171.35 1046.07,1202.69 1036.5,1235.5 Z"/></g>
<g><path style="opacity:1" fill="#fedb7b" d="M 658.5,1213.5 C 656.011,1213.7 653.677,1213.2 651.5,1212C 619.931,1193.73 589.264,1174.23 559.5,1153.5C 548.62,1120.36 536.453,1087.69 523,1055.5C 498.393,1001.95 474.059,948.286 450,894.5C 380.893,723.567 389.893,556.9 477,394.5C 510.578,335.898 552.744,284.065 603.5,239C 628.595,231.061 653.928,224.394 679.5,219C 653.877,256.744 633.377,297.244 618,340.5C 577.762,457.833 560.762,578.499 567,702.5C 571.356,795.324 584.023,886.991 605,977.5C 624.103,1055.91 641.936,1134.57 658.5,1213.5 Z"/></g>
<g><path style="opacity:1" fill="#f4686a" d="M 545.5,1142.5 C 537.82,1134.31 530.654,1125.65 524,1116.5C 513.667,1107.5 504,1097.83 495,1087.5C 458.8,1045.97 426.467,1001.64 398,954.5C 381.14,922.911 366.806,890.244 355,856.5C 337.235,809.536 322.901,761.536 312,712.5C 310.94,638.475 320.273,565.809 340,494.5C 349.793,464.914 361.793,436.247 376,408.5C 391.434,380.617 407.6,353.283 424.5,326.5C 473.247,293.126 525.58,266.626 581.5,247C 483.73,340.347 423.564,454.18 401,588.5C 385.924,697.565 400.258,802.565 444,903.5C 460.846,942.192 478.512,980.526 497,1018.5C 515.627,1058.88 531.794,1100.22 545.5,1142.5 Z"/></g>
<g><path style="opacity:1" fill="#df3f41" d="M 424.5,326.5 C 407.6,353.283 391.434,380.617 376,408.5C 361.793,436.247 349.793,464.914 340,494.5C 320.273,565.809 310.94,638.475 312,712.5C 322.901,761.536 337.235,809.536 355,856.5C 366.806,890.244 381.14,922.911 398,954.5C 426.467,1001.64 458.8,1045.97 495,1087.5C 504,1097.83 513.667,1107.5 524,1116.5C 530.654,1125.65 537.82,1134.31 545.5,1142.5C 556.036,1170.95 565.202,1199.95 573,1229.5C 581.469,1261.38 589.302,1293.38 596.5,1325.5C 567.697,1326.71 539.03,1329.38 510.5,1333.5C 498.967,1292.43 482.467,1253.43 461,1216.5C 450.063,1197.9 438.73,1179.57 427,1161.5C 387.52,1107.89 350.52,1052.56 316,995.5C 281.309,934.438 256.976,869.438 243,800.5C 221.358,678.975 240.358,564.309 300,456.5C 332.442,404.556 373.942,361.223 424.5,326.5 Z"/></g>
<g><path style="opacity:1" fill="#a25240" d="M 1140.5,647.5 C 1141.89,652.269 1142.56,657.269 1142.5,662.5C 1141.11,657.731 1140.44,652.731 1140.5,647.5 Z"/></g>
<g><path style="opacity:1" fill="#591f1a" d="M 956.5,668.5 C 957.783,679.311 958.45,690.311 958.5,701.5C 957.001,690.702 956.334,679.702 956.5,668.5 Z"/></g>
<g><path style="opacity:1" fill="#f7856e" d="M 1143.5,671.5 C 1144.86,678.626 1145.69,685.96 1146,693.5C 1146.83,712.005 1146.66,730.338 1145.5,748.5C 1145.85,722.801 1145.18,697.134 1143.5,671.5 Z"/></g>
<g><path style="opacity:1" fill="#d8775e" d="M 1144.5,765.5 C 1144.84,771.098 1144.18,776.432 1142.5,781.5C 1142.53,775.949 1143.19,770.616 1144.5,765.5 Z"/></g>
<g><path style="opacity:1" fill="#e97766" d="M 940.5,929.5 C 940.066,934.668 939.4,939.668 938.5,944.5C 938.334,940.486 938.501,936.486 939,932.5C 939.232,931.263 939.732,930.263 940.5,929.5 Z"/></g>
<g><path style="opacity:1" fill="#febb66" d="M 559.5,1153.5 C 589.264,1174.23 619.931,1193.73 651.5,1212C 653.677,1213.2 656.011,1213.7 658.5,1213.5C 665.689,1248.95 672.355,1284.62 678.5,1320.5C 654.641,1321.69 630.808,1323.02 607,1324.5C 606.055,1324.09 605.388,1323.43 605,1322.5C 592.794,1265.34 577.627,1209.01 559.5,1153.5 Z"/></g>
<g><path style="opacity:1" fill="#df3e40" d="M 669.5,1219.5 C 684.637,1227.57 699.303,1236.4 713.5,1246C 737.461,1258.82 762.794,1267.66 789.5,1272.5C 790.466,1287.52 791.466,1302.52 792.5,1317.5C 757.187,1319.17 721.854,1320.17 686.5,1320.5C 681.806,1286.67 676.14,1253.01 669.5,1219.5 Z"/></g>
<g><path style="opacity:1" fill="#fdbb66" d="M 1036.5,1235.5 C 1028.08,1263.93 1022.75,1292.93 1020.5,1322.5C 1010.25,1322.82 1000.08,1322.49 990,1321.5C 989.932,1316.17 990.265,1310.84 991,1305.5C 994.394,1285.62 998.228,1265.95 1002.5,1246.5C 1014.02,1243.41 1025.35,1239.74 1036.5,1235.5 Z"/></g>
<g><path style="opacity:1" fill="#df3e40" d="M 991.5,1253.5 C 987.553,1275.79 983.887,1298.13 980.5,1320.5C 960.168,1319.81 939.834,1319.14 919.5,1318.5C 919.211,1302.13 919.544,1285.8 920.5,1269.5C 944.171,1264.17 967.838,1258.83 991.5,1253.5 Z"/></g>
<g><path style="opacity:1" fill="#febb66" d="M 911.5,1265.5 C 910.604,1282.81 910.271,1300.15 910.5,1317.5C 873.833,1317.5 837.167,1317.5 800.5,1317.5C 800.459,1301.8 799.792,1286.14 798.5,1270.5C 801.526,1271.17 804.526,1272.01 807.5,1273C 840.942,1274.33 874.275,1272.99 907.5,1269C 908.103,1266.93 909.436,1265.76 911.5,1265.5 Z"/></g>
<g><path style="opacity:0.042" fill="#2a0a00" d="M 752.5,1459.5 C 758.925,1459.22 759.091,1460.22 753,1462.5C 752.517,1461.55 752.351,1460.55 752.5,1459.5 Z"/></g>
<g><path style="opacity:0.012" fill="#2a0a00" d="M 1050.5,1476.5 C 1050.5,1477.83 1049.83,1478.5 1048.5,1478.5C 1048.83,1477.5 1049.5,1476.83 1050.5,1476.5 Z"/></g>
<g><path style="opacity:1" fill="#5d5d5d" d="M 1118.5,1527.5 C 1082.81,1533.58 1046.81,1536.74 1010.5,1537C 992.568,1539.4 974.568,1541.07 956.5,1542C 946.344,1543.54 936.344,1545.71 926.5,1548.5C 927.016,1545.1 927.85,1541.77 929,1538.5C 994.003,1526.1 1059,1512.77 1124,1498.5C 1124.83,1498.67 1125.67,1498.83 1126.5,1499C 1120.81,1507.6 1118.14,1517.1 1118.5,1527.5 Z"/></g>
<g><path style="opacity:1" fill="#fdfdfd" d="M 1137.5,1499.5 C 1149.43,1497.43 1158.6,1501.43 1165,1511.5C 1175.88,1532.7 1176.21,1554.03 1166,1575.5C 1158.89,1584.78 1151.56,1584.78 1144,1575.5C 1130.88,1558.37 1125.55,1539.04 1128,1517.5C 1129.35,1510.47 1132.51,1504.47 1137.5,1499.5 Z"/></g>
<g><path style="opacity:1" fill="#e0a170" d="M 692.5,1505.5 C 697.406,1508.9 701.906,1512.9 706,1517.5C 711.441,1526.6 717.274,1535.44 723.5,1544C 725.5,1544.67 727.5,1544.67 729.5,1544C 752.349,1532.36 773.682,1534.7 793.5,1551C 782.791,1565.61 781.624,1581.11 790,1597.5C 794.027,1601.07 797.194,1605.24 799.5,1610C 803.169,1610.54 805.836,1609.04 807.5,1605.5C 816.816,1604.33 826.149,1604.17 835.5,1605C 841.017,1608.02 845.35,1612.19 848.5,1617.5C 835.667,1615.83 823.834,1618.5 813,1625.5C 807.691,1633.3 801.858,1640.64 795.5,1647.5C 794.833,1646.83 794.167,1646.17 793.5,1645.5C 791.586,1643.37 789.586,1641.21 787.5,1639C 779.776,1636.87 773.442,1638.71 768.5,1644.5C 767.032,1645.78 766.365,1647.45 766.5,1649.5C 754.693,1644.26 743.026,1638.43 731.5,1632C 717.152,1627.55 702.485,1624.72 687.5,1623.5C 692.827,1612.35 696.661,1600.68 699,1588.5C 704.361,1579.61 708.194,1570.11 710.5,1560C 709.591,1553.45 708.424,1546.95 707,1540.5C 702.694,1528.56 697.861,1516.9 692.5,1505.5 Z"/></g>
<g><path style="opacity:1" fill="#d77d44" d="M 692.5,1505.5 C 697.861,1516.9 702.694,1528.56 707,1540.5C 708.424,1546.95 709.591,1553.45 710.5,1560C 708.194,1570.11 704.361,1579.61 699,1588.5C 696.661,1600.68 692.827,1612.35 687.5,1623.5C 679.185,1645.07 683.518,1663.57 700.5,1679C 707.529,1683.35 714.863,1686.85 722.5,1689.5C 701.825,1690.78 684.325,1684.11 670,1669.5C 657.362,1649.89 657.362,1630.22 670,1610.5C 673,1607.5 676,1604.5 679,1601.5C 683.196,1591.25 687.196,1580.91 691,1570.5C 688.975,1557.79 687.475,1544.96 686.5,1532C 686.649,1526.47 687.149,1520.97 688,1515.5C 688.739,1511.7 690.239,1508.37 692.5,1505.5 Z"/></g>
<g><path style="opacity:1" fill="#d67c43" d="M 807.5,1507.5 C 811.73,1506.56 814.23,1508.23 815,1512.5C 818.743,1521.47 820.91,1530.81 821.5,1540.5C 814.605,1541.22 807.938,1542.89 801.5,1545.5C 797.143,1542.14 792.809,1538.8 788.5,1535.5C 794.077,1525.6 800.41,1516.27 807.5,1507.5 Z"/></g>
<g><path style="opacity:1" fill="#797979" d="M 1118.5,1527.5 C 1118.5,1529.83 1118.5,1532.17 1118.5,1534.5C 1118.5,1535.5 1118.5,1536.5 1118.5,1537.5C 1091.9,1539.73 1065.24,1540.9 1038.5,1541C 1022.38,1543.7 1006.38,1547.03 990.5,1551C 983.5,1551.33 976.5,1551.67 969.5,1552C 954.555,1554.27 939.555,1556.1 924.5,1557.5C 924.42,1554.22 925.087,1551.22 926.5,1548.5C 936.344,1545.71 946.344,1543.54 956.5,1542C 974.568,1541.07 992.568,1539.4 1010.5,1537C 1046.81,1536.74 1082.81,1533.58 1118.5,1527.5 Z"/></g>
<g><path style="opacity:1" fill="#5d5c5c" d="M 914.5,1555.5 C 914.5,1553.5 914.5,1551.5 914.5,1549.5C 880.348,1554.03 846.348,1559.53 812.5,1566C 807.416,1567.38 802.749,1569.54 798.5,1572.5C 799.031,1568.46 801.031,1565.29 804.5,1563C 808.677,1560.94 813.01,1559.27 817.5,1558C 851.217,1550.32 884.883,1542.49 918.5,1534.5C 916.452,1541.49 915.119,1548.49 914.5,1555.5 Z"/></g>
<g><path style="opacity:1" fill="#5d5d5d" d="M 1118.5,1534.5 C 1120.26,1554.86 1128.59,1572.02 1143.5,1586C 1108.65,1586.1 1073.81,1586.93 1039,1588.5C 1011.84,1587.78 984.672,1587.28 957.5,1587C 949.805,1586.64 942.138,1585.98 934.5,1585C 927.086,1577.33 923.753,1568.17 924.5,1557.5C 939.555,1556.1 954.555,1554.27 969.5,1552C 976.5,1551.67 983.5,1551.33 990.5,1551C 1006.38,1547.03 1022.38,1543.7 1038.5,1541C 1065.24,1540.9 1091.9,1539.73 1118.5,1537.5C 1118.5,1536.5 1118.5,1535.5 1118.5,1534.5 Z"/></g>
<g><path style="opacity:1" fill="#797979" d="M 914.5,1555.5 C 914.5,1556.17 914.5,1556.83 914.5,1557.5C 885.064,1561.3 855.73,1565.8 826.5,1571C 817.073,1573.03 807.739,1575.2 798.5,1577.5C 797.167,1575.83 797.167,1574.17 798.5,1572.5C 802.749,1569.54 807.416,1567.38 812.5,1566C 846.348,1559.53 880.348,1554.03 914.5,1549.5C 914.5,1551.5 914.5,1553.5 914.5,1555.5 Z"/></g>
<g><path style="opacity:1" fill="#5d5d5d" d="M 914.5,1557.5 C 913.206,1569.32 915.539,1580.32 921.5,1590.5C 920,1590.83 918.5,1591.17 917,1591.5C 905.513,1590.77 894.013,1590.27 882.5,1590C 877.913,1584.74 872.747,1580.24 867,1576.5C 865.527,1576.9 864.194,1577.57 863,1578.5C 862.267,1582.97 862.767,1587.3 864.5,1591.5C 844.175,1592.67 823.842,1592.83 803.5,1592C 799.945,1587.83 798.278,1583 798.5,1577.5C 807.739,1575.2 817.073,1573.03 826.5,1571C 855.73,1565.8 885.064,1561.3 914.5,1557.5 Z"/></g>
<g><path style="opacity:1" fill="#dfa06f" d="M 859.5,1717.5 C 861.518,1698.21 864.351,1678.88 868,1659.5C 868.713,1648.48 868.547,1637.48 867.5,1626.5C 868.837,1617.44 871.837,1609.1 876.5,1601.5C 875.601,1598.41 874.767,1595.41 874,1592.5C 877.167,1595.67 880.333,1598.83 883.5,1602C 887.152,1602.5 890.818,1602.67 894.5,1602.5C 893.846,1642.1 887.513,1680.77 875.5,1718.5C 869.974,1718.82 864.64,1718.49 859.5,1717.5 Z"/></g>
<g><path style="opacity:1" fill="#2f0e04" d="M 723.5,1605.5 C 731.253,1605.1 738.92,1605.6 746.5,1607C 749.167,1609.33 749.167,1611.67 746.5,1614C 737.883,1615.09 729.216,1615.59 720.5,1615.5C 713.257,1615.49 706.09,1615.16 699,1614.5C 698.104,1611.97 698.604,1609.81 700.5,1608C 708.367,1607.64 716.033,1606.81 723.5,1605.5 Z"/></g>
<g><path style="opacity:0.634" fill="#d59869" d="M 861.5,1610.5 C 861.5,1609.5 861.5,1608.5 861.5,1607.5C 862.65,1606.15 863.317,1606.32 863.5,1608C 863,1609.5 862.5,1611 862,1612.5C 861.536,1611.91 861.369,1611.24 861.5,1610.5 Z"/></g>
<g><path style="opacity:1" fill="#f3bb81" d="M 848.5,1617.5 C 852.561,1622.51 854.561,1628.35 854.5,1635C 853.727,1651.88 846.061,1664.55 831.5,1673C 821.059,1675.89 811.059,1679.89 801.5,1685C 797.553,1686.15 793.553,1686.99 789.5,1687.5C 789.666,1681.82 789.499,1676.16 789,1670.5C 785.181,1665.23 781.181,1665.23 777,1670.5C 774.454,1676.3 772.621,1682.3 771.5,1688.5C 757.514,1686.58 743.681,1687.25 730,1690.5C 727.566,1689.68 725.066,1689.34 722.5,1689.5C 714.863,1686.85 707.529,1683.35 700.5,1679C 683.518,1663.57 679.185,1645.07 687.5,1623.5C 702.485,1624.72 717.152,1627.55 731.5,1632C 743.026,1638.43 754.693,1644.26 766.5,1649.5C 766.414,1650.5 766.748,1651.33 767.5,1652C 772.409,1654.87 777.576,1657.04 783,1658.5C 789.847,1657.69 794.013,1654.02 795.5,1647.5C 801.858,1640.64 807.691,1633.3 813,1625.5C 823.834,1618.5 835.667,1615.83 848.5,1617.5 Z"/></g>
<g><path style="opacity:1" fill="#d77c44" d="M 867.5,1626.5 C 868.547,1637.48 868.713,1648.48 868,1659.5C 864.351,1678.88 861.518,1698.21 859.5,1717.5C 853.833,1717.5 848.167,1717.5 842.5,1717.5C 842.666,1708.83 842.5,1700.16 842,1691.5C 840.992,1686.82 840.325,1682.16 840,1677.5C 849.065,1670.71 855.732,1662.05 860,1651.5C 861.833,1642.84 864.333,1634.51 867.5,1626.5 Z"/></g>
<g><path style="opacity:1" fill="#d67d45" d="M 793.5,1645.5 C 789.73,1646.4 786.23,1648.06 783,1650.5C 778.35,1648.01 773.516,1646.01 768.5,1644.5C 773.442,1638.71 779.776,1636.87 787.5,1639C 789.586,1641.21 791.586,1643.37 793.5,1645.5 Z"/></g>
<g><path style="opacity:1" fill="#311006" d="M 768.5,1644.5 C 773.516,1646.01 778.35,1648.01 783,1650.5C 786.23,1648.06 789.73,1646.4 793.5,1645.5C 794.167,1646.17 794.833,1646.83 795.5,1647.5C 794.013,1654.02 789.847,1657.69 783,1658.5C 777.576,1657.04 772.409,1654.87 767.5,1652C 766.748,1651.33 766.414,1650.5 766.5,1649.5C 766.365,1647.45 767.032,1645.78 768.5,1644.5 Z"/></g>
<g><path style="opacity:1" fill="#d07942" d="M 833.5,1692.5 C 828.755,1690.25 823.755,1688.58 818.5,1687.5C 817.833,1687.5 817.167,1687.5 816.5,1687.5C 821.147,1685.08 826.147,1683.41 831.5,1682.5C 831.851,1685.9 832.518,1689.24 833.5,1692.5 Z"/></g>
<g><path style="opacity:0.124" fill="#dc9d6d" d="M 654.5,1687.5 C 654.573,1689.03 653.906,1690.03 652.5,1690.5C 652.351,1689.45 652.517,1688.45 653,1687.5C 653.69,1686.26 654.19,1686.26 654.5,1687.5 Z"/></g>
<g><path style="opacity:1" fill="#f1b980" d="M 816.5,1687.5 C 817.167,1687.5 817.833,1687.5 818.5,1687.5C 822.965,1697.62 822.298,1707.29 816.5,1716.5C 797.497,1716.67 778.497,1716.5 759.5,1716C 751.574,1707.53 741.907,1701.86 730.5,1699C 737.031,1697.08 743.697,1695.91 750.5,1695.5C 762.8,1697.03 775.133,1697.53 787.5,1697C 797.819,1695.73 807.486,1692.56 816.5,1687.5 Z"/></g>
<g><path style="opacity:1" fill="#d77c44" d="M 669.5,1688.5 C 678.889,1694.47 689.056,1698.8 700,1701.5C 705.794,1700.4 711.627,1700.23 717.5,1701C 708.907,1704.41 703.907,1710.58 702.5,1719.5C 684.358,1721.13 666.358,1723.29 648.5,1726C 654.623,1712.91 661.623,1700.41 669.5,1688.5 Z"/></g>
<g><path style="opacity:1" fill="#dfa06f" d="M 818.5,1687.5 C 823.755,1688.58 828.755,1690.25 833.5,1692.5C 834.371,1700.8 834.705,1709.13 834.5,1717.5C 828.477,1717.5 822.477,1717.16 816.5,1716.5C 822.298,1707.29 822.965,1697.62 818.5,1687.5 Z"/></g>
<g><path style="opacity:0.553" fill="#bc8359" d="M 646.5,1701.5 C 646.573,1703.03 645.906,1704.03 644.5,1704.5C 644.427,1702.97 645.094,1701.97 646.5,1701.5 Z"/></g>
<g><path style="opacity:0.316" fill="#d59869" d="M 644.5,1704.5 C 643.331,1707.51 641.664,1710.18 639.5,1712.5C 640.169,1709.15 641.836,1706.48 644.5,1704.5 Z"/></g>
<g><path style="opacity:1" fill="#dea06f" d="M 721.5,1709.5 C 744.796,1708.8 755.463,1720.13 753.5,1743.5C 748.701,1741.72 744.367,1739.06 740.5,1735.5C 739.252,1736.04 738.085,1736.71 737,1737.5C 736.501,1741.15 736.335,1744.82 736.5,1748.5C 728.959,1736.56 723.959,1723.56 721.5,1709.5 Z"/></g>
<g><path style="opacity:1" fill="#d67c44" d="M 721.5,1709.5 C 723.959,1723.56 728.959,1736.56 736.5,1748.5C 736.657,1749.87 736.49,1751.21 736,1752.5C 730.989,1746.66 725.823,1740.99 720.5,1735.5C 719.522,1735.98 718.689,1736.64 718,1737.5C 717.77,1741.29 716.437,1744.62 714,1747.5C 712.779,1738.85 712.112,1730.18 712,1721.5C 711.687,1714.65 714.854,1710.65 721.5,1709.5 Z"/></g>
<g><path style="opacity:1" fill="#5d8b4c" d="M 686.5,1796.5 C 675.12,1780.52 670.12,1762.69 671.5,1743C 671.316,1741.62 670.649,1740.79 669.5,1740.5C 676.659,1739.53 683.993,1738.86 691.5,1738.5C 693.128,1749.09 697.462,1758.42 704.5,1766.5C 711.694,1771.4 717.861,1770.4 723,1763.5C 728.746,1770.5 735.913,1772.34 744.5,1769C 746.657,1767.02 748.324,1764.69 749.5,1762C 758.483,1762.52 762.483,1758.35 761.5,1749.5C 762.292,1743.87 762.625,1738.2 762.5,1732.5C 813.105,1731.86 863.439,1735.2 913.5,1742.5C 935.484,1742.88 956.484,1747.71 976.5,1757C 978.455,1764.69 978.955,1772.52 978,1780.5C 977.161,1789.22 975.994,1797.88 974.5,1806.5C 956.068,1802.26 937.402,1799.43 918.5,1798C 841.203,1791.31 763.87,1790.81 686.5,1796.5 Z"/></g>
<g><path style="opacity:1" fill="#3b793a" d="M 761.5,1749.5 C 762.483,1758.35 758.483,1762.52 749.5,1762C 748.324,1764.69 746.657,1767.02 744.5,1769C 735.913,1772.34 728.746,1770.5 723,1763.5C 717.861,1770.4 711.694,1771.4 704.5,1766.5C 697.462,1758.42 693.128,1749.09 691.5,1738.5C 694.997,1737.6 698.663,1736.93 702.5,1736.5C 703.544,1744.34 705.377,1752.01 708,1759.5C 709.978,1763.87 712.811,1764.54 716.5,1761.5C 719.171,1758.16 721.337,1754.5 723,1750.5C 726.534,1756.21 731.368,1760.21 737.5,1762.5C 739.912,1762.59 741.745,1761.59 743,1759.5C 743.853,1755.53 744.519,1751.53 745,1747.5C 748.635,1753.18 753.468,1754.68 759.5,1752C 760.066,1751.01 760.733,1750.17 761.5,1749.5 Z"/></g>
<g><path style="opacity:1" fill="#3b7a3a" d="M 669.5,1740.5 C 670.649,1740.79 671.316,1741.62 671.5,1743C 670.12,1762.69 675.12,1780.52 686.5,1796.5C 650.062,1800.35 613.729,1805.85 577.5,1813C 563.266,1816.19 549.266,1820.19 535.5,1825C 531.423,1826.79 527.59,1828.95 524,1831.5C 521.782,1814.89 520.782,1798.23 521,1781.5C 522.719,1776.23 525.886,1772.06 530.5,1769C 555.67,1758.87 581.67,1751.87 608.5,1748C 628.787,1745.06 649.12,1742.56 669.5,1740.5 Z"/></g>
<g><path style="opacity:0.018" fill="#2a0a00" d="M 1003.5,1754.5 C 1004.57,1755.25 1004.74,1756.25 1004,1757.5C 1003.52,1756.55 1003.35,1755.55 1003.5,1754.5 Z"/></g>
<g><path style="opacity:0.588" fill="#5c874a" d="M 996.5,1764.5 C 999.296,1769.04 1000.13,1774.04 999,1779.5C 998.303,1781.58 997.136,1783.25 995.5,1784.5C 995.527,1777.81 995.861,1771.15 996.5,1764.5 Z"/></g>
<g><path style="opacity:1" fill="#b0603a" d="M 708.5,1857.5 C 707.167,1857.5 705.833,1857.5 704.5,1857.5C 703.138,1843.2 702.471,1828.87 702.5,1814.5C 770.86,1810.23 839.193,1810.73 907.5,1816C 929.642,1817.85 951.642,1820.68 973.5,1824.5C 973.152,1836.53 972.318,1848.53 971,1860.5C 970.439,1861.02 969.772,1861.36 969,1861.5C 882.329,1849.88 795.496,1848.54 708.5,1857.5 Z"/></g>
<g><path style="opacity:1" fill="#94442c" d="M 702.5,1814.5 C 702.471,1828.87 703.138,1843.2 704.5,1857.5C 705.833,1857.5 707.167,1857.5 708.5,1857.5C 661.281,1862.21 614.615,1870.71 568.5,1883C 556.699,1886.54 545.033,1890.38 533.5,1894.5C 531.121,1881.01 528.788,1867.51 526.5,1854C 527.083,1851.5 528.416,1849.5 530.5,1848C 540.348,1842.88 550.682,1839.05 561.5,1836.5C 607.92,1825.49 654.92,1818.16 702.5,1814.5 Z"/></g>
<g><path style="opacity:1" fill="#b0603a" d="M 711.5,1913.5 C 709.645,1898.19 707.979,1882.85 706.5,1867.5C 767.014,1860.15 827.68,1858.65 888.5,1863C 915.527,1865.24 942.527,1867.74 969.5,1870.5C 966.845,1883.46 964.345,1896.46 962,1909.5C 961.612,1910.43 960.945,1911.09 960,1911.5C 945.931,1909.29 931.765,1908.13 917.5,1908C 848.72,1906.03 780.053,1907.86 711.5,1913.5 Z"/></g>
<g><path style="opacity:1" fill="#94442c" d="M 706.5,1867.5 C 707.979,1882.85 709.645,1898.19 711.5,1913.5C 665.545,1919.12 619.878,1926.62 574.5,1936C 564.785,1938.74 555.119,1941.57 545.5,1944.5C 541.855,1931.25 538.522,1917.92 535.5,1904.5C 561.008,1894.04 587.341,1886.2 614.5,1881C 644.961,1875.05 675.627,1870.55 706.5,1867.5 Z"/></g>
<g><path style="opacity:1" fill="#b0603a" d="M 719.5,1965.5 C 717.282,1951.53 715.282,1937.53 713.5,1923.5C 749.229,1919.38 785.229,1917.22 821.5,1917C 867.214,1915.8 912.881,1916.63 958.5,1919.5C 956.81,1932.62 954.477,1945.62 951.5,1958.5C 916.556,1955.68 881.556,1954.85 846.5,1956C 804.069,1957.94 761.735,1961.1 719.5,1965.5 Z"/></g>
<g><path style="opacity:1" fill="#94442c" d="M 713.5,1923.5 C 715.282,1937.53 717.282,1951.53 719.5,1965.5C 681.427,1969.57 643.427,1974.4 605.5,1980C 590.672,1982.08 576.005,1984.92 561.5,1988.5C 556.391,1977.51 552.058,1966.18 548.5,1954.5C 554.795,1951.12 561.462,1948.62 568.5,1947C 616.343,1936.14 664.676,1928.3 713.5,1923.5 Z"/></g>
<g><path style="opacity:1" fill="#b0603a" d="M 741.5,2019.5 C 737.189,2017.35 734.022,2014.02 732,2009.5C 727.082,1998.17 724.248,1986.5 723.5,1974.5C 784.97,1967.47 846.637,1964.3 908.5,1965C 922.223,1965.56 935.89,1966.73 949.5,1968.5C 945.386,1985.96 939.886,2002.96 933,2019.5C 932.275,2020.06 931.442,2020.39 930.5,2020.5C 899.423,2017.37 868.256,2016.03 837,2016.5C 805.131,2016.44 773.297,2017.44 741.5,2019.5 Z"/></g>
<g><path style="opacity:1" fill="#94442c" d="M 723.5,1974.5 C 724.248,1986.5 727.082,1998.17 732,2009.5C 734.022,2014.02 737.189,2017.35 741.5,2019.5C 688.27,2024.39 635.27,2030.39 582.5,2037.5C 575.107,2024.39 569.107,2010.72 564.5,1996.5C 617.192,1986.96 670.192,1979.62 723.5,1974.5 Z"/></g>
<g><path style="opacity:1" fill="#b0603a" d="M 923.5,2036.5 C 920.228,2037.76 916.894,2038.92 913.5,2040C 911.129,2042.71 908.463,2045.04 905.5,2047C 880.214,2055.8 854.214,2058.8 827.5,2056C 801.226,2054.25 777.892,2045.25 757.5,2029C 759.708,2028.81 761.708,2028.31 763.5,2027.5C 818.526,2024.59 873.526,2025.09 928.5,2029C 926.699,2031.44 925.032,2033.94 923.5,2036.5 Z"/></g>
<g><path style="opacity:1" fill="#94442c" d="M 763.5,2027.5 C 761.708,2028.31 759.708,2028.81 757.5,2029C 777.892,2045.25 801.226,2054.25 827.5,2056C 854.214,2058.8 880.214,2055.8 905.5,2047C 908.463,2045.04 911.129,2042.71 913.5,2040C 916.894,2038.92 920.228,2037.76 923.5,2036.5C 916.413,2046.42 908.08,2055.26 898.5,2063C 888.91,2067.53 878.91,2070.86 868.5,2073C 808.079,2085.01 747.079,2090.34 685.5,2089C 660.371,2088.31 636.037,2083.65 612.5,2075C 609.523,2073.68 606.69,2072.18 604,2070.5C 598.246,2063.24 593.079,2055.58 588.5,2047.5C 595.679,2045.31 603.012,2043.81 610.5,2043C 661.385,2036.64 712.385,2031.48 763.5,2027.5 Z"/></g>
</svg>
