<?xml version="1.0" encoding="UTF-8"?>
<!DOCTYPE svg PUBLIC "-//W3C//DTD SVG 1.1//EN" "http://www.w3.org/Graphics/SVG/1.1/DTD/svg11.dtd">
<svg xmlns="http://www.w3.org/2000/svg" version="1.1" width="1308px" height="863px" style="shape-rendering:geometricPrecision; text-rendering:geometricPrecision; image-rendering:optimizeQuality; fill-rule:evenodd; clip-rule:evenodd" xmlns:xlink="http://www.w3.org/1999/xlink">
<g><path style="opacity:0.987" fill="#4971c5" d="M 788.5,57.5 C 836.454,57.7356 878.287,73.7356 914,105.5C 920.054,112.714 925.887,120.047 931.5,127.5C 947.599,117.765 965.099,112.765 984,112.5C 1040.31,113.985 1084.98,137.318 1118,182.5C 1133.34,203.192 1143.84,226.192 1149.5,251.5C 1181.34,249.748 1209.67,258.915 1234.5,279C 1266.59,308.942 1279.43,345.775 1273,389.5C 1268.43,414.804 1256.93,436.304 1238.5,454C 1207.69,484.067 1170.69,501.234 1127.5,505.5C 1099.78,546.382 1061.44,571.215 1012.5,580C 983.068,585.336 953.568,585.836 924,581.5C 909.261,630.229 876.761,659.396 826.5,669C 811.401,670.857 796.734,669.191 782.5,664C 780.413,663.208 778.579,662.041 777,660.5C 755.748,703.077 722.582,732.244 677.5,748C 615.944,768.265 558.277,760.598 504.5,725C 500,721.167 495.5,717.333 491,713.5C 464.814,749.762 429.147,768.096 384,768.5C 338.1,765.624 297.934,749.124 263.5,719C 256.667,712.167 249.833,705.333 243,698.5C 237.415,691.649 232.082,684.649 227,677.5C 189.735,689.568 152.568,689.402 115.5,677C 82.6667,662.833 59.1667,639.333 45,606.5C 32.8428,569.911 36.5094,534.911 56,501.5C 72.4537,475.045 94.1204,454.045 121,438.5C 113.517,389.609 124.517,345.276 154,305.5C 204.011,252.059 264.178,235.892 334.5,257C 354.288,262.729 372.621,271.395 389.5,283C 396,288.167 401.833,294 407,300.5C 433.232,264.645 468.732,248.645 513.5,252.5C 516.17,241.16 521.003,230.826 528,221.5C 550.996,193.166 580.663,176.833 617,172.5C 625.21,173.231 633.377,174.231 641.5,175.5C 657.306,132.858 684.64,99.6913 723.5,76C 744.039,65.4256 765.706,59.259 788.5,57.5 Z"/></g>
<g><path style="opacity:1" fill="#fefefe" d="M 1176.5,277.5 C 1186.29,290.924 1189.79,305.924 1187,322.5C 1183.07,344.192 1172.57,362.025 1155.5,376C 1145.3,383.936 1134.3,390.603 1122.5,396C 1098.11,399.486 1073.78,399.319 1049.5,395.5C 1031.85,423.973 1007.52,444.806 976.5,458C 953.95,468.543 930.283,473.377 905.5,472.5C 911.762,449.031 910.262,426.031 901,403.5C 887.101,370.937 865.268,345.103 835.5,326C 830.475,322.985 825.142,320.818 819.5,319.5C 772.056,285.059 719.722,274.559 662.5,288C 645.919,292.847 630.752,300.347 617,310.5C 595.281,285.051 568.448,267.218 536.5,257C 544.87,229.631 562.87,211.964 590.5,204C 597.044,202.031 603.71,200.697 610.5,200C 626.252,199.43 641.918,200.097 657.5,202C 659.712,199.079 661.545,195.912 663,192.5C 674.204,158.91 692.371,129.744 717.5,105C 756.844,80.5708 798.844,74.9042 843.5,88C 878.794,97.6504 905.627,118.15 924,149.5C 925.351,151.01 927.018,152.01 929,152.5C 936.401,147.881 943.901,143.381 951.5,139C 972.872,131.013 994.538,130.347 1016.5,137C 1058.8,150.39 1091.63,175.89 1115,213.5C 1118.78,220.172 1121.78,227.172 1124,234.5C 1126.24,249.178 1128.41,263.845 1130.5,278.5C 1131.83,278.833 1133.17,279.167 1134.5,279.5C 1148.4,276.558 1162.4,275.891 1176.5,277.5 Z"/></g>
<g><path style="opacity:1" fill="#fefefe" d="M 851.5,487.5 C 871.212,507.713 875.712,531.047 865,557.5C 863.051,564.735 859.551,571.069 854.5,576.5C 848.983,581.851 843.316,587.018 837.5,592C 830.975,595.716 823.975,598.049 816.5,599C 810,599.833 803.5,600.667 797,601.5C 787.234,599.986 777.4,599.153 767.5,599C 760.527,596.675 753.527,594.508 746.5,592.5C 745.357,601.097 742.523,609.097 738,616.5C 731.333,625.167 724.667,633.833 718,642.5C 693.013,662.736 664.513,675.57 632.5,681C 585.508,683.561 545.008,668.728 511,636.5C 479.177,655.942 444.677,667.942 407.5,672.5C 389.403,671.114 371.736,667.614 354.5,662C 345.669,657.755 337.336,652.755 329.5,647C 311.459,630.976 297.293,612.142 287,590.5C 285.082,591.542 283.249,592.708 281.5,594C 273.929,595.41 266.429,597.243 259,599.5C 250.897,601.162 242.73,601.662 234.5,601C 220.446,598.653 206.446,595.987 192.5,593C 157.712,581.88 135.546,558.713 126,523.5C 122.895,498.606 127.395,475.273 139.5,453.5C 141.942,451.774 144.609,450.274 147.5,449C 149.496,444.729 149.996,440.229 149,435.5C 136.721,381.669 151.555,337.169 193.5,302C 226.852,279.859 263.519,271.192 303.5,276C 344.796,280.314 378.796,298.314 405.5,330C 407.167,330.667 408.833,330.667 410.5,330C 449.491,281.084 498.158,268.084 556.5,291C 579.875,300.39 598.375,315.556 612,336.5C 612.893,337.081 613.893,337.415 615,337.5C 622.794,332.391 630.627,327.225 638.5,322C 670.108,303.389 703.774,298.389 739.5,307C 773.65,314.485 802.816,330.651 827,355.5C 841.378,372.259 850.378,391.593 854,413.5C 855.105,426.662 853.105,439.329 848,451.5C 843.338,459.156 839.504,467.156 836.5,475.5C 838.514,483.031 843.514,487.031 851.5,487.5 Z"/></g>
<g><path style="opacity:1" fill="#b2ccf9" d="M 1176.5,277.5 C 1217.71,284.873 1242.21,309.206 1250,350.5C 1255.17,402.972 1234.67,441.805 1188.5,467C 1166.73,479.206 1143.73,482.539 1119.5,477C 1118.07,477.465 1116.9,478.299 1116,479.5C 1100.03,512.673 1074.37,534.673 1039,545.5C 1011.91,554.719 984.077,558.885 955.5,558C 944.784,557.185 934.284,555.351 924,552.5C 918.303,515.492 898.803,488.659 865.5,472C 880.009,448.437 883.509,423.271 876,396.5C 866.397,363.919 847.563,338.253 819.5,319.5C 825.142,320.818 830.475,322.985 835.5,326C 865.268,345.103 887.101,370.937 901,403.5C 910.262,426.031 911.762,449.031 905.5,472.5C 930.283,473.377 953.95,468.543 976.5,458C 1007.52,444.806 1031.85,423.973 1049.5,395.5C 1073.78,399.319 1098.11,399.486 1122.5,396C 1134.3,390.603 1145.3,383.936 1155.5,376C 1172.57,362.025 1183.07,344.192 1187,322.5C 1189.79,305.924 1186.29,290.924 1176.5,277.5 Z"/></g>
<g><path style="opacity:1" fill="#b2ccf9" d="M 139.5,453.5 C 127.395,475.273 122.895,498.606 126,523.5C 135.546,558.713 157.712,581.88 192.5,593C 206.446,595.987 220.446,598.653 234.5,601C 242.73,601.662 250.897,601.162 259,599.5C 266.429,597.243 273.929,595.41 281.5,594C 283.249,592.708 285.082,591.542 287,590.5C 297.293,612.142 311.459,630.976 329.5,647C 337.336,652.755 345.669,657.755 354.5,662C 371.736,667.614 389.403,671.114 407.5,672.5C 444.677,667.942 479.177,655.942 511,636.5C 545.008,668.728 585.508,683.561 632.5,681C 664.513,675.57 693.013,662.736 718,642.5C 724.667,633.833 731.333,625.167 738,616.5C 742.523,609.097 745.357,601.097 746.5,592.5C 753.527,594.508 760.527,596.675 767.5,599C 777.4,599.153 787.234,599.986 797,601.5C 803.5,600.667 810,599.833 816.5,599C 823.975,598.049 830.975,595.716 837.5,592C 843.316,587.018 848.983,581.851 854.5,576.5C 859.551,571.069 863.051,564.735 865,557.5C 875.712,531.047 871.212,507.713 851.5,487.5C 885.055,501.085 902.722,526.085 904.5,562.5C 902.947,594.879 888.28,619.379 860.5,636C 846.028,644.769 830.362,649.602 813.5,650.5C 798.668,650.241 785.335,645.741 773.5,637C 768.88,635.462 765.713,636.962 764,641.5C 746.577,684.254 716.077,713.421 672.5,729C 602.612,751.428 541.279,737.428 488.5,687C 485.711,685.336 482.877,685.17 480,686.5C 471.068,703.104 458.901,716.937 443.5,728C 424.113,738.112 403.446,742.946 381.5,742.5C 327.268,738.977 284.434,715.31 253,671.5C 249.563,664.127 245.73,656.96 241.5,650C 239.5,649.333 237.5,649.333 235.5,650C 203.034,662.607 169.7,665.607 135.5,659C 85.0463,643.516 61.8797,609.35 66,556.5C 72.8208,520.352 90.3208,490.519 118.5,467C 125.132,461.856 132.132,457.356 139.5,453.5 Z"/></g>
</svg>
