<?xml version="1.0" encoding="UTF-8"?>
<!DOCTYPE svg PUBLIC "-//W3C//DTD SVG 1.1//EN" "http://www.w3.org/Graphics/SVG/1.1/DTD/svg11.dtd">
<svg xmlns="http://www.w3.org/2000/svg" version="1.1" width="1850px" height="2500px" style="shape-rendering:geometricPrecision; text-rendering:geometricPrecision; image-rendering:optimizeQuality; fill-rule:evenodd; clip-rule:evenodd" xmlns:xlink="http://www.w3.org/1999/xlink">
<g><path style="opacity:0.981" fill="#2b0b00" d="M 1313.5,984.5 C 1312.02,982.397 1310.85,982.397 1310,984.5C 1308.51,983.747 1308.35,982.914 1309.5,982C 1308.26,981.209 1306.92,980.709 1305.5,980.5C 1303.91,979.781 1302.41,978.781 1301,977.5C 1300.67,978.167 1300.33,978.833 1300,979.5C 1299.58,977.574 1298.41,976.574 1296.5,976.5C 1295.1,975.11 1293.43,974.11 1291.5,973.5C 1290.35,972.836 1289.02,972.669 1287.5,973C 1287.62,971.719 1287.12,970.552 1286,969.5C 1284.16,970.833 1283.66,970.666 1284.5,969C 1282,968.045 1279.66,966.878 1277.5,965.5C 1276.77,963.955 1275.44,963.122 1273.5,963C 1274.57,961.841 1274.23,961.008 1272.5,960.5C 1270.99,958.807 1269.32,957.973 1267.5,958C 1268.17,957.667 1268.83,957.333 1269.5,957C 1268.17,956.667 1266.83,956.333 1265.5,956C 1266.17,955.667 1266.83,955.333 1267.5,955C 1265.78,953.441 1263.78,952.608 1261.5,952.5C 1260.86,950.54 1260.86,948.707 1261.5,947C 1260.83,946.333 1260.17,945.667 1259.5,945C 1263.61,942.321 1267.27,939.154 1270.5,935.5C 1290.32,921.64 1311.82,912.64 1335,908.5C 1336.53,907.119 1336.37,905.786 1334.5,904.5C 1330.39,899.523 1325.72,893.523 1320.5,886.5C 1317.35,880.348 1314.01,874.348 1310.5,868.5C 1308.89,864.946 1307.56,861.279 1306.5,857.5C 1305.96,852.835 1304.29,848.835 1301.5,845.5C 1299.89,840.813 1298.55,835.98 1297.5,831C 1297.31,825.184 1297.31,819.351 1297.5,813.5C 1299.74,811.875 1302.41,810.042 1305.5,808C 1310.62,807.075 1315.62,806.241 1320.5,805.5C 1321.65,806.625 1322.65,806.625 1323.5,805.5C 1323.83,805.5 1324.17,805.5 1324.5,805.5C 1325.79,806.645 1326.96,806.311 1328,804.5C 1329.34,806.004 1331,807.004 1333,807.5C 1335.03,806.761 1337.19,806.428 1339.5,806.5C 1341.44,807.828 1343.44,808.161 1345.5,807.5C 1348.84,808.76 1352.34,809.76 1356,810.5C 1357.69,808.012 1359.02,808.345 1360,811.5C 1360.38,810.944 1360.88,810.611 1361.5,810.5C 1362.21,811.404 1363.21,811.737 1364.5,811.5C 1365.64,812.339 1366.97,813.006 1368.5,813.5C 1369.19,812.975 1369.69,812.308 1370,811.5C 1370.94,813.708 1372.6,815.042 1375,815.5C 1375.81,813.099 1376.64,813.266 1377.5,816C 1378.9,816.595 1380.23,816.428 1381.5,815.5C 1382.42,817.98 1383.92,818.647 1386,817.5C 1386.42,819.426 1387.59,820.426 1389.5,820.5C 1391.09,821.219 1392.59,822.219 1394,823.5C 1394.38,822.944 1394.88,822.611 1395.5,822.5C 1396.82,824.682 1398.49,825.349 1400.5,824.5C 1401.37,826.69 1403.04,827.69 1405.5,827.5C 1406.5,828.713 1407.5,828.546 1408.5,827C 1406.12,817.877 1404.12,809.21 1402.5,801C 1402.83,799.333 1403.17,797.667 1403.5,796C 1402.69,795.692 1402.03,795.192 1401.5,794.5C 1401.85,793.304 1402.35,793.304 1403,794.5C 1403.27,792.671 1404.11,791.171 1405.5,790C 1408.97,788.543 1412.3,787.709 1415.5,787.5C 1417.02,787.79 1418.52,787.79 1420,787.5C 1422.04,789.521 1424.04,789.854 1426,788.5C 1427.82,790.441 1429.82,791.108 1432,790.5C 1433.11,792.037 1434.61,792.703 1436.5,792.5C 1438.1,794.074 1440.1,794.741 1442.5,794.5C 1445.01,796.233 1447.34,797.567 1449.5,798.5C 1450.11,798.376 1450.44,798.043 1450.5,797.5C 1452.35,799.78 1454.68,801.613 1457.5,803C 1458.44,803.692 1459.1,803.525 1459.5,802.5C 1460.27,803.172 1460.93,804.005 1461.5,805C 1462.44,805.692 1463.1,805.525 1463.5,804.5C 1464.31,805.429 1465.15,806.429 1466,807.5C 1466.41,807.043 1466.91,806.709 1467.5,806.5C 1469.45,809.473 1472.12,811.473 1475.5,812.5C 1478.18,814.616 1481.51,816.949 1485.5,819.5C 1485.78,820.289 1486.28,820.956 1487,821.5C 1489.41,821.437 1491.91,820.77 1494.5,819.5C 1495.35,820.625 1496.35,820.625 1497.5,819.5C 1500.29,820.477 1503.29,820.81 1506.5,820.5C 1507.5,821.833 1508.5,821.833 1509.5,820.5C 1510.22,820.918 1510.72,821.584 1511,822.5C 1511.77,821.402 1512.6,821.402 1513.5,822.5C 1515.21,823.738 1517.21,824.405 1519.5,824.5C 1522.14,826.723 1525.14,828.389 1528.5,829.5C 1529.22,831.382 1530.22,831.715 1531.5,830.5C 1535.67,834.951 1539.83,840.284 1544,846.5C 1547.34,854.218 1549.51,862.218 1550.5,870.5C 1549.38,871.348 1549.38,872.348 1550.5,873.5C 1549.8,876.897 1549.14,880.397 1548.5,884C 1548.91,885.564 1549.25,887.064 1549.5,888.5C 1549.13,892.247 1550.8,895.247 1554.5,897.5C 1556.07,898.984 1557.41,900.651 1558.5,902.5C 1559.68,905.54 1561.35,908.206 1563.5,910.5C 1571.89,925.833 1576.89,942 1578.5,959C 1578.15,966.425 1578.15,974.258 1578.5,982.5C 1577.96,982.56 1577.62,982.893 1577.5,983.5C 1583.09,990.434 1587.43,998.101 1590.5,1006.5C 1589.96,1006.56 1589.62,1006.89 1589.5,1007.5C 1590.65,1010.32 1591.99,1012.99 1593.5,1015.5C 1594.07,1017.03 1594.73,1018.53 1595.5,1020C 1595.26,1022.12 1595.26,1024.28 1595.5,1026.5C 1594.17,1026.83 1594.17,1027.17 1595.5,1027.5C 1594.21,1030.34 1594.21,1033.17 1595.5,1036C 1594.24,1036.42 1593.58,1037.25 1593.5,1038.5C 1591.58,1040.28 1590.92,1042.28 1591.5,1044.5C 1590.33,1045.51 1589.66,1046.85 1589.5,1048.5C 1587.4,1049.98 1587.4,1051.15 1589.5,1052C 1588.55,1052.48 1587.55,1052.65 1586.5,1052.5C 1585.22,1055.14 1583.88,1057.8 1582.5,1060.5C 1580.53,1063.48 1578.53,1066.48 1576.5,1069.5C 1573.83,1070.17 1573.83,1070.83 1576.5,1071.5C 1576.43,1071.94 1576.6,1072.27 1577,1072.5C 1577.33,1071.83 1577.67,1071.17 1578,1070.5C 1578.49,1071.79 1578.66,1073.13 1578.5,1074.5C 1579.12,1076.75 1580.46,1078.42 1582.5,1079.5C 1584.05,1079.82 1584.71,1080.82 1584.5,1082.5C 1585.12,1084.75 1586.46,1086.42 1588.5,1087.5C 1588.43,1089.03 1589.09,1090.03 1590.5,1090.5C 1590.75,1092.67 1591.75,1094.34 1593.5,1095.5C 1599.16,1106.83 1602.83,1118.83 1604.5,1131.5C 1604.92,1142.67 1605.59,1153.67 1606.5,1164.5C 1607.95,1165.82 1607.62,1166.66 1605.5,1167C 1606.83,1167.67 1606.83,1168.33 1605.5,1169C 1606.31,1169.31 1606.97,1169.81 1607.5,1170.5C 1607.15,1171.7 1606.65,1171.7 1606,1170.5C 1605.28,1172.11 1605.45,1173.61 1606.5,1175C 1604.28,1176.75 1603.94,1178.92 1605.5,1181.5C 1605.26,1184.06 1604.76,1184.06 1604,1181.5C 1602.96,1183.3 1602.8,1184.97 1603.5,1186.5C 1602.6,1187.21 1602.26,1188.21 1602.5,1189.5C 1600.86,1190.7 1600.53,1192.04 1601.5,1193.5C 1600.9,1194.9 1599.9,1195.9 1598.5,1196.5C 1597.17,1196.83 1597.17,1197.17 1598.5,1197.5C 1594.91,1200.42 1590.74,1202.09 1586,1202.5C 1578.2,1202.27 1570.03,1202.27 1561.5,1202.5C 1561.17,1201.17 1560.83,1201.17 1560.5,1202.5C 1560.17,1202.5 1559.83,1202.5 1559.5,1202.5C 1557.56,1201.17 1555.56,1200.84 1553.5,1201.5C 1552.79,1200.6 1551.79,1200.26 1550.5,1200.5C 1548.56,1199.17 1546.56,1198.84 1544.5,1199.5C 1542.49,1198.08 1540.15,1197.41 1537.5,1197.5C 1535.79,1196.26 1533.79,1195.59 1531.5,1195.5C 1529.79,1194.26 1527.79,1193.59 1525.5,1193.5C 1523.79,1192.26 1521.79,1191.59 1519.5,1191.5C 1518.49,1190.33 1517.15,1189.66 1515.5,1189.5C 1513.65,1187.43 1511.32,1186.1 1508.5,1185.5C 1507.1,1184.11 1505.43,1183.11 1503.5,1182.5C 1501.7,1180.1 1499.37,1178.43 1496.5,1177.5C 1496.16,1176.66 1495.49,1176.33 1494.5,1176.5C 1494.67,1175.51 1494.34,1174.84 1493.5,1174.5C 1492.4,1175.3 1492.07,1177.64 1492.5,1181.5C 1492.03,1184.92 1492.03,1188.25 1492.5,1191.5C 1492.15,1192.7 1491.65,1192.7 1491,1191.5C 1490.52,1192.45 1490.35,1193.45 1490.5,1194.5C 1489.6,1195.21 1489.26,1196.21 1489.5,1197.5C 1487.93,1199.1 1487.26,1201.1 1487.5,1203.5C 1485.86,1204.7 1485.53,1206.04 1486.5,1207.5C 1485.26,1208.97 1484.26,1210.64 1483.5,1212.5C 1483.62,1213.11 1483.96,1213.44 1484.5,1213.5C 1484.63,1214.24 1484.46,1214.91 1484,1215.5C 1483.33,1214.17 1482.67,1214.17 1482,1215.5C 1481.31,1216.44 1481.47,1217.1 1482.5,1217.5C 1481.83,1218.5 1481.17,1219.5 1480.5,1220.5C 1479.66,1220.84 1479.33,1221.51 1479.5,1222.5C 1478.33,1223.51 1477.66,1224.85 1477.5,1226.5C 1476.6,1227.29 1475.93,1228.29 1475.5,1229.5C 1473.65,1230.87 1473.32,1232.53 1474.5,1234.5C 1473.4,1235.18 1472.4,1235.84 1471.5,1236.5C 1470.66,1236.84 1470.33,1237.51 1470.5,1238.5C 1468.55,1239.72 1467.05,1241.38 1466,1243.5C 1465.31,1244.44 1465.47,1245.1 1466.5,1245.5C 1465.83,1246.17 1465.17,1246.83 1464.5,1247.5C 1463.17,1247.83 1463.17,1248.17 1464.5,1248.5C 1461.33,1250.15 1459.67,1252.82 1459.5,1256.5C 1458.62,1258.87 1456.96,1259.71 1454.5,1259C 1438.35,1251.51 1424.51,1241.01 1413,1227.5C 1411.19,1223.2 1408.85,1219.2 1406,1215.5C 1401.62,1219.94 1396.79,1223.77 1391.5,1227C 1390.54,1228.42 1389.71,1229.92 1389,1231.5C 1388.33,1230.83 1387.67,1230.17 1387,1229.5C 1383.41,1232.05 1379.58,1234.21 1375.5,1236C 1343.11,1268.4 1310.11,1300.06 1276.5,1331C 1252.2,1356.31 1227.53,1381.31 1202.5,1406C 1185.66,1419.26 1167.33,1430.26 1147.5,1439C 1106.39,1456.72 1064.73,1473.05 1022.5,1488C 973.487,1512.9 922.487,1532.9 869.5,1548C 840.833,1558.33 812.167,1568.67 783.5,1579C 708.225,1622.95 637.391,1673.12 571,1729.5C 568.934,1734.36 567.268,1739.36 566,1744.5C 553.04,1806.26 541.374,1868.26 531,1930.5C 519.867,2007.97 507.867,2085.3 495,2162.5C 488.597,2205.96 484.43,2249.62 482.5,2293.5C 482.294,2327.01 489.794,2358.68 505,2388.5C 524.476,2429.78 549.976,2466.78 581.5,2499.5C 570.833,2499.5 560.167,2499.5 549.5,2499.5C 523.296,2468.79 500.796,2435.45 482,2399.5C 466.414,2361.01 460.414,2321.01 464,2279.5C 466.614,2239.69 470.614,2200.03 476,2160.5C 484.175,2104.11 492.675,2047.77 501.5,1991.5C 512.008,1926.79 523.508,1862.13 536,1797.5C 541.748,1774.09 547.748,1750.76 554,1727.5C 557.185,1718.65 562.352,1711.15 569.5,1705C 640.964,1645.25 717.631,1592.92 799.5,1548C 830.71,1537.98 862.044,1528.48 893.5,1519.5C 894.167,1519.83 894.833,1520.17 895.5,1520.5C 933.023,1506.6 970.023,1491.44 1006.5,1475C 1061.16,1458.17 1114.16,1437.17 1165.5,1412C 1179.93,1403.91 1192.93,1393.91 1204.5,1382C 1221.83,1364 1239.17,1346 1256.5,1328C 1294.19,1292.64 1331.52,1256.98 1368.5,1221C 1379.33,1213.5 1390.17,1206 1401,1198.5C 1399.63,1191.98 1398.63,1185.31 1398,1178.5C 1397.5,1169.17 1397.33,1159.84 1397.5,1150.5C 1398.32,1147.54 1398.99,1144.54 1399.5,1141.5C 1393.6,1142.97 1387.93,1145.14 1382.5,1148C 1311.2,1203.96 1244.86,1265.63 1183.5,1333C 1161.67,1345.58 1139.34,1357.08 1116.5,1367.5C 1101.62,1373.18 1086.29,1377.35 1070.5,1380C 1063.5,1380.67 1056.5,1380.67 1049.5,1380C 1046.69,1379.09 1044.02,1377.93 1041.5,1376.5C 1037.65,1370.18 1037.82,1363.84 1042,1357.5C 1087.03,1285.49 1138.36,1218.16 1196,1155.5C 1223.17,1127.05 1252.67,1101.55 1284.5,1079C 1303.68,1065.91 1322.68,1052.58 1341.5,1039C 1339.05,1033.12 1336.71,1027.29 1334.5,1021.5C 1332.98,1014.3 1332.15,1006.96 1332,999.5C 1298.93,1023.23 1266.43,1047.73 1234.5,1073C 1209.91,1094.59 1187.08,1117.75 1166,1142.5C 1130.33,1179.01 1094.49,1215.34 1058.5,1251.5C 1036.72,1273.78 1016.22,1297.11 997,1321.5C 990.431,1328.74 983.265,1335.24 975.5,1341C 930.381,1355.38 887.048,1374.04 845.5,1397C 825.328,1408.59 804.995,1419.92 784.5,1431C 741.959,1445.29 699.959,1460.96 658.5,1478C 630.204,1491.48 602.871,1506.48 576.5,1523C 560.954,1530.61 545.287,1537.94 529.5,1545C 519.32,1550.59 509.654,1556.92 500.5,1564C 488.833,1574.33 477.167,1584.67 465.5,1595C 470.004,1600.34 474.671,1605.5 479.5,1610.5C 485.162,1616.33 490.662,1622.33 496,1628.5C 504.632,1639.74 507.966,1652.4 506,1666.5C 503.419,1694.88 488.919,1714.05 462.5,1724C 453.685,1726.3 445.018,1725.97 436.5,1723C 433.619,1721.75 431.786,1719.58 431,1716.5C 429.279,1710.54 428.779,1704.54 429.5,1698.5C 427.525,1691.36 423.191,1686.19 416.5,1683C 407.167,1678.67 397.833,1674.33 388.5,1670C 364.616,1655.73 351.783,1634.57 350,1606.5C 348.662,1581.68 356.162,1560.01 372.5,1541.5C 378.725,1535.72 386.059,1532.05 394.5,1530.5C 379.276,1483.79 386.442,1440.79 416,1401.5C 419.682,1397.98 423.182,1394.32 426.5,1390.5C 415.173,1376.55 412.006,1360.88 417,1343.5C 418.716,1337.74 421.216,1332.4 424.5,1327.5C 415.005,1297.47 419.172,1269.47 437,1243.5C 440.201,1239.96 443.701,1236.8 447.5,1234C 449.5,1233.33 451.5,1233.33 453.5,1234C 458.051,1239.05 462.384,1244.21 466.5,1249.5C 482.19,1219.98 501.19,1192.82 523.5,1168C 513.669,1171.16 503.669,1174.16 493.5,1177C 457.092,1183.37 421.759,1179.53 387.5,1165.5C 376.659,1172.83 365.659,1179.99 354.5,1187C 332.804,1199.42 309.471,1205.26 284.5,1204.5C 278.729,1219.18 270.063,1232.02 258.5,1243C 255.785,1244.91 252.785,1246.24 249.5,1247C 214.559,1248.47 185.059,1236.64 161,1211.5C 153.878,1241.26 138.044,1265.09 113.5,1283C 109.5,1285 105.5,1285 101.5,1283C 90.5408,1276.26 83.0408,1266.76 79,1254.5C 76.0591,1246.74 74.0591,1238.74 73,1230.5C 53.3245,1254.68 28.8245,1272.01 -0.5,1282.5C -0.5,1274.5 -0.5,1266.5 -0.5,1258.5C 25.4015,1246.1 46.5681,1228.1 63,1204.5C 69.6824,1198.1 76.1824,1191.6 82.5,1185C 86.9633,1183.8 89.63,1185.46 90.5,1190C 82.9397,1209.38 84.1064,1228.22 94,1246.5C 99,1254.5 104,1262.5 109,1270.5C 114.412,1265.76 119.079,1260.43 123,1254.5C 129.578,1241.67 136.911,1229.34 145,1217.5C 149.723,1208.99 153.057,1199.99 155,1190.5C 161.374,1184.52 165.041,1185.86 166,1194.5C 187.832,1221 215.999,1233.83 250.5,1233C 261.885,1221.06 270.885,1207.56 277.5,1192.5C 278.5,1192 279.5,1191.5 280.5,1191C 305.517,1190.83 329.184,1185.16 351.5,1174C 362.102,1167.73 372.436,1161.06 382.5,1154C 385.167,1153.33 387.833,1153.33 390.5,1154C 432.683,1169.61 474.683,1169.28 516.5,1153C 529.111,1146.45 541.277,1139.28 553,1131.5C 570.313,1152.08 592.146,1165.41 618.5,1171.5C 618.351,1172.55 618.517,1173.55 619,1174.5C 631.173,1189 645.006,1201.84 660.5,1213C 664.729,1216.13 669.396,1217.46 674.5,1217C 678.333,1214.5 681.5,1211.33 684,1207.5C 696.202,1186.89 704.869,1164.89 710,1141.5C 743.088,1133.29 771.088,1116.63 794,1091.5C 799.041,1082.58 804.207,1073.75 809.5,1065C 865.305,1060.86 912.472,1038.69 951,998.5C 951.346,996.152 952.513,994.319 954.5,993C 974.499,993.083 994.499,993.083 1014.5,993C 1022.38,992.853 1030.05,991.519 1037.5,989C 1041.66,985.846 1044.16,981.679 1045,976.5C 1046.94,964.923 1047.94,953.256 1048,941.5C 1050.56,935.939 1054.73,932.106 1060.5,930C 1076.8,915.061 1089.13,897.394 1097.5,877C 1099.2,876.042 1101.03,875.542 1103,875.5C 1148.98,883.394 1187.98,870.727 1220,837.5C 1227.99,828.515 1233.66,818.182 1237,806.5C 1239.87,794.266 1242.21,781.932 1244,769.5C 1249.75,761.664 1254.75,753.331 1259,744.5C 1268.46,723.576 1267.62,703.243 1256.5,683.5C 1248.32,668.153 1236.15,657.153 1220,650.5C 1218.1,634.146 1213.77,618.479 1207,603.5C 1204.29,601.129 1201.96,598.463 1200,595.5C 1200.44,586.104 1201.61,576.771 1203.5,567.5C 1204.68,553.602 1202.52,540.269 1197,527.5C 1189.77,509.362 1179.77,493.029 1167,478.5C 1172.05,431.651 1159.38,390.318 1129,354.5C 1115.72,375.995 1107.39,399.328 1104,424.5C 1103.58,426.615 1102.41,427.448 1100.5,427C 1085.63,407.795 1068.46,390.961 1049,376.5C 1036.46,321.423 1011.8,272.756 975,230.5C 963.698,210.515 949.365,192.849 932,177.5C 923.329,189.841 916.496,203.174 911.5,217.5C 880.279,183.123 842.946,157.623 799.5,141C 778.011,135.003 756.677,128.503 735.5,121.5C 734.668,131.149 734.168,140.816 734,150.5C 732.736,155.227 729.569,157.561 724.5,157.5C 705.951,140.929 684.284,134.096 659.5,137C 656.45,137.679 653.45,138.512 650.5,139.5C 627.513,120.994 602.513,105.494 575.5,93C 556.833,85.6667 538.167,78.3333 519.5,71C 509.072,67.0736 498.405,64.4069 487.5,63C 493.716,72.2656 498.716,82.099 502.5,92.5C 502.223,98.2807 499.223,101.781 493.5,103C 486.5,103.667 479.5,103.667 472.5,103C 444.013,100.307 415.513,97.8067 387,95.5C 375.322,96.2409 363.822,97.7409 352.5,100C 343.833,92 335.167,84 326.5,76C 316.692,68.6783 306.192,62.5116 295,57.5C 289.823,59.6702 285.489,63.0035 282,67.5C 276.739,75.089 271.906,82.9224 267.5,91C 250.52,90.4583 233.52,90.4583 216.5,91C 200.302,93.1217 184.969,97.9551 170.5,105.5C 156.855,99.8452 143.522,93.3452 130.5,86C 107.03,77.1259 83.697,77.4592 60.5,87C 51.8333,91.6667 43.1667,96.3333 34.5,101C 30.5,103.667 27.1667,107 24.5,111C 16.1723,111.116 7.83893,110.95 -0.5,110.5C -0.5,102.833 -0.5,95.1667 -0.5,87.5C 3.47344,89.4867 7.47344,91.4867 11.5,93.5C 18.2616,92.1205 24.5949,89.6205 30.5,86C 69.8923,55.9937 111.226,52.9937 154.5,77C 158.043,79.842 161.21,83.0086 164,86.5C 189.594,71.3456 216.928,66.6789 246,72.5C 247.888,72.204 249.722,71.704 251.5,71C 266.205,58.5604 282.038,47.7271 299,38.5C 302.401,40.1906 305.901,41.6906 309.5,43C 325.461,55.9584 341.127,69.2917 356.5,83C 381.77,82.1398 407.103,82.4731 432.5,84C 448.951,85.5418 465.284,87.5418 481.5,90C 473.567,78.3023 467.067,65.8023 462,52.5C 460.065,45.0111 462.898,41.3444 470.5,41.5C 475.171,41.9634 479.837,42.4634 484.5,43C 506.675,49.461 529.008,55.461 551.5,61C 584.334,71.0824 614.334,86.4157 641.5,107C 648.074,112.904 653.908,119.404 659,126.5C 680.687,121.963 700.187,126.63 717.5,140.5C 717.833,139.5 718.167,138.5 718.5,137.5C 716.81,128.264 714.81,119.097 712.5,110C 712.943,108.175 713.277,106.342 713.5,104.5C 739.777,101.18 765.444,104.014 790.5,113C 834.554,126.923 871.387,151.423 901,186.5C 908.167,175.333 917.333,166.167 928.5,159C 929.833,158.333 931.167,158.333 932.5,159C 937.833,162.333 943.167,165.667 948.5,169C 989.017,204.165 1021.18,245.665 1045,293.5C 1055.18,314.71 1060.85,337.043 1062,360.5C 1075.45,371.614 1087.12,384.28 1097,398.5C 1101.51,378.609 1109.68,360.443 1121.5,344C 1125.14,340.778 1129.14,340.112 1133.5,342C 1150.63,357.407 1163.47,375.907 1172,397.5C 1178.71,414.885 1182.54,432.885 1183.5,451.5C 1183.25,459.996 1181.59,468.163 1178.5,476C 1201.47,499.284 1214.47,527.284 1217.5,560C 1216.98,571.112 1214.98,581.946 1211.5,592.5C 1218.98,600.793 1225.48,609.793 1231,619.5C 1232.87,627.038 1234.04,634.705 1234.5,642.5C 1270.88,661.25 1286.04,690.917 1280,731.5C 1275.44,747.287 1267.78,761.287 1257,773.5C 1257.36,800.423 1249.36,824.423 1233,845.5C 1199.81,885.507 1157.65,900.84 1106.5,891.5C 1096.94,913.396 1082.27,931.063 1062.5,944.5C 1062.6,958.883 1061.43,973.216 1059,987.5C 1056.31,998.854 1049.48,1006.35 1038.5,1010C 1014.58,1014.31 990.579,1014.64 966.5,1011C 964.129,1010.27 961.795,1009.43 959.5,1008.5C 949.265,1023.9 936.265,1036.4 920.5,1046C 888.147,1065.4 853.147,1075.56 815.5,1076.5C 806.292,1102.87 789.626,1123.04 765.5,1137C 755.732,1142.72 745.398,1147.05 734.5,1150C 729.898,1151.12 725.232,1151.62 720.5,1151.5C 716.475,1173.07 708.975,1193.4 698,1212.5C 693.5,1221 687,1227.5 678.5,1232C 672.833,1234 667.167,1234 661.5,1232C 641.44,1221.61 624.773,1207.27 611.5,1189C 594.074,1183.65 578.074,1175.65 563.5,1165C 560.333,1161.83 557.167,1158.67 554,1155.5C 547.147,1159.34 541.147,1164.34 536,1170.5C 514.21,1194.73 495.876,1221.4 481,1250.5C 479.885,1253.15 479.218,1255.82 479,1258.5C 485.817,1253.67 493.317,1250.17 501.5,1248C 511.983,1245.19 522.65,1243.52 533.5,1243C 537.863,1235.28 543.196,1228.28 549.5,1222C 554.343,1219.17 559.343,1218.83 564.5,1221C 578.565,1233.64 585.065,1249.48 584,1268.5C 592.937,1279.31 597.104,1291.81 596.5,1306C 596.484,1311.79 595.818,1317.46 594.5,1323C 600.17,1331.35 605.003,1340.18 609,1349.5C 611.587,1357.72 612.087,1366.05 610.5,1374.5C 629.597,1371.98 648.597,1368.82 667.5,1365C 672.163,1364.46 676.829,1363.96 681.5,1363.5C 686.385,1362.88 689.052,1365.05 689.5,1370C 685.158,1389.69 678.825,1408.69 670.5,1427C 672.623,1429.8 674.79,1432.63 677,1435.5C 677.527,1440.92 675.86,1445.58 672,1449.5C 668.131,1453.03 664.631,1456.87 661.5,1461C 682.397,1455.48 702.73,1448.14 722.5,1439C 765.232,1419.13 807.566,1398.47 849.5,1377C 878.603,1364.11 907.936,1351.78 937.5,1340C 951.076,1334.21 964.409,1327.88 977.5,1321C 996.333,1298.83 1015.17,1276.67 1034,1254.5C 1063.3,1222.86 1092.97,1191.53 1123,1160.5C 1135.83,1147.67 1148.67,1134.83 1161.5,1122C 1184.09,1103.41 1205.43,1083.41 1225.5,1062C 1242.79,1048.38 1259.79,1034.38 1276.5,1020C 1291.09,1009.55 1305.42,998.887 1319.5,988C 1317.94,986.053 1315.94,984.886 1313.5,984.5 Z M 1353.5,1083.5 C 1352.88,1085.75 1351.54,1087.42 1349.5,1088.5C 1349.57,1090.03 1348.91,1091.03 1347.5,1091.5C 1347.57,1093.03 1346.91,1094.03 1345.5,1094.5C 1345.01,1096.82 1344.01,1098.82 1342.5,1100.5C 1341.92,1103.95 1340.58,1106.95 1338.5,1109.5C 1338.41,1111.79 1337.74,1113.79 1336.5,1115.5C 1336.34,1117.15 1335.67,1118.49 1334.5,1119.5C 1333.84,1123.15 1333.17,1126.82 1332.5,1130.5C 1333.81,1134.14 1336.14,1136.8 1339.5,1138.5C 1342.35,1139.22 1345.02,1139.56 1347.5,1139.5C 1347.83,1140.83 1348.17,1140.83 1348.5,1139.5C 1352.12,1139.54 1355.45,1139.87 1358.5,1140.5C 1359.65,1139.38 1360.65,1139.38 1361.5,1140.5C 1330.42,1167.73 1299.42,1195.23 1268.5,1223C 1235.1,1255.07 1203.1,1288.4 1172.5,1323C 1151.83,1335.84 1130.16,1346.84 1107.5,1356C 1090.77,1362.68 1073.44,1366.01 1055.5,1366C 1076.95,1330.22 1101.12,1296.38 1128,1264.5C 1149,1239.5 1170,1214.5 1191,1189.5C 1207.14,1172.36 1223.64,1155.53 1240.5,1139C 1274.36,1110.47 1309.36,1083.47 1345.5,1058C 1347.53,1057.32 1349.53,1056.99 1351.5,1057C 1356.11,1063.01 1360.44,1068.51 1364.5,1073.5C 1362.95,1075.44 1360.95,1076.61 1358.5,1077C 1358.83,1077.33 1359.17,1077.67 1359.5,1078C 1357.03,1080.21 1355.03,1082.05 1353.5,1083.5 Z"/></g>
<g><path style="opacity:1" fill="#70c751" d="M 1203.5,567.5 C 1194.02,550.552 1183.52,534.219 1172,518.5C 1168.83,514 1165,510.167 1160.5,507C 1153.25,507.462 1148.42,504.295 1146,497.5C 1142.54,473.091 1138.54,448.758 1134,424.5C 1133.19,418.62 1131.69,412.954 1129.5,407.5C 1123.84,420.327 1117.5,432.827 1110.5,445C 1109.5,445.667 1108.5,445.667 1107.5,445C 1106.65,443.978 1105.65,443.145 1104.5,442.5C 1101.33,444.195 1098,444.695 1094.5,444C 1082.19,438.517 1070.86,431.517 1060.5,423C 1036.83,404.339 1014.66,383.839 994,361.5C 981.627,348.101 972.294,332.768 966,315.5C 954.806,302.274 943.973,288.774 933.5,275C 918.276,266.551 902.943,259.051 887.5,252.5C 895.433,264.499 892.267,270.499 878,270.5C 861.18,267.894 845.013,263.06 829.5,256C 794.092,238.462 758.092,222.295 721.5,207.5C 721.167,207.833 720.833,208.167 720.5,208.5C 731.164,226.325 739.497,245.159 745.5,265C 745.167,265.833 744.833,266.667 744.5,267.5C 704.431,248.97 665.764,228.137 628.5,205C 608.167,186 588.5,166.333 569.5,146C 566.388,144.694 563.221,143.528 560,142.5C 538.371,148.226 516.538,153.059 494.5,157C 466.254,162.541 437.921,167.541 409.5,172C 391.187,173.637 372.854,173.804 354.5,172.5C 356.029,166.126 359.696,161.293 365.5,158C 381.52,147.653 398.187,138.32 415.5,130C 390.169,130.299 364.835,130.965 339.5,132C 321.648,137.184 306.315,146.517 293.5,160C 285.74,165.22 277.073,166.886 267.5,165C 245.928,161.251 224.261,160.584 202.5,163C 195.977,164.397 189.643,166.397 183.5,169C 173.225,172.864 162.892,173.198 152.5,170C 151.122,168.287 149.455,166.953 147.5,166C 119.61,154.408 90.6102,150.074 60.5,153C 40.5991,162.569 22.5991,174.902 6.5,190C 4.39065,191.646 2.05732,192.812 -0.5,193.5C -0.5,165.833 -0.5,138.167 -0.5,110.5C 7.83893,110.95 16.1723,111.116 24.5,111C 27.1667,107 30.5,103.667 34.5,101C 43.1667,96.3333 51.8333,91.6667 60.5,87C 83.697,77.4592 107.03,77.1259 130.5,86C 143.522,93.3452 156.855,99.8452 170.5,105.5C 184.969,97.9551 200.302,93.1217 216.5,91C 233.52,90.4583 250.52,90.4583 267.5,91C 271.906,82.9224 276.739,75.089 282,67.5C 285.489,63.0035 289.823,59.6702 295,57.5C 306.192,62.5116 316.692,68.6783 326.5,76C 335.167,84 343.833,92 352.5,100C 363.822,97.7409 375.322,96.2409 387,95.5C 415.513,97.8067 444.013,100.307 472.5,103C 479.5,103.667 486.5,103.667 493.5,103C 499.223,101.781 502.223,98.2807 502.5,92.5C 498.716,82.099 493.716,72.2656 487.5,63C 498.405,64.4069 509.072,67.0736 519.5,71C 538.167,78.3333 556.833,85.6667 575.5,93C 602.513,105.494 627.513,120.994 650.5,139.5C 653.45,138.512 656.45,137.679 659.5,137C 684.284,134.096 705.951,140.929 724.5,157.5C 729.569,157.561 732.736,155.227 734,150.5C 734.168,140.816 734.668,131.149 735.5,121.5C 756.677,128.503 778.011,135.003 799.5,141C 842.946,157.623 880.279,183.123 911.5,217.5C 916.496,203.174 923.329,189.841 932,177.5C 949.365,192.849 963.698,210.515 975,230.5C 1011.8,272.756 1036.46,321.423 1049,376.5C 1068.46,390.961 1085.63,407.795 1100.5,427C 1102.41,427.448 1103.58,426.615 1104,424.5C 1107.39,399.328 1115.72,375.995 1129,354.5C 1159.38,390.318 1172.05,431.651 1167,478.5C 1179.77,493.029 1189.77,509.362 1197,527.5C 1202.52,540.269 1204.68,553.602 1203.5,567.5 Z"/></g>
<g><path style="opacity:1" fill="#419943" d="M 1203.5,567.5 C 1201.61,576.771 1200.44,586.104 1200,595.5C 1201.96,598.463 1204.29,601.129 1207,603.5C 1213.77,618.479 1218.1,634.146 1220,650.5C 1236.15,657.153 1248.32,668.153 1256.5,683.5C 1243.52,703.448 1230.02,723.115 1216,742.5C 1212.65,746.016 1209.15,749.349 1205.5,752.5C 1199.18,743.89 1191.18,741.723 1181.5,746C 1167.01,761.156 1154.84,777.99 1145,796.5C 1141.32,800.015 1137.82,803.682 1134.5,807.5C 1126.58,809.899 1118.58,810.066 1110.5,808C 1097.6,804.591 1084.76,801.091 1072,797.5C 1065.81,798.51 1060.31,801.01 1055.5,805C 1049.96,810.874 1044.79,817.041 1040,823.5C 1032.16,836.509 1023.83,849.176 1015,861.5C 1009.43,867.742 1003.26,873.242 996.5,878C 991.549,883.406 986.716,888.906 982,894.5C 975,907.167 968,919.833 961,932.5C 959.726,928.01 958.059,923.677 956,919.5C 954.138,907.72 951.804,896.054 949,884.5C 946.668,881.209 943.835,880.709 940.5,883C 931.325,889.087 922.325,895.421 913.5,902C 904.167,911.333 894.833,920.667 885.5,930C 880.257,931.623 875.59,934.289 871.5,938C 855.972,954.396 842.639,972.396 831.5,992C 827.465,992.874 823.465,993.874 819.5,995C 809.657,1000.18 799.823,1005.35 790,1010.5C 786.229,1001.07 779.396,994.569 769.5,991C 762.202,989.985 755.536,991.652 749.5,996C 716.782,1016.03 686.949,1039.87 660,1067.5C 652.401,1076.41 645.068,1085.41 638,1094.5C 633.712,1091.21 629.712,1087.55 626,1083.5C 618.21,1073.37 610.044,1063.54 601.5,1054C 597.046,1051.69 592.546,1049.52 588,1047.5C 564.25,1063.46 539.083,1076.96 512.5,1088C 489.826,1096.08 466.492,1100.42 442.5,1101C 439.558,1100.06 438.225,1098.06 438.5,1095C 442.607,1076.76 442.44,1058.59 438,1040.5C 437.359,1038.19 436.026,1036.52 434,1035.5C 384.056,1059.7 331.889,1077.54 277.5,1089C 273.779,1091.53 269.779,1093.53 265.5,1095C 241.685,1099.29 217.685,1100.62 193.5,1099C 188.094,1081.69 179.928,1065.85 169,1051.5C 150.658,1027.15 130.158,1004.65 107.5,984C 94.8333,975.333 82.1667,966.667 69.5,958C 61.4043,955.121 54.9043,957.288 50,964.5C 48.6667,967.167 47.3333,969.833 46,972.5C 42.6656,988.185 39.6656,1003.85 37,1019.5C 26.5785,993.324 14.0785,968.324 -0.5,944.5C -0.5,694.167 -0.5,443.833 -0.5,193.5C 2.05732,192.812 4.39065,191.646 6.5,190C 22.5991,174.902 40.5991,162.569 60.5,153C 90.6102,150.074 119.61,154.408 147.5,166C 149.455,166.953 151.122,168.287 152.5,170C 162.892,173.198 173.225,172.864 183.5,169C 189.643,166.397 195.977,164.397 202.5,163C 224.261,160.584 245.928,161.251 267.5,165C 277.073,166.886 285.74,165.22 293.5,160C 306.315,146.517 321.648,137.184 339.5,132C 364.835,130.965 390.169,130.299 415.5,130C 398.187,138.32 381.52,147.653 365.5,158C 359.696,161.293 356.029,166.126 354.5,172.5C 372.854,173.804 391.187,173.637 409.5,172C 437.921,167.541 466.254,162.541 494.5,157C 516.538,153.059 538.371,148.226 560,142.5C 563.221,143.528 566.388,144.694 569.5,146C 588.5,166.333 608.167,186 628.5,205C 665.764,228.137 704.431,248.97 744.5,267.5C 744.833,266.667 745.167,265.833 745.5,265C 739.497,245.159 731.164,226.325 720.5,208.5C 720.833,208.167 721.167,207.833 721.5,207.5C 758.092,222.295 794.092,238.462 829.5,256C 845.013,263.06 861.18,267.894 878,270.5C 892.267,270.499 895.433,264.499 887.5,252.5C 902.943,259.051 918.276,266.551 933.5,275C 943.973,288.774 954.806,302.274 966,315.5C 972.294,332.768 981.627,348.101 994,361.5C 1014.66,383.839 1036.83,404.339 1060.5,423C 1070.86,431.517 1082.19,438.517 1094.5,444C 1098,444.695 1101.33,444.195 1104.5,442.5C 1105.65,443.145 1106.65,443.978 1107.5,445C 1108.5,445.667 1109.5,445.667 1110.5,445C 1117.5,432.827 1123.84,420.327 1129.5,407.5C 1131.69,412.954 1133.19,418.62 1134,424.5C 1138.54,448.758 1142.54,473.091 1146,497.5C 1148.42,504.295 1153.25,507.462 1160.5,507C 1165,510.167 1168.83,514 1172,518.5C 1183.52,534.219 1194.02,550.552 1203.5,567.5 Z"/></g>
<g><path style="opacity:1" fill="#18772d" d="M 1256.5,683.5 C 1267.62,703.243 1268.46,723.576 1259,744.5C 1254.75,753.331 1249.75,761.664 1244,769.5C 1242.21,781.932 1239.87,794.266 1237,806.5C 1233.66,818.182 1227.99,828.515 1220,837.5C 1187.98,870.727 1148.98,883.394 1103,875.5C 1101.03,875.542 1099.2,876.042 1097.5,877C 1089.13,897.394 1076.8,915.061 1060.5,930C 1054.73,932.106 1050.56,935.939 1048,941.5C 1047.94,953.256 1046.94,964.923 1045,976.5C 1044.16,981.679 1041.66,985.846 1037.5,989C 1030.05,991.519 1022.38,992.853 1014.5,993C 994.499,993.083 974.499,993.083 954.5,993C 952.513,994.319 951.346,996.152 951,998.5C 912.472,1038.69 865.305,1060.86 809.5,1065C 804.207,1073.75 799.041,1082.58 794,1091.5C 771.088,1116.63 743.088,1133.29 710,1141.5C 704.869,1164.89 696.202,1186.89 684,1207.5C 681.5,1211.33 678.333,1214.5 674.5,1217C 669.396,1217.46 664.729,1216.13 660.5,1213C 645.006,1201.84 631.173,1189 619,1174.5C 618.517,1173.55 618.351,1172.55 618.5,1171.5C 592.146,1165.41 570.313,1152.08 553,1131.5C 541.277,1139.28 529.111,1146.45 516.5,1153C 474.683,1169.28 432.683,1169.61 390.5,1154C 387.833,1153.33 385.167,1153.33 382.5,1154C 372.436,1161.06 362.102,1167.73 351.5,1174C 329.184,1185.16 305.517,1190.83 280.5,1191C 279.5,1191.5 278.5,1192 277.5,1192.5C 270.885,1207.56 261.885,1221.06 250.5,1233C 215.999,1233.83 187.832,1221 166,1194.5C 165.041,1185.86 161.374,1184.52 155,1190.5C 153.057,1199.99 149.723,1208.99 145,1217.5C 136.911,1229.34 129.578,1241.67 123,1254.5C 119.079,1260.43 114.412,1265.76 109,1270.5C 104,1262.5 99,1254.5 94,1246.5C 84.1064,1228.22 82.9397,1209.38 90.5,1190C 89.63,1185.46 86.9633,1183.8 82.5,1185C 76.1824,1191.6 69.6824,1198.1 63,1204.5C 46.5681,1228.1 25.4015,1246.1 -0.5,1258.5C -0.5,1153.83 -0.5,1049.17 -0.5,944.5C 14.0785,968.324 26.5785,993.324 37,1019.5C 39.6656,1003.85 42.6656,988.185 46,972.5C 47.3333,969.833 48.6667,967.167 50,964.5C 54.9043,957.288 61.4043,955.121 69.5,958C 82.1667,966.667 94.8333,975.333 107.5,984C 130.158,1004.65 150.658,1027.15 169,1051.5C 179.928,1065.85 188.094,1081.69 193.5,1099C 217.685,1100.62 241.685,1099.29 265.5,1095C 269.779,1093.53 273.779,1091.53 277.5,1089C 331.889,1077.54 384.056,1059.7 434,1035.5C 436.026,1036.52 437.359,1038.19 438,1040.5C 442.44,1058.59 442.607,1076.76 438.5,1095C 438.225,1098.06 439.558,1100.06 442.5,1101C 466.492,1100.42 489.826,1096.08 512.5,1088C 539.083,1076.96 564.25,1063.46 588,1047.5C 592.546,1049.52 597.046,1051.69 601.5,1054C 610.044,1063.54 618.21,1073.37 626,1083.5C 629.712,1087.55 633.712,1091.21 638,1094.5C 645.068,1085.41 652.401,1076.41 660,1067.5C 686.949,1039.87 716.782,1016.03 749.5,996C 755.536,991.652 762.202,989.985 769.5,991C 779.396,994.569 786.229,1001.07 790,1010.5C 799.823,1005.35 809.657,1000.18 819.5,995C 823.465,993.874 827.465,992.874 831.5,992C 842.639,972.396 855.972,954.396 871.5,938C 875.59,934.289 880.257,931.623 885.5,930C 894.833,920.667 904.167,911.333 913.5,902C 922.325,895.421 931.325,889.087 940.5,883C 943.835,880.709 946.668,881.209 949,884.5C 951.804,896.054 954.138,907.72 956,919.5C 958.059,923.677 959.726,928.01 961,932.5C 968,919.833 975,907.167 982,894.5C 986.716,888.906 991.549,883.406 996.5,878C 1003.26,873.242 1009.43,867.742 1015,861.5C 1023.83,849.176 1032.16,836.509 1040,823.5C 1044.79,817.041 1049.96,810.874 1055.5,805C 1060.31,801.01 1065.81,798.51 1072,797.5C 1084.76,801.091 1097.6,804.591 1110.5,808C 1118.58,810.066 1126.58,809.899 1134.5,807.5C 1137.82,803.682 1141.32,800.015 1145,796.5C 1154.84,777.99 1167.01,761.156 1181.5,746C 1191.18,741.723 1199.18,743.89 1205.5,752.5C 1209.15,749.349 1212.65,746.016 1216,742.5C 1230.02,723.115 1243.52,703.448 1256.5,683.5 Z"/></g>
<g><path style="opacity:0.008" fill="#2a0a00" d="M 1415.5,786.5 C 1416.83,787.167 1416.83,787.167 1415.5,786.5 Z"/></g>
<g><path style="opacity:0.004" fill="#2a0a00" d="M 1429.5,788.5 C 1430.83,789.167 1430.83,789.167 1429.5,788.5 Z"/></g>
<g><path style="opacity:0.004" fill="#2a0a00" d="M 1434.5,790.5 C 1435.83,791.167 1435.83,791.167 1434.5,790.5 Z"/></g>
<g><path style="opacity:0.012" fill="#2a0a00" d="M 1436.5,791.5 C 1437.83,792.167 1437.83,792.167 1436.5,791.5 Z"/></g>
<g><path style="opacity:0.004" fill="#2a0a00" d="M 1440.5,792.5 C 1441.83,793.167 1441.83,793.167 1440.5,792.5 Z"/></g>
<g><path style="opacity:0.004" fill="#2a0a00" d="M 1442.5,793.5 C 1443.83,794.167 1443.83,794.167 1442.5,793.5 Z"/></g>
<g><path style="opacity:0.004" fill="#2a0a00" d="M 1445.5,794.5 C 1446.83,795.167 1446.83,795.167 1445.5,794.5 Z"/></g>
<g><path style="opacity:0.008" fill="#2a0a00" d="M 1450.5,797.5 C 1449.83,796.167 1449.83,796.167 1450.5,797.5 Z"/></g>
<g><path style="opacity:0.004" fill="#2a0a00" d="M 1455.5,799.5 C 1456.83,800.167 1456.83,800.167 1455.5,799.5 Z"/></g>
<g><path style="opacity:0.012" fill="#2a0a00" d="M 1459.5,802.5 C 1458.83,801.167 1458.83,801.167 1459.5,802.5 Z"/></g>
<g><path style="opacity:1" fill="#70c551" d="M 1425.5,803.5 C 1426.89,805.951 1427.73,808.618 1428,811.5C 1429.17,825.541 1430.67,839.541 1432.5,853.5C 1432.17,854.167 1431.83,854.833 1431.5,855.5C 1422.27,856.225 1412.94,856.392 1403.5,856C 1390.02,853.088 1376.52,850.254 1363,847.5C 1362.17,847.833 1361.33,848.167 1360.5,848.5C 1364.07,870.432 1370.57,891.432 1380,911.5C 1382.71,914.378 1385.54,917.044 1388.5,919.5C 1386.35,922.151 1384.02,924.651 1381.5,927C 1357.94,933.575 1335.27,942.409 1313.5,953.5C 1312.48,954.002 1312.31,954.668 1313,955.5C 1318.33,961.5 1323.67,967.5 1329,973.5C 1329.53,974.816 1329.03,975.483 1327.5,975.5C 1314.95,971.728 1302.95,966.562 1291.5,960C 1285.76,957.093 1280.76,953.26 1276.5,948.5C 1284.32,941.752 1292.98,936.252 1302.5,932C 1316.73,925.477 1331.4,920.144 1346.5,916C 1348.92,914.374 1351.42,912.874 1354,911.5C 1354.67,909.833 1354.67,908.167 1354,906.5C 1350.62,902.783 1347.62,898.783 1345,894.5C 1336.7,880.854 1328.36,867.187 1320,853.5C 1317.54,845.11 1314.87,836.776 1312,828.5C 1311.22,825.166 1310.89,821.833 1311,818.5C 1340.64,822.164 1369.8,828.664 1398.5,838C 1406.69,841.673 1415.02,844.84 1423.5,847.5C 1421.57,832.481 1419.57,817.481 1417.5,802.5C 1420.17,802.833 1422.83,803.167 1425.5,803.5 Z"/></g>
<g><path style="opacity:0.008" fill="#2a0a00" d="M 1463.5,804.5 C 1462.83,803.167 1462.83,803.167 1463.5,804.5 Z"/></g>
<g><path style="opacity:0.004" fill="#2a0a00" d="M 1320.5,805.5 C 1319.83,804.167 1319.83,804.167 1320.5,805.5 Z"/></g>
<g><path style="opacity:0.004" fill="#2a0a00" d="M 1323.5,805.5 C 1322.83,804.167 1322.83,804.167 1323.5,805.5 Z"/></g>
<g><path style="opacity:0.004" fill="#2a0a00" d="M 1324.5,804.5 C 1325.83,805.167 1325.83,805.167 1324.5,804.5 Z"/></g>
<g><path style="opacity:0.004" fill="#2a0a00" d="M 1339.5,805.5 C 1340.83,806.167 1340.83,806.167 1339.5,805.5 Z"/></g>
<g><path style="opacity:1" fill="#409843" d="M 1425.5,803.5 C 1440.49,808.827 1455.16,814.993 1469.5,822C 1474.53,825.184 1479.2,828.851 1483.5,833C 1489.82,833.5 1496.16,833.666 1502.5,833.5C 1507.89,847.626 1512.73,861.959 1517,876.5C 1521.35,907.808 1519.68,938.808 1512,969.5C 1505.74,964.955 1499.58,960.288 1493.5,955.5C 1493.16,978.912 1491.66,1002.25 1489,1025.5C 1482.86,1050.97 1477.69,1076.64 1473.5,1102.5C 1459.78,1097.88 1448.28,1089.88 1439,1078.5C 1424.69,1057.72 1412.86,1035.55 1403.5,1012C 1400.38,1011.86 1397.38,1012.53 1394.5,1014C 1388.17,1014.67 1381.83,1014.67 1375.5,1014C 1364.7,1010.43 1354.7,1005.6 1345.5,999.5C 1345.39,995.753 1345.89,992.086 1347,988.5C 1347.75,987.874 1348.58,987.374 1349.5,987C 1341.95,983.392 1334.61,979.559 1327.5,975.5C 1329.03,975.483 1329.53,974.816 1329,973.5C 1323.67,967.5 1318.33,961.5 1313,955.5C 1312.31,954.668 1312.48,954.002 1313.5,953.5C 1335.27,942.409 1357.94,933.575 1381.5,927C 1384.02,924.651 1386.35,922.151 1388.5,919.5C 1385.54,917.044 1382.71,914.378 1380,911.5C 1370.57,891.432 1364.07,870.432 1360.5,848.5C 1361.33,848.167 1362.17,847.833 1363,847.5C 1376.52,850.254 1390.02,853.088 1403.5,856C 1412.94,856.392 1422.27,856.225 1431.5,855.5C 1431.83,854.833 1432.17,854.167 1432.5,853.5C 1430.67,839.541 1429.17,825.541 1428,811.5C 1427.73,808.618 1426.89,805.951 1425.5,803.5 Z"/></g>
<g><path style="opacity:0.012" fill="#2a0a00" d="M 1345.5,806.5 C 1346.83,807.167 1346.83,807.167 1345.5,806.5 Z"/></g>
<g><path style="opacity:0.004" fill="#2a0a00" d="M 1347.5,806.5 C 1348.83,807.167 1348.83,807.167 1347.5,806.5 Z"/></g>
<g><path style="opacity:0.004" fill="#2a0a00" d="M 1469.5,807.5 C 1470.83,808.167 1470.83,808.167 1469.5,807.5 Z"/></g>
<g><path style="opacity:0.004" fill="#2a0a00" d="M 1471.5,808.5 C 1472.83,809.167 1472.83,809.167 1471.5,808.5 Z"/></g>
<g><path style="opacity:0.008" fill="#2a0a00" d="M 1361.5,809.5 C 1362.83,810.167 1362.83,810.167 1361.5,809.5 Z"/></g>
<g><path style="opacity:0.004" fill="#2a0a00" d="M 1364.5,810.5 C 1365.83,811.167 1365.83,811.167 1364.5,810.5 Z"/></g>
<g><path style="opacity:0.008" fill="#2a0a00" d="M 1475.5,811.5 C 1474.83,810.167 1474.83,810.167 1475.5,811.5 Z"/></g>
<g><path style="opacity:0.004" fill="#2a0a00" d="M 1475.5,811.5 C 1476.83,812.167 1476.83,812.167 1475.5,811.5 Z"/></g>
<g><path style="opacity:0.004" fill="#2a0a00" d="M 1481.5,814.5 C 1482.83,815.167 1482.83,815.167 1481.5,814.5 Z"/></g>
<g><path style="opacity:0.004" fill="#2a0a00" d="M 1485.5,818.5 C 1486.83,819.167 1486.83,819.167 1485.5,818.5 Z"/></g>
<g><path style="opacity:0.004" fill="#2a0a00" d="M 1494.5,818.5 C 1495.83,819.167 1495.83,819.167 1494.5,818.5 Z"/></g>
<g><path style="opacity:0.008" fill="#2a0a00" d="M 1497.5,818.5 C 1498.83,819.167 1498.83,819.167 1497.5,818.5 Z"/></g>
<g><path style="opacity:0.004" fill="#2a0a00" d="M 1499.5,818.5 C 1500.83,819.167 1500.83,819.167 1499.5,818.5 Z"/></g>
<g><path style="opacity:0.016" fill="#2a0a00" d="M 1389.5,819.5 C 1390.83,820.167 1390.83,820.167 1389.5,819.5 Z"/></g>
<g><path style="opacity:0.012" fill="#2a0a00" d="M 1506.5,819.5 C 1507.83,820.167 1507.83,820.167 1506.5,819.5 Z"/></g>
<g><path style="opacity:0.008" fill="#2a0a00" d="M 1509.5,820.5 C 1508.83,819.167 1508.83,819.167 1509.5,820.5 Z"/></g>
<g><path style="opacity:0.004" fill="#2a0a00" d="M 1395.5,821.5 C 1396.83,822.167 1396.83,822.167 1395.5,821.5 Z"/></g>
<g><path style="opacity:0.004" fill="#2a0a00" d="M 1513.5,822.5 C 1513.9,821.475 1514.56,821.308 1515.5,822C 1514.91,822.464 1514.24,822.631 1513.5,822.5 Z"/></g>
<g><path style="opacity:0.004" fill="#2a0a00" d="M 1519.5,823.5 C 1518.83,822.167 1518.83,822.167 1519.5,823.5 Z"/></g>
<g><path style="opacity:0.004" fill="#2a0a00" d="M 1400.5,824.5 C 1399.83,823.167 1399.83,823.167 1400.5,824.5 Z"/></g>
<g><path style="opacity:0.004" fill="#2a0900" d="M 1519.5,824.5 C 1519.5,824.167 1519.5,823.833 1519.5,823.5C 1522.17,823.833 1522.17,824.167 1519.5,824.5 Z"/></g>
<g><path style="opacity:0.004" fill="#2a0a00" d="M 1405.5,826.5 C 1404.83,825.167 1404.83,825.167 1405.5,826.5 Z"/></g>
<g><path style="opacity:0.004" fill="#2a0a00" d="M 1405.5,826.5 C 1406.83,827.167 1406.83,827.167 1405.5,826.5 Z"/></g>
<g><path style="opacity:0.008" fill="#2a0a00" d="M 1528.5,828.5 C 1527.83,827.167 1527.83,827.167 1528.5,828.5 Z"/></g>
<g><path style="opacity:0.004" fill="#2a0a00" d="M 1528.5,828.5 C 1529.83,829.167 1529.83,829.167 1528.5,828.5 Z"/></g>
<g><path style="opacity:0.004" fill="#2a0a00" d="M 1531.5,830.5 C 1530.83,829.167 1530.83,829.167 1531.5,830.5 Z"/></g>
<g><path style="opacity:0.004" fill="#2a0a00" d="M 1534.5,832.5 C 1535.83,833.167 1535.83,833.167 1534.5,832.5 Z"/></g>
<g><path style="opacity:1" fill="#18772d" d="M 1502.5,833.5 C 1526.45,838.665 1537.95,853.665 1537,878.5C 1537.4,885.523 1537.4,892.523 1537,899.5C 1549.48,912.917 1557.81,928.583 1562,946.5C 1563.06,960.827 1564.06,975.161 1565,989.5C 1571.66,1000.32 1576.83,1011.82 1580.5,1024C 1575.34,1039.98 1568.34,1055.14 1559.5,1069.5C 1564.63,1074.42 1568.8,1080.08 1572,1086.5C 1577.59,1098.93 1582.59,1111.6 1587,1124.5C 1591.86,1146.65 1591.36,1168.65 1585.5,1190.5C 1565.65,1189.83 1546.32,1186.33 1527.5,1180C 1513.56,1175.05 1502.23,1166.71 1493.5,1155C 1489.74,1153.82 1486.91,1154.99 1485,1158.5C 1480.13,1190.23 1468.13,1218.89 1449,1244.5C 1420.08,1220.77 1407.74,1190.1 1412,1152.5C 1412.87,1148.46 1413.87,1144.46 1415,1140.5C 1417.79,1135.25 1420.29,1129.92 1422.5,1124.5C 1408.33,1125.33 1394.16,1126.33 1380,1127.5C 1368.18,1126.62 1356.35,1126.29 1344.5,1126.5C 1349.93,1114.32 1356.43,1102.65 1364,1091.5C 1370.34,1086.99 1375.84,1081.66 1380.5,1075.5C 1371.65,1066.15 1364.15,1055.81 1358,1044.5C 1352.87,1034.25 1348.87,1023.58 1346,1012.5C 1345.5,1008.18 1345.33,1003.85 1345.5,999.5C 1354.7,1005.6 1364.7,1010.43 1375.5,1014C 1381.83,1014.67 1388.17,1014.67 1394.5,1014C 1397.38,1012.53 1400.38,1011.86 1403.5,1012C 1412.86,1035.55 1424.69,1057.72 1439,1078.5C 1448.28,1089.88 1459.78,1097.88 1473.5,1102.5C 1477.69,1076.64 1482.86,1050.97 1489,1025.5C 1491.66,1002.25 1493.16,978.912 1493.5,955.5C 1499.58,960.288 1505.74,964.955 1512,969.5C 1519.68,938.808 1521.35,907.808 1517,876.5C 1512.73,861.959 1507.89,847.626 1502.5,833.5 Z"/></g>
<g><path style="opacity:0.004" fill="#2a0a00" d="M 1538.5,836.5 C 1539.83,837.167 1539.83,837.167 1538.5,836.5 Z"/></g>
<g><path style="opacity:0.004" fill="#2a0a00" d="M 1542.5,842.5 C 1543.83,843.167 1543.83,843.167 1542.5,842.5 Z"/></g>
<g><path style="opacity:0.945" fill="#3c3314" d="M 1301.5,845.5 C 1304.29,848.835 1305.96,852.835 1306.5,857.5C 1303.69,854.087 1302.02,850.087 1301.5,845.5 Z"/></g>
<g><path style="opacity:0.004" fill="#2a0a00" d="M 1310.5,868.5 C 1309.83,869.167 1309.83,869.167 1310.5,868.5 Z"/></g>
<g><path style="opacity:0.004" fill="#2a0a00" d="M 1550.5,870.5 C 1551.83,871.167 1551.83,871.167 1550.5,870.5 Z"/></g>
<g><path style="opacity:0.008" fill="#2a0a00" d="M 1550.5,873.5 C 1551.83,874.167 1551.83,874.167 1550.5,873.5 Z"/></g>
<g><path style="opacity:0.004" fill="#2a0a00" d="M 1550.5,875.5 C 1551.83,876.167 1551.83,876.167 1550.5,875.5 Z"/></g>
<g><path style="opacity:0.004" fill="#2a0a00" d="M 1550.5,878.5 C 1551.83,879.167 1551.83,879.167 1550.5,878.5 Z"/></g>
<g><path style="opacity:0.008" fill="#2a0a00" d="M 1549.5,888.5 C 1550.83,889.167 1550.83,889.167 1549.5,888.5 Z"/></g>
<g><path style="opacity:0.004" fill="#2a0a00" d="M 1549.5,890.5 C 1550.83,891.167 1550.83,891.167 1549.5,890.5 Z"/></g>
<g><path style="opacity:0.004" fill="#2a0a00" d="M 1554.5,896.5 C 1555.83,897.167 1555.83,897.167 1554.5,896.5 Z"/></g>
<g><path style="opacity:0.004" fill="#2a0a00" d="M 1558.5,901.5 C 1559.83,902.167 1559.83,902.167 1558.5,901.5 Z"/></g>
<g><path style="opacity:0.004" fill="#2a0a00" d="M 1334.5,904.5 C 1333.83,905.167 1333.83,905.167 1334.5,904.5 Z"/></g>
<g><path style="opacity:0.004" fill="#2a0a00" d="M 1563.5,909.5 C 1564.83,910.167 1564.83,910.167 1563.5,909.5 Z"/></g>
<g><path style="opacity:0.004" fill="#2a0a00" d="M 1270.5,935.5 C 1269.83,934.167 1269.83,934.167 1270.5,935.5 Z"/></g>
<g><path style="opacity:0.004" fill="#2a0a00" d="M 1265.5,937.5 C 1266.83,938.167 1266.83,938.167 1265.5,937.5 Z"/></g>
<g><path style="opacity:0.004" fill="#2a0a00" d="M 1260.5,941.5 C 1261.83,942.167 1261.83,942.167 1260.5,941.5 Z"/></g>
<g><path style="opacity:0.004" fill="#5f8437" d="M 1272.5,960.5 C 1272.1,961.525 1271.44,961.692 1270.5,961C 1271.09,960.536 1271.76,960.369 1272.5,960.5 Z"/></g>
<g><path style="opacity:0.004" fill="#2a0a00" d="M 1277.5,965.5 C 1276.83,966.167 1276.83,966.167 1277.5,965.5 Z"/></g>
<g><path style="opacity:0.004" fill="#2a0a00" d="M 1579.5,972.5 C 1580.83,973.167 1580.83,973.167 1579.5,972.5 Z"/></g>
<g><path style="opacity:0.008" fill="#2a0a00" d="M 1291.5,973.5 C 1290.83,974.167 1290.83,974.167 1291.5,973.5 Z"/></g>
<g><path style="opacity:0.008" fill="#2a0a00" d="M 1296.5,976.5 C 1295.83,977.167 1295.83,977.167 1296.5,976.5 Z"/></g>
<g><path style="opacity:0.006" fill="#2a0a00" d="M 1305.5,980.5 C 1305.5,980.833 1305.5,981.167 1305.5,981.5C 1302.83,981.167 1302.83,980.833 1305.5,980.5 Z"/></g>
<g><path style="opacity:0.004" fill="#2a0a00" d="M 1305.5,981.5 C 1306.83,982.167 1306.83,982.167 1305.5,981.5 Z"/></g>
<g><path style="opacity:0.016" fill="#2a0a00" d="M 1578.5,982.5 C 1579.83,983.167 1579.83,983.167 1578.5,982.5 Z"/></g>
<g><path style="opacity:0.008" fill="#2a0a00" d="M 1313.5,984.5 C 1312.83,985.167 1312.83,985.167 1313.5,984.5 Z"/></g>
<g><path style="opacity:1" fill="#8c4437" d="M 1334.5,1021.5 C 1266.13,1064.98 1203.29,1115.98 1146,1174.5C 1108.14,1213.69 1076.47,1257.36 1051,1305.5C 1045.54,1317.87 1040.88,1330.54 1037,1343.5C 1029.46,1353.2 1028.63,1363.37 1034.5,1374C 1036.44,1375.9 1038.77,1376.74 1041.5,1376.5C 1044.02,1377.93 1046.69,1379.09 1049.5,1380C 1056.5,1380.67 1063.5,1380.67 1070.5,1380C 1086.29,1377.35 1101.62,1373.18 1116.5,1367.5C 1134.24,1362.98 1151.91,1358.14 1169.5,1353C 1177.66,1347.42 1186,1342.08 1194.5,1337C 1226.9,1303.94 1258.57,1270.27 1289.5,1236C 1302.5,1225 1315.5,1214 1328.5,1203C 1349.61,1187.72 1370.28,1171.88 1390.5,1155.5C 1387.16,1164.02 1383.32,1172.35 1379,1180.5C 1336.79,1221.35 1294.29,1261.85 1251.5,1302C 1228.5,1325.67 1205.5,1349.33 1182.5,1373C 1166.28,1375.95 1151.28,1381.95 1137.5,1391C 1107.05,1403.22 1076.39,1414.89 1045.5,1426C 1031.3,1427.07 1017.63,1430.4 1004.5,1436C 977.926,1446.08 951.593,1456.75 925.5,1468C 882.828,1481.22 840.828,1496.22 799.5,1513C 766.116,1531.52 731.783,1548.19 696.5,1563C 680.271,1573.62 663.271,1582.95 645.5,1591C 624.282,1605.2 602.282,1618.2 579.5,1630C 574.665,1635.17 568.999,1639.17 562.5,1642C 559.667,1644.83 556.833,1647.67 554,1650.5C 547.416,1660.67 541.082,1671 535,1681.5C 529.486,1702.92 525.152,1724.58 522,1746.5C 518.648,1782.65 514.481,1818.65 509.5,1854.5C 503.714,1873.63 498.214,1892.96 493,1912.5C 462.671,2030.81 435.338,2149.81 411,2269.5C 405.03,2297.17 405.03,2324.84 411,2352.5C 412.405,2358.38 414.405,2364.05 417,2369.5C 443.49,2415.51 473.656,2458.84 507.5,2499.5C 381.5,2499.5 255.5,2499.5 129.5,2499.5C 102.41,2468.87 80.2435,2434.87 63,2397.5C 60.2027,2357.54 58.2027,2317.54 57,2277.5C 56.3333,2192.17 56.3333,2106.83 57,2021.5C 60.8394,1809.51 63.8394,1597.51 66,1385.5C 79.0054,1368.04 96.5054,1360.21 118.5,1362C 139.942,1349.22 160.275,1334.89 179.5,1319C 211.797,1313.9 242.797,1304.57 272.5,1291C 296.883,1277.95 316.883,1259.95 332.5,1237C 353.963,1231.7 375.63,1227.37 397.5,1224C 408.341,1221.79 419.008,1218.96 429.5,1215.5C 429.833,1215.83 430.167,1216.17 430.5,1216.5C 425.637,1223.89 422.137,1231.89 420,1240.5C 400.17,1266.11 395.337,1294.45 405.5,1325.5C 393.183,1352.62 383.35,1380.62 376,1409.5C 375.066,1416.51 374.066,1423.51 373,1430.5C 365.683,1444.45 360.35,1459.12 357,1474.5C 352.551,1499.18 357.718,1521.52 372.5,1541.5C 356.162,1560.01 348.662,1581.68 350,1606.5C 351.783,1634.57 364.616,1655.73 388.5,1670C 397.833,1674.33 407.167,1678.67 416.5,1683C 423.191,1686.19 427.525,1691.36 429.5,1698.5C 428.779,1704.54 429.279,1710.54 431,1716.5C 431.786,1719.58 433.619,1721.75 436.5,1723C 445.018,1725.97 453.685,1726.3 462.5,1724C 488.919,1714.05 503.419,1694.88 506,1666.5C 507.966,1652.4 504.632,1639.74 496,1628.5C 490.662,1622.33 485.162,1616.33 479.5,1610.5C 480.552,1610.65 481.552,1610.48 482.5,1610C 504.067,1590.09 527.067,1572.09 551.5,1556C 570.833,1544.67 590.167,1533.33 609.5,1522C 627.476,1512.84 645.81,1504.51 664.5,1497C 708.732,1480.55 752.732,1463.55 796.5,1446C 831.658,1427.92 866.658,1409.59 901.5,1391C 919.99,1384.39 938.323,1377.39 956.5,1370C 966.606,1365.78 976.273,1360.78 985.5,1355C 1012.07,1321.54 1036.41,1287.04 1058.5,1251.5C 1094.49,1215.34 1130.33,1179.01 1166,1142.5C 1187.08,1117.75 1209.91,1094.59 1234.5,1073C 1266.43,1047.73 1298.93,1023.23 1332,999.5C 1332.15,1006.96 1332.98,1014.3 1334.5,1021.5 Z"/></g>
<g><path style="opacity:0.894" fill="#283a15" d="M 1590.5,1006.5 C 1592.01,1008.97 1593.34,1011.64 1594.5,1014.5C 1594.38,1015.11 1594.04,1015.44 1593.5,1015.5C 1591.99,1012.99 1590.65,1010.32 1589.5,1007.5C 1589.62,1006.89 1589.96,1006.56 1590.5,1006.5 Z"/></g>
<g><path style="opacity:1" fill="#6a2520" d="M 1334.5,1021.5 C 1336.71,1027.29 1339.05,1033.12 1341.5,1039C 1322.68,1052.58 1303.68,1065.91 1284.5,1079C 1252.67,1101.55 1223.17,1127.05 1196,1155.5C 1138.36,1218.16 1087.03,1285.49 1042,1357.5C 1037.82,1363.84 1037.65,1370.18 1041.5,1376.5C 1038.77,1376.74 1036.44,1375.9 1034.5,1374C 1028.63,1363.37 1029.46,1353.2 1037,1343.5C 1040.88,1330.54 1045.54,1317.87 1051,1305.5C 1076.47,1257.36 1108.14,1213.69 1146,1174.5C 1203.29,1115.98 1266.13,1064.98 1334.5,1021.5 Z"/></g>
<g><path style="opacity:0.008" fill="#2a0a00" d="M 1595.5,1026.5 C 1596.83,1027.17 1596.83,1027.17 1595.5,1026.5 Z"/></g>
<g><path style="opacity:0.012" fill="#2a0a00" d="M 1593.5,1038.5 C 1594.83,1039.17 1594.83,1039.17 1593.5,1038.5 Z"/></g>
<g><path style="opacity:0.008" fill="#2a0a00" d="M 1591.5,1044.5 C 1592.83,1045.17 1592.83,1045.17 1591.5,1044.5 Z"/></g>
<g><path style="opacity:0.004" fill="#2a0a00" d="M 1590.5,1047.5 C 1591.83,1048.17 1591.83,1048.17 1590.5,1047.5 Z"/></g>
<g><path style="opacity:0.012" fill="#2a0a00" d="M 1589.5,1048.5 C 1589.83,1048.5 1590.17,1048.5 1590.5,1048.5C 1590.31,1049.17 1589.98,1049.17 1589.5,1048.5 Z"/></g>
<g><path style="opacity:0.004" fill="#2a0a00" d="M 1587.5,1053.5 C 1588.83,1054.17 1588.83,1054.17 1587.5,1053.5 Z"/></g>
<g><path style="opacity:0.004" fill="#2a0a00" d="M 1585.5,1056.5 C 1586.83,1057.17 1586.83,1057.17 1585.5,1056.5 Z"/></g>
<g><path style="opacity:0.004" fill="#2a0a00" d="M 1582.5,1060.5 C 1583.83,1061.17 1583.83,1061.17 1582.5,1060.5 Z"/></g>
<g><path style="opacity:0.004" fill="#2a0a00" d="M 1581.5,1063.5 C 1582.83,1064.17 1582.83,1064.17 1581.5,1063.5 Z"/></g>
<g><path style="opacity:0.004" fill="#2a0a00" d="M 1578.5,1067.5 C 1579.83,1068.17 1579.83,1068.17 1578.5,1067.5 Z"/></g>
<g><path style="opacity:0.318" fill="#21511d" d="M 1576.5,1069.5 C 1576.5,1070.17 1576.5,1070.83 1576.5,1071.5C 1573.83,1070.83 1573.83,1070.17 1576.5,1069.5 Z"/></g>
<g><path style="opacity:0.016" fill="#234217" d="M 1578.5,1074.5 C 1580.53,1075.54 1581.86,1077.21 1582.5,1079.5C 1580.46,1078.42 1579.12,1076.75 1578.5,1074.5 Z"/></g>
<g><path style="opacity:0.678" fill="#244a1b" d="M 1588.5,1087.5 C 1586.46,1086.42 1585.12,1084.75 1584.5,1082.5C 1585.12,1082.39 1585.62,1082.06 1586,1081.5C 1586.66,1083.63 1587.49,1085.63 1588.5,1087.5 Z"/></g>
<g><path style="opacity:0.192" fill="#1f6224" d="M 1588.5,1087.5 C 1590.05,1087.82 1590.71,1088.82 1590.5,1090.5C 1589.09,1090.03 1588.43,1089.03 1588.5,1087.5 Z"/></g>
<g><path style="opacity:0.451" fill="#205b22" d="M 1590.5,1090.5 C 1592.73,1091.4 1593.73,1093.07 1593.5,1095.5C 1591.75,1094.34 1590.75,1092.67 1590.5,1090.5 Z"/></g>
<g><path style="opacity:0.906" fill="#263d16" d="M 1604.5,1131.5 C 1605.27,1132.17 1605.93,1133.01 1606.5,1134C 1606.17,1135.67 1605.83,1137.33 1605.5,1139C 1606.17,1139.33 1606.83,1139.67 1607.5,1140C 1606.18,1144.6 1606.18,1149.1 1607.5,1153.5C 1607.5,1155.83 1607.5,1158.17 1607.5,1160.5C 1606.57,1161.57 1606.23,1162.9 1606.5,1164.5C 1605.59,1153.67 1604.92,1142.67 1604.5,1131.5 Z"/></g>
<g><path style="opacity:1" fill="#b96151" d="M 1397.5,1150.5 C 1394.89,1151.78 1392.55,1153.45 1390.5,1155.5C 1370.28,1171.88 1349.61,1187.72 1328.5,1203C 1315.5,1214 1302.5,1225 1289.5,1236C 1258.57,1270.27 1226.9,1303.94 1194.5,1337C 1186,1342.08 1177.66,1347.42 1169.5,1353C 1151.91,1358.14 1134.24,1362.98 1116.5,1367.5C 1139.34,1357.08 1161.67,1345.58 1183.5,1333C 1244.86,1265.63 1311.2,1203.96 1382.5,1148C 1387.93,1145.14 1393.6,1142.97 1399.5,1141.5C 1398.99,1144.54 1398.32,1147.54 1397.5,1150.5 Z"/></g>
<g><path style="opacity:0.004" fill="#2a0a00" d="M 1607.5,1146.5 C 1608.83,1147.17 1608.83,1147.17 1607.5,1146.5 Z"/></g>
<g><path style="opacity:0.004" fill="#2a0a00" d="M 1607.5,1149.5 C 1608.83,1150.17 1608.83,1150.17 1607.5,1149.5 Z"/></g>
<g><path style="opacity:1" fill="#6b2520" d="M 1397.5,1150.5 C 1397.33,1159.84 1397.5,1169.17 1398,1178.5C 1398.63,1185.31 1399.63,1191.98 1401,1198.5C 1390.17,1206 1379.33,1213.5 1368.5,1221C 1331.52,1256.98 1294.19,1292.64 1256.5,1328C 1239.17,1346 1221.83,1364 1204.5,1382C 1192.93,1393.91 1179.93,1403.91 1165.5,1412C 1114.16,1437.17 1061.16,1458.17 1006.5,1475C 970.023,1491.44 933.023,1506.6 895.5,1520.5C 894.833,1520.17 894.167,1519.83 893.5,1519.5C 862.044,1528.48 830.71,1537.98 799.5,1548C 717.631,1592.92 640.964,1645.25 569.5,1705C 562.352,1711.15 557.185,1718.65 554,1727.5C 547.748,1750.76 541.748,1774.09 536,1797.5C 523.508,1862.13 512.008,1926.79 501.5,1991.5C 501.469,1945.67 504.135,1900 509.5,1854.5C 514.481,1818.65 518.648,1782.65 522,1746.5C 525.152,1724.58 529.486,1702.92 535,1681.5C 541.082,1671 547.416,1660.67 554,1650.5C 556.833,1647.67 559.667,1644.83 562.5,1642C 568.999,1639.17 574.665,1635.17 579.5,1630C 602.282,1618.2 624.282,1605.2 645.5,1591C 663.271,1582.95 680.271,1573.62 696.5,1563C 731.783,1548.19 766.116,1531.52 799.5,1513C 840.828,1496.22 882.828,1481.22 925.5,1468C 951.593,1456.75 977.926,1446.08 1004.5,1436C 1017.63,1430.4 1031.3,1427.07 1045.5,1426C 1076.39,1414.89 1107.05,1403.22 1137.5,1391C 1151.28,1381.95 1166.28,1375.95 1182.5,1373C 1205.5,1349.33 1228.5,1325.67 1251.5,1302C 1294.29,1261.85 1336.79,1221.35 1379,1180.5C 1383.32,1172.35 1387.16,1164.02 1390.5,1155.5C 1392.55,1153.45 1394.89,1151.78 1397.5,1150.5 Z"/></g>
<g><path style="opacity:0.004" fill="#2a0a00" d="M 1607.5,1152.5 C 1608.83,1153.17 1608.83,1153.17 1607.5,1152.5 Z"/></g>
<g><path style="opacity:0.004" fill="#312f14" d="M 1607.5,1160.5 C 1608.53,1160.9 1608.69,1161.56 1608,1162.5C 1607.54,1161.91 1607.37,1161.24 1607.5,1160.5 Z"/></g>
<g><path style="opacity:1" fill="#6b251f" d="M 372.5,1541.5 C 357.718,1521.52 352.551,1499.18 357,1474.5C 360.35,1459.12 365.683,1444.45 373,1430.5C 374.066,1423.51 375.066,1416.51 376,1409.5C 383.35,1380.62 393.183,1352.62 405.5,1325.5C 395.337,1294.45 400.17,1266.11 420,1240.5C 422.137,1231.89 425.637,1223.89 430.5,1216.5C 430.167,1216.17 429.833,1215.83 429.5,1215.5C 419.008,1218.96 408.341,1221.79 397.5,1224C 375.63,1227.37 353.963,1231.7 332.5,1237C 316.883,1259.95 296.883,1277.95 272.5,1291C 242.797,1304.57 211.797,1313.9 179.5,1319C 160.275,1334.89 139.942,1349.22 118.5,1362C 96.5054,1360.21 79.0054,1368.04 66,1385.5C 63.8394,1597.51 60.8394,1809.51 57,2021.5C 56.3333,2106.83 56.3333,2192.17 57,2277.5C 58.2027,2317.54 60.2027,2357.54 63,2397.5C 80.2435,2434.87 102.41,2468.87 129.5,2499.5C 86.1667,2499.5 42.8333,2499.5 -0.5,2499.5C -0.5,2093.83 -0.5,1688.17 -0.5,1282.5C 28.8245,1272.01 53.3245,1254.68 73,1230.5C 74.0591,1238.74 76.0591,1246.74 79,1254.5C 83.0408,1266.76 90.5408,1276.26 101.5,1283C 105.5,1285 109.5,1285 113.5,1283C 138.044,1265.09 153.878,1241.26 161,1211.5C 185.059,1236.64 214.559,1248.47 249.5,1247C 252.785,1246.24 255.785,1244.91 258.5,1243C 270.063,1232.02 278.729,1219.18 284.5,1204.5C 309.471,1205.26 332.804,1199.42 354.5,1187C 365.659,1179.99 376.659,1172.83 387.5,1165.5C 421.759,1179.53 457.092,1183.37 493.5,1177C 503.669,1174.16 513.669,1171.16 523.5,1168C 501.19,1192.82 482.19,1219.98 466.5,1249.5C 462.384,1244.21 458.051,1239.05 453.5,1234C 451.5,1233.33 449.5,1233.33 447.5,1234C 443.701,1236.8 440.201,1239.96 437,1243.5C 419.172,1269.47 415.005,1297.47 424.5,1327.5C 421.216,1332.4 418.716,1337.74 417,1343.5C 412.006,1360.88 415.173,1376.55 426.5,1390.5C 423.182,1394.32 419.682,1397.98 416,1401.5C 386.442,1440.79 379.276,1483.79 394.5,1530.5C 386.059,1532.05 378.725,1535.72 372.5,1541.5 Z"/></g>
<g><path style="opacity:0.569" fill="#244d1c" d="M 1493.5,1174.5 C 1493.33,1175.49 1493.66,1176.16 1494.5,1176.5C 1494.5,1176.83 1494.5,1177.17 1494.5,1177.5C 1493.83,1178.83 1493.17,1180.17 1492.5,1181.5C 1492.07,1177.64 1492.4,1175.3 1493.5,1174.5 Z"/></g>
<g><path style="opacity:0.004" fill="#312f14" d="M 1494.5,1177.5 C 1495.17,1177.5 1495.83,1177.5 1496.5,1177.5C 1496.5,1177.83 1496.5,1178.17 1496.5,1178.5C 1495.51,1178.67 1494.84,1178.34 1494.5,1177.5 Z"/></g>
<g><path style="opacity:0.004" fill="#2a0a00" d="M 1496.5,1178.5 C 1497.83,1179.17 1497.83,1179.17 1496.5,1178.5 Z"/></g>
<g><path style="opacity:0.008" fill="#2a0a00" d="M 1499.5,1180.5 C 1500.83,1181.17 1500.83,1181.17 1499.5,1180.5 Z"/></g>
<g><path style="opacity:0.012" fill="#2a0a00" d="M 1503.5,1182.5 C 1502.83,1183.17 1502.83,1183.17 1503.5,1182.5 Z"/></g>
<g><path style="opacity:0.004" fill="#2f5220" d="M 1493.5,1182.5 C 1494.53,1182.9 1494.69,1183.56 1494,1184.5C 1493.54,1183.91 1493.37,1183.24 1493.5,1182.5 Z"/></g>
<g><path style="opacity:0.004" fill="#2a0a00" d="M 1508.5,1185.5 C 1508.1,1186.53 1507.44,1186.69 1506.5,1186C 1507.09,1185.54 1507.76,1185.37 1508.5,1185.5 Z"/></g>
<g><path style="opacity:0.004" fill="#2a0a00" d="M 1603.5,1186.5 C 1604.83,1187.17 1604.83,1187.17 1603.5,1186.5 Z"/></g>
<g><path style="opacity:0.004" fill="#2a0a00" d="M 1492.5,1188.5 C 1493.83,1189.17 1493.83,1189.17 1492.5,1188.5 Z"/></g>
<g><path style="opacity:0.008" fill="#2a0a00" d="M 1515.5,1189.5 C 1515.5,1189.83 1515.5,1190.17 1515.5,1190.5C 1514.83,1190.02 1514.83,1189.69 1515.5,1189.5 Z"/></g>
<g><path style="opacity:0.004" fill="#2a0a00" d="M 1602.5,1189.5 C 1603.83,1190.17 1603.83,1190.17 1602.5,1189.5 Z"/></g>
<g><path style="opacity:0.004" fill="#2a0a00" d="M 1515.5,1190.5 C 1516.83,1191.17 1516.83,1191.17 1515.5,1190.5 Z"/></g>
<g><path style="opacity:0.008" fill="#2a0a00" d="M 1519.5,1191.5 C 1518.83,1192.17 1518.83,1192.17 1519.5,1191.5 Z"/></g>
<g><path style="opacity:0.004" fill="#2a0a00" d="M 1601.5,1192.5 C 1602.83,1193.17 1602.83,1193.17 1601.5,1192.5 Z"/></g>
<g><path style="opacity:0.02" fill="#2a0a00" d="M 1525.5,1193.5 C 1525.5,1193.83 1525.5,1194.17 1525.5,1194.5C 1524.83,1194.02 1524.83,1193.69 1525.5,1193.5 Z"/></g>
<g><path style="opacity:0.008" fill="#2a0a00" d="M 1490.5,1194.5 C 1491.83,1195.17 1491.83,1195.17 1490.5,1194.5 Z"/></g>
<g><path style="opacity:0.004" fill="#2a0a00" d="M 1525.5,1194.5 C 1526.83,1195.17 1526.83,1195.17 1525.5,1194.5 Z"/></g>
<g><path style="opacity:0.004" fill="#2a0a00" d="M 1528.5,1195.5 C 1529.83,1196.17 1529.83,1196.17 1528.5,1195.5 Z"/></g>
<g><path style="opacity:0.02" fill="#2a0a00" d="M 1531.5,1195.5 C 1531.5,1195.83 1531.5,1196.17 1531.5,1196.5C 1530.83,1196.02 1530.83,1195.69 1531.5,1195.5 Z"/></g>
<g><path style="opacity:0.004" fill="#2a0a00" d="M 1490.5,1196.5 C 1491.83,1197.17 1491.83,1197.17 1490.5,1196.5 Z"/></g>
<g><path style="opacity:0.004" fill="#2a0a00" d="M 1531.5,1196.5 C 1532.83,1197.17 1532.83,1197.17 1531.5,1196.5 Z"/></g>
<g><path style="opacity:0.004" fill="#2a0a00" d="M 1598.5,1196.5 C 1599.83,1197.17 1599.83,1197.17 1598.5,1196.5 Z"/></g>
<g><path style="opacity:0.012" fill="#2a0a00" d="M 1489.5,1197.5 C 1489.83,1197.5 1490.17,1197.5 1490.5,1197.5C 1490.31,1198.17 1489.98,1198.17 1489.5,1197.5 Z"/></g>
<g><path style="opacity:0.012" fill="#2a0a00" d="M 1537.5,1197.5 C 1536.83,1198.17 1536.83,1198.17 1537.5,1197.5 Z"/></g>
<g><path style="opacity:0.012" fill="#2a0a00" d="M 1544.5,1199.5 C 1543.83,1200.17 1543.83,1200.17 1544.5,1199.5 Z"/></g>
<g><path style="opacity:0.004" fill="#2a0a00" d="M 1596.5,1199.5 C 1597.83,1200.17 1597.83,1200.17 1596.5,1199.5 Z"/></g>
<g><path style="opacity:0.004" fill="#2a0a00" d="M 1488.5,1200.5 C 1489.83,1201.17 1489.83,1201.17 1488.5,1200.5 Z"/></g>
<g><path style="opacity:0.004" fill="#2a0a00" d="M 1547.5,1200.5 C 1548.83,1201.17 1548.83,1201.17 1547.5,1200.5 Z"/></g>
<g><path style="opacity:0.004" fill="#2a0a00" d="M 1550.5,1200.5 C 1549.83,1201.17 1549.83,1201.17 1550.5,1200.5 Z"/></g>
<g><path style="opacity:0.004" fill="#2a0a00" d="M 1553.5,1201.5 C 1552.83,1202.17 1552.83,1202.17 1553.5,1201.5 Z"/></g>
<g><path style="opacity:0.004" fill="#2a0a00" d="M 1488.5,1202.5 C 1489.83,1203.17 1489.83,1203.17 1488.5,1202.5 Z"/></g>
<g><path style="opacity:0.008" fill="#2a0a00" d="M 1559.5,1202.5 C 1558.83,1203.17 1558.83,1203.17 1559.5,1202.5 Z"/></g>
<g><path style="opacity:0.004" fill="#2a0a00" d="M 1560.5,1202.5 C 1560.83,1202.5 1561.17,1202.5 1561.5,1202.5C 1561.31,1203.17 1560.98,1203.17 1560.5,1202.5 Z"/></g>
<g><path style="opacity:0.008" fill="#2a0a00" d="M 1487.5,1203.5 C 1487.83,1203.5 1488.17,1203.5 1488.5,1203.5C 1488.31,1204.17 1487.98,1204.17 1487.5,1203.5 Z"/></g>
<g><path style="opacity:0.004" fill="#2a0a00" d="M 1568.5,1203.5 C 1569.83,1204.17 1569.83,1204.17 1568.5,1203.5 Z"/></g>
<g><path style="opacity:0.012" fill="#2a0a00" d="M 1486.5,1206.5 C 1487.83,1207.17 1487.83,1207.17 1486.5,1206.5 Z"/></g>
<g><path style="opacity:0.004" fill="#2a0a00" d="M 1484.5,1212.5 C 1485.83,1213.17 1485.83,1213.17 1484.5,1212.5 Z"/></g>
<g><path style="opacity:0.008" fill="#2a0a00" d="M 1482.5,1216.5 C 1483.83,1217.17 1483.83,1217.17 1482.5,1216.5 Z"/></g>
<g><path style="opacity:0.004" fill="#2a0a00" d="M 1480.5,1220.5 C 1481.83,1221.17 1481.83,1221.83 1480.5,1222.5C 1480.5,1221.83 1480.5,1221.17 1480.5,1220.5 Z"/></g>
<g><path style="opacity:0.012" fill="#2a0a00" d="M 1479.5,1222.5 C 1479.83,1222.5 1480.17,1222.5 1480.5,1222.5C 1480.31,1223.17 1479.98,1223.17 1479.5,1222.5 Z"/></g>
<g><path style="opacity:0.004" fill="#2a0a00" d="M 1478.5,1225.5 C 1479.83,1226.17 1479.83,1226.17 1478.5,1225.5 Z"/></g>
<g><path style="opacity:0.008" fill="#2a0a00" d="M 1477.5,1226.5 C 1477.83,1226.5 1478.17,1226.5 1478.5,1226.5C 1478.31,1227.17 1477.98,1227.17 1477.5,1226.5 Z"/></g>
<g><path style="opacity:0.004" fill="#2f5220" d="M 1475.5,1229.5 C 1476.53,1229.9 1476.69,1230.56 1476,1231.5C 1475.54,1230.91 1475.37,1230.24 1475.5,1229.5 Z"/></g>
<g><path style="opacity:1" fill="#d57b43" d="M 556.5,1231.5 C 559.263,1231.74 561.429,1233.08 563,1235.5C 568.563,1243.65 571.23,1252.65 571,1262.5C 564.04,1256.12 555.873,1252.12 546.5,1250.5C 549.036,1243.76 552.369,1237.43 556.5,1231.5 Z"/></g>
<g><path style="opacity:0.004" fill="#2a0a00" d="M 1471.5,1236.5 C 1472.83,1237.17 1472.83,1237.17 1471.5,1236.5 Z"/></g>
<g><path style="opacity:0.008" fill="#2a0a00" d="M 1470.5,1238.5 C 1471.83,1239.17 1471.83,1239.17 1470.5,1238.5 Z"/></g>
<g><path style="opacity:0.008" fill="#2a0a00" d="M 1468.5,1241.5 C 1469.83,1242.17 1469.83,1242.17 1468.5,1241.5 Z"/></g>
<g><path style="opacity:0.004" fill="#2a0a00" d="M 1466.5,1244.5 C 1467.83,1245.17 1467.83,1245.17 1466.5,1244.5 Z"/></g>
<g><path style="opacity:1" fill="#d77d44" d="M 456.5,1256.5 C 453.93,1273.39 453.096,1290.39 454,1307.5C 454.767,1312.31 456.6,1316.64 459.5,1320.5C 457.613,1325.94 455.446,1331.28 453,1336.5C 451.525,1341.06 450.692,1345.73 450.5,1350.5C 449.01,1363.57 450.843,1376.23 456,1388.5C 458.729,1391.4 461.562,1394.07 464.5,1396.5C 434.004,1391.83 422.17,1374.5 429,1344.5C 430.287,1339.1 432.787,1334.43 436.5,1330.5C 438.071,1331.31 439.738,1331.64 441.5,1331.5C 439.308,1324.77 436.808,1318.1 434,1311.5C 427.795,1286.99 433.295,1265.66 450.5,1247.5C 453.265,1250.04 455.265,1253.04 456.5,1256.5 Z"/></g>
<g><path style="opacity:0.004" fill="#18782d" d="M 1464.5,1247.5 C 1465.83,1248.17 1465.83,1248.17 1464.5,1247.5 Z"/></g>
<g><path style="opacity:0.004" fill="#2a0a00" d="M 1462.5,1251.5 C 1463.83,1252.17 1463.83,1252.17 1462.5,1251.5 Z"/></g>
<g><path style="opacity:1" fill="#ba6252" d="M 1058.5,1251.5 C 1036.41,1287.04 1012.07,1321.54 985.5,1355C 976.273,1360.78 966.606,1365.78 956.5,1370C 938.323,1377.39 919.99,1384.39 901.5,1391C 866.658,1409.59 831.658,1427.92 796.5,1446C 752.732,1463.55 708.732,1480.55 664.5,1497C 645.81,1504.51 627.476,1512.84 609.5,1522C 590.167,1533.33 570.833,1544.67 551.5,1556C 527.067,1572.09 504.067,1590.09 482.5,1610C 481.552,1610.48 480.552,1610.65 479.5,1610.5C 474.671,1605.5 470.004,1600.34 465.5,1595C 477.167,1584.67 488.833,1574.33 500.5,1564C 509.654,1556.92 519.32,1550.59 529.5,1545C 545.287,1537.94 560.954,1530.61 576.5,1523C 602.871,1506.48 630.204,1491.48 658.5,1478C 699.959,1460.96 741.959,1445.29 784.5,1431C 804.995,1419.92 825.328,1408.59 845.5,1397C 887.048,1374.04 930.381,1355.38 975.5,1341C 983.265,1335.24 990.431,1328.74 997,1321.5C 1016.22,1297.11 1036.72,1273.78 1058.5,1251.5 Z"/></g>
<g><path style="opacity:1" fill="#fbba78" d="M 585.5,1317.5 C 584.517,1321.3 584.183,1325.3 584.5,1329.5C 583.448,1329.65 582.448,1329.48 581.5,1329C 579.29,1327.49 577.457,1325.66 576,1323.5C 577.755,1309.58 574.755,1296.92 567,1285.5C 553.116,1272.14 536.95,1262.81 518.5,1257.5C 552.851,1252.42 575.017,1266.42 585,1299.5C 585.499,1305.49 585.666,1311.49 585.5,1317.5 Z"/></g>
<g><path style="opacity:0.004" fill="#2a0a00" d="M 1459.5,1256.5 C 1460.53,1256.9 1460.69,1257.56 1460,1258.5C 1459.54,1257.91 1459.37,1257.24 1459.5,1256.5 Z"/></g>
<g><path style="opacity:1" fill="#e0a170" d="M 456.5,1256.5 C 460.129,1263.53 463.296,1270.86 466,1278.5C 468,1281.67 470.5,1284.33 473.5,1286.5C 474.42,1287.07 474.754,1286.4 474.5,1284.5C 478.764,1282.38 481.931,1279.05 484,1274.5C 488.001,1271.66 491.501,1268.33 494.5,1264.5C 502.169,1261.39 510.169,1259.06 518.5,1257.5C 536.95,1262.81 553.116,1272.14 567,1285.5C 574.755,1296.92 577.755,1309.58 576,1323.5C 577.457,1325.66 579.29,1327.49 581.5,1329C 582.448,1329.48 583.448,1329.65 584.5,1329.5C 584.183,1325.3 584.517,1321.3 585.5,1317.5C 585.334,1321.85 585.501,1326.18 586,1330.5C 589.786,1335.12 592.952,1340.12 595.5,1345.5C 588.969,1344.99 582.636,1345.82 576.5,1348C 567.167,1352 557.833,1356 548.5,1360C 549.056,1360.38 549.389,1360.88 549.5,1361.5C 543.454,1358.28 537.954,1358.94 533,1363.5C 532.517,1364.45 532.351,1365.45 532.5,1366.5C 531.167,1366.5 529.833,1366.5 528.5,1366.5C 529.739,1365.79 530.239,1364.79 530,1363.5C 524.912,1358.57 519.412,1354.24 513.5,1350.5C 515.297,1344.98 516.631,1339.31 517.5,1333.5C 517.635,1328.45 515.469,1326.78 511,1328.5C 508.954,1334.78 507.121,1341.11 505.5,1347.5C 486.847,1342.8 468.514,1343.8 450.5,1350.5C 450.692,1345.73 451.525,1341.06 453,1336.5C 455.446,1331.28 457.613,1325.94 459.5,1320.5C 456.6,1316.64 454.767,1312.31 454,1307.5C 453.096,1290.39 453.93,1273.39 456.5,1256.5 Z"/></g>
<g><path style="opacity:1" fill="#d37b44" d="M 494.5,1264.5 C 491.501,1268.33 488.001,1271.66 484,1274.5C 481.931,1279.05 478.764,1282.38 474.5,1284.5C 474.754,1286.4 474.42,1287.07 473.5,1286.5C 473.212,1283.13 473.046,1279.8 473,1276.5C 478.924,1270.29 486.091,1266.29 494.5,1264.5 Z"/></g>
<g><path style="opacity:1" fill="#300f04" d="M 564.5,1325.5 C 568.338,1325.01 570.338,1326.67 570.5,1330.5C 570.062,1338.34 567.228,1345.01 562,1350.5C 561.228,1350.36 560.561,1350.02 560,1349.5C 559.536,1341.08 561.036,1333.08 564.5,1325.5 Z"/></g>
<g><path style="opacity:1" fill="#311006" d="M 513.5,1350.5 C 511.881,1353.97 509.215,1355.47 505.5,1355C 504.351,1352.54 504.351,1350.04 505.5,1347.5C 507.121,1341.11 508.954,1334.78 511,1328.5C 515.469,1326.78 517.635,1328.45 517.5,1333.5C 516.631,1339.31 515.297,1344.98 513.5,1350.5 Z"/></g>
<g><path style="opacity:1" fill="#f3bb81" d="M 505.5,1347.5 C 504.351,1350.04 504.351,1352.54 505.5,1355C 509.215,1355.47 511.881,1353.97 513.5,1350.5C 519.412,1354.24 524.912,1358.57 530,1363.5C 530.239,1364.79 529.739,1365.79 528.5,1366.5C 526.727,1367.31 526.227,1368.65 527,1370.5C 531.364,1373.7 535.864,1376.7 540.5,1379.5C 541.466,1381.4 541.799,1383.4 541.5,1385.5C 536.034,1386.09 530.7,1387.26 525.5,1389C 523.588,1393.59 522.254,1398.42 521.5,1403.5C 513.169,1402.58 505.169,1400.42 497.5,1397C 486.465,1397.49 475.465,1397.32 464.5,1396.5C 461.562,1394.07 458.729,1391.4 456,1388.5C 450.843,1376.23 449.01,1363.57 450.5,1350.5C 468.514,1343.8 486.847,1342.8 505.5,1347.5 Z"/></g>
<g><path style="opacity:1" fill="#f2ba81" d="M 595.5,1345.5 C 600.03,1356.49 599.363,1367.16 593.5,1377.5C 578.231,1380.21 562.898,1382.54 547.5,1384.5C 547.215,1382.71 547.548,1381.05 548.5,1379.5C 552.27,1377.2 555.77,1374.53 559,1371.5C 559.91,1369.06 559.076,1367.72 556.5,1367.5C 555.419,1364.09 553.085,1362.09 549.5,1361.5C 549.389,1360.88 549.056,1360.38 548.5,1360C 557.833,1356 567.167,1352 576.5,1348C 582.636,1345.82 588.969,1344.99 595.5,1345.5 Z"/></g>
<g><path style="opacity:1" fill="#d67d45" d="M 549.5,1361.5 C 553.085,1362.09 555.419,1364.09 556.5,1367.5C 552.818,1370.34 548.818,1372.68 544.5,1374.5C 539.785,1372.82 535.785,1370.15 532.5,1366.5C 532.351,1365.45 532.517,1364.45 533,1363.5C 537.954,1358.94 543.454,1358.28 549.5,1361.5 Z"/></g>
<g><path style="opacity:1" fill="#6a6a69" d="M 599.5,1484.5 C 599.372,1482.35 599.872,1480.35 601,1478.5C 609.027,1466.8 615.361,1454.13 620,1440.5C 622.032,1432.27 619.866,1425.43 613.5,1420C 609.96,1418.07 606.626,1415.9 603.5,1413.5C 607.318,1405.86 611.151,1398.2 615,1390.5C 615.941,1387.85 616.774,1385.18 617.5,1382.5C 638.094,1379.01 658.761,1376.68 679.5,1375.5C 671.449,1392.99 664.782,1410.99 659.5,1429.5C 652.15,1433.02 645.484,1437.52 639.5,1443C 628.197,1454.63 618.031,1467.13 609,1480.5C 605.948,1482.13 602.782,1483.46 599.5,1484.5 Z"/></g>
<g><path style="opacity:1" fill="#8d8d8d" d="M 617.5,1382.5 C 616.774,1385.18 615.941,1387.85 615,1390.5C 611.151,1398.2 607.318,1405.86 603.5,1413.5C 606.626,1415.9 609.96,1418.07 613.5,1420C 619.866,1425.43 622.032,1432.27 620,1440.5C 615.361,1454.13 609.027,1466.8 601,1478.5C 599.872,1480.35 599.372,1482.35 599.5,1484.5C 595.32,1487.1 590.654,1488.43 585.5,1488.5C 584.666,1486.74 585.166,1485.07 587,1483.5C 587.333,1480.5 587.667,1477.5 588,1474.5C 592.624,1462.39 597.124,1450.22 601.5,1438C 601.355,1437.23 601.022,1436.56 600.5,1436C 587.501,1433.35 582.001,1425.51 584,1412.5C 585.449,1407.6 587.449,1402.93 590,1398.5C 593.665,1394.49 596.832,1390.16 599.5,1385.5C 605.394,1384.07 611.394,1383.07 617.5,1382.5 Z"/></g>
<g><path style="opacity:1" fill="#6a6a69" d="M 599.5,1385.5 C 596.832,1390.16 593.665,1394.49 590,1398.5C 587.449,1402.93 585.449,1407.6 584,1412.5C 582.001,1425.51 587.501,1433.35 600.5,1436C 601.022,1436.56 601.355,1437.23 601.5,1438C 597.124,1450.22 592.624,1462.39 588,1474.5C 587.667,1477.5 587.333,1480.5 587,1483.5C 585.166,1485.07 584.666,1486.74 585.5,1488.5C 583.169,1489.32 580.669,1489.98 578,1490.5C 577.5,1490.17 577,1489.83 576.5,1489.5C 580.802,1484.23 583.469,1478.23 584.5,1471.5C 584.334,1464.83 581.001,1460.66 574.5,1459C 571.833,1458.33 569.167,1458.33 566.5,1459C 549.558,1469.1 533.891,1480.94 519.5,1494.5C 517.258,1490.09 514.425,1486.09 511,1482.5C 510.833,1481.33 510.667,1480.17 510.5,1479C 516.804,1451.62 523.637,1424.45 531,1397.5C 553.657,1392.67 576.491,1388.67 599.5,1385.5 Z"/></g>
<g><path style="opacity:1" fill="#d87d44" d="M 513.5,1429.5 C 500.059,1421.62 485.726,1415.62 470.5,1411.5C 465.721,1409.62 460.887,1407.62 456,1405.5C 447.167,1418.17 440.167,1431.83 435,1446.5C 431.566,1458.26 431.733,1469.93 435.5,1481.5C 429.283,1487.59 424.283,1494.59 420.5,1502.5C 420.833,1502.83 421.167,1503.17 421.5,1503.5C 423.592,1501.4 425.925,1499.73 428.5,1498.5C 429.111,1506.39 431.945,1513.39 437,1519.5C 450.655,1539.45 469.488,1546.78 493.5,1541.5C 500.775,1531.39 509.275,1522.39 519,1514.5C 527.024,1504.32 535.191,1494.32 543.5,1484.5C 552.558,1477.55 562.058,1471.22 572,1465.5C 574.994,1466.81 576.494,1469.14 576.5,1472.5C 576.153,1475.53 574.986,1478.19 573,1480.5C 562.373,1493.46 551.373,1506.13 540,1518.5C 535.986,1523.86 532.486,1529.53 529.5,1535.5C 514.254,1543.58 500.254,1553.42 487.5,1565C 454.687,1572.07 429.187,1561.57 411,1533.5C 400.627,1512.21 397.627,1489.88 402,1466.5C 406.596,1443.65 416.263,1423.31 431,1405.5C 433.677,1403.49 436.344,1401.49 439,1399.5C 443.659,1401.54 448.492,1403.04 453.5,1404C 467.833,1404.33 482.167,1404.67 496.5,1405C 503.943,1407.69 511.609,1409.36 519.5,1410C 517.405,1416.57 515.405,1423.07 513.5,1429.5 Z"/></g>
<g><path style="opacity:1" fill="#dfa06f" d="M 470.5,1411.5 C 472.153,1416.19 474.153,1420.52 476.5,1424.5C 475.924,1431.64 477.757,1438.3 482,1444.5C 488.788,1451.98 496.621,1458.15 505.5,1463C 504.589,1466.15 503.755,1469.31 503,1472.5C 502.586,1472.96 502.086,1473.29 501.5,1473.5C 492.143,1467.1 481.81,1463.6 470.5,1463C 462.518,1453.87 457.018,1443.37 454,1431.5C 452.644,1430.62 451.144,1430.29 449.5,1430.5C 449.404,1444.07 454.07,1455.57 463.5,1465C 452.721,1468.22 443.387,1473.72 435.5,1481.5C 431.733,1469.93 431.566,1458.26 435,1446.5C 440.167,1431.83 447.167,1418.17 456,1405.5C 460.887,1407.62 465.721,1409.62 470.5,1411.5 Z"/></g>
<g><path style="opacity:1" fill="#f2ba80" d="M 470.5,1411.5 C 485.726,1415.62 500.059,1421.62 513.5,1429.5C 511.828,1437.19 509.995,1444.86 508,1452.5C 507.439,1453.02 506.772,1453.36 506,1453.5C 493.194,1448.03 484.527,1438.69 480,1425.5C 478.989,1424.66 477.822,1424.33 476.5,1424.5C 474.153,1420.52 472.153,1416.19 470.5,1411.5 Z"/></g>
<g><path style="opacity:1" fill="#dd9e6d" d="M 669.5,1439.5 C 655.83,1447.33 642.497,1455.67 629.5,1464.5C 638.399,1453.77 648.732,1444.6 660.5,1437C 663.482,1436.5 666.482,1436.34 669.5,1436.5C 669.5,1437.5 669.5,1438.5 669.5,1439.5 Z"/></g>
<g><path style="opacity:1" fill="#d57c44" d="M 669.5,1439.5 C 661.607,1449.89 652.774,1459.56 643,1468.5C 639.781,1472.05 636.948,1475.89 634.5,1480C 626.144,1484.35 617.811,1488.35 609.5,1492C 615.195,1482.14 621.862,1472.97 629.5,1464.5C 642.497,1455.67 655.83,1447.33 669.5,1439.5 Z"/></g>
<g><path style="opacity:1" fill="#fbba78" d="M 503.5,1512.5 C 501.692,1512.51 500.025,1512.01 498.5,1511C 486.051,1489.44 467.718,1480.28 443.5,1483.5C 462.528,1470.72 480.861,1471.56 498.5,1486C 502.789,1491.96 507.456,1497.62 512.5,1503C 509.268,1506.06 506.268,1509.23 503.5,1512.5 Z"/></g>
<g><path style="opacity:1" fill="#e0a170" d="M 503.5,1512.5 C 499.499,1517.34 495.666,1522.34 492,1527.5C 491.506,1529.13 491.34,1530.8 491.5,1532.5C 492.873,1532.66 494.207,1532.49 495.5,1532C 510.01,1514.59 526.01,1498.76 543.5,1484.5C 535.191,1494.32 527.024,1504.32 519,1514.5C 509.275,1522.39 500.775,1531.39 493.5,1541.5C 469.488,1546.78 450.655,1539.45 437,1519.5C 431.945,1513.39 429.111,1506.39 428.5,1498.5C 432.5,1492.5 437.5,1487.5 443.5,1483.5C 467.718,1480.28 486.051,1489.44 498.5,1511C 500.025,1512.01 501.692,1512.51 503.5,1512.5 Z"/></g>
<g><path style="opacity:1" fill="#d37a42" d="M 600.5,1491.5 C 601.239,1491.37 601.906,1491.54 602.5,1492C 601.887,1494.15 601.221,1496.31 600.5,1498.5C 584.017,1508.86 567.017,1518.03 549.5,1526C 553.167,1521 556.833,1516 560.5,1511C 573.771,1504.2 587.105,1497.7 600.5,1491.5 Z"/></g>
<g><path style="opacity:1" fill="#d87d44" d="M 438.5,1700.5 C 445.519,1699.47 450.519,1695.8 453.5,1689.5C 457.677,1682 459.677,1673.83 459.5,1665C 458.764,1640.88 450.097,1620.21 433.5,1603C 418.594,1593.59 406.594,1581.43 397.5,1566.5C 393.645,1558.27 391.645,1549.6 391.5,1540.5C 393.628,1539.37 395.961,1539.2 398.5,1540C 408.017,1555.52 421.184,1566.69 438,1573.5C 440.498,1579.99 443.832,1585.99 448,1591.5C 459.966,1605.13 472.299,1618.47 485,1631.5C 496.307,1644.37 499.307,1659.03 494,1675.5C 489.673,1694.69 478.173,1707.19 459.5,1713C 452.701,1714.15 446.201,1713.31 440,1710.5C 439.174,1707.21 438.674,1703.87 438.5,1700.5 Z"/></g>
<g><path style="opacity:1" fill="#f2bb81" d="M 391.5,1540.5 C 391.645,1549.6 393.645,1558.27 397.5,1566.5C 394.083,1576.25 391.583,1586.25 390,1596.5C 389.178,1603.64 389.845,1610.64 392,1617.5C 395.349,1624.2 398.682,1630.86 402,1637.5C 413.955,1646.45 425.622,1655.79 437,1665.5C 442.757,1673.36 448.257,1681.36 453.5,1689.5C 450.519,1695.8 445.519,1699.47 438.5,1700.5C 436.514,1691.72 431.847,1684.55 424.5,1679C 410.882,1672.52 397.549,1665.52 384.5,1658C 367.48,1643.29 359.146,1624.63 359.5,1602C 359.948,1580.31 367.615,1561.65 382.5,1546C 385.222,1543.64 388.222,1541.81 391.5,1540.5 Z"/></g>
<g><path style="opacity:1" fill="#e1a170" d="M 397.5,1566.5 C 406.594,1581.43 418.594,1593.59 433.5,1603C 450.097,1620.21 458.764,1640.88 459.5,1665C 459.677,1673.83 457.677,1682 453.5,1689.5C 448.257,1681.36 442.757,1673.36 437,1665.5C 425.622,1655.79 413.955,1646.45 402,1637.5C 398.682,1630.86 395.349,1624.2 392,1617.5C 389.845,1610.64 389.178,1603.64 390,1596.5C 391.583,1586.25 394.083,1576.25 397.5,1566.5 Z"/></g>
<g><path style="opacity:1" fill="#67231e" d="M 474.5,1573.5 C 475.873,1573.34 477.207,1573.51 478.5,1574C 473.856,1578.31 469.522,1582.98 465.5,1588C 462.49,1590.22 459.99,1589.72 458,1586.5C 455.623,1582.91 453.123,1579.41 450.5,1576C 458.741,1575.99 466.741,1575.15 474.5,1573.5 Z"/></g>
<g><path style="opacity:1" fill="#bb6252" d="M 509.5,1854.5 C 504.135,1900 501.469,1945.67 501.5,1991.5C 492.675,2047.77 484.175,2104.11 476,2160.5C 470.614,2200.03 466.614,2239.69 464,2279.5C 460.414,2321.01 466.414,2361.01 482,2399.5C 500.796,2435.45 523.296,2468.79 549.5,2499.5C 535.5,2499.5 521.5,2499.5 507.5,2499.5C 473.656,2458.84 443.49,2415.51 417,2369.5C 414.405,2364.05 412.405,2358.38 411,2352.5C 405.03,2324.84 405.03,2297.17 411,2269.5C 435.338,2149.81 462.671,2030.81 493,1912.5C 498.214,1892.96 503.714,1873.63 509.5,1854.5 Z"/></g>
</svg>
