<?xml version="1.0" encoding="UTF-8"?>
<!DOCTYPE svg PUBLIC "-//W3C//DTD SVG 1.1//EN" "http://www.w3.org/Graphics/SVG/1.1/DTD/svg11.dtd">
<svg xmlns="http://www.w3.org/2000/svg" version="1.1" width="1308px" height="863px" style="shape-rendering:geometricPrecision; text-rendering:geometricPrecision; image-rendering:optimizeQuality; fill-rule:evenodd; clip-rule:evenodd" xmlns:xlink="http://www.w3.org/1999/xlink">
<g><path style="opacity:0.985" fill="#4971c5" d="M 744.5,108.5 C 776.359,106.049 806.026,112.882 833.5,129C 858.481,143.312 878.981,162.479 895,186.5C 899.059,193.285 902.559,200.285 905.5,207.5C 937.453,194.119 970.786,188.619 1005.5,191C 1047.83,197.239 1080.33,218.405 1103,254.5C 1114.11,274.01 1117.44,294.677 1113,316.5C 1147.35,325.695 1173.85,345.362 1192.5,375.5C 1201.02,393.246 1203.85,411.912 1201,431.5C 1199.63,448.273 1194.3,463.606 1185,477.5C 1156.42,514.194 1118.92,535.527 1072.5,541.5C 1068.36,588.805 1045.02,622.972 1002.5,644C 962.28,660.676 920.946,664.009 878.5,654C 866.26,651.858 854.594,648.025 843.5,642.5C 820.519,686.605 784.186,711.771 734.5,718C 697.924,721.419 662.924,715.419 629.5,700C 602.752,687.886 578.252,672.386 556,653.5C 514.412,701.698 462.245,719.864 399.5,708C 351.203,691.706 316.036,660.539 294,614.5C 291.715,608.93 289.715,603.264 288,597.5C 240.245,608.517 197.412,598.684 159.5,568C 135.351,545.617 126.518,518.117 133,485.5C 136.815,467.54 144.149,451.207 155,436.5C 161.024,429.311 166.857,421.977 172.5,414.5C 149.048,386.766 141.548,355.099 150,319.5C 166.563,262.607 203.729,227.107 261.5,213C 288.035,206.574 314.701,205.907 341.5,211C 349.791,212.597 357.791,215.097 365.5,218.5C 381.612,181.888 407.945,155.388 444.5,139C 483.075,119.451 523.075,116.118 564.5,129C 594.346,137.413 620.346,152.247 642.5,173.5C 666.468,136.178 700.468,114.511 744.5,108.5 Z"/></g>
<g><path style="opacity:1" fill="#fefefe" d="M 1156.5,376.5 C 1146.7,415.139 1123.03,441.306 1085.5,455C 1062.77,459.789 1040.11,459.623 1017.5,454.5C 1006.69,494.482 983.024,524.315 946.5,544C 923.88,555.65 899.88,562.65 874.5,565C 849.79,567.283 825.123,566.95 800.5,564C 796.154,563.373 791.988,562.206 788,560.5C 768.149,585.854 742.315,601.687 710.5,608C 664.712,618.422 620.712,613.422 578.5,593C 565.323,583.819 552.156,574.652 539,565.5C 500.294,592.035 458.128,599.535 412.5,588C 383.357,577.023 362.023,557.523 348.5,529.5C 330.427,528.488 312.761,525.321 295.5,520C 261.65,504.67 243.65,478.337 241.5,441C 241.725,424.326 246.725,409.326 256.5,396C 236.836,385.336 222.336,369.836 213,349.5C 208.714,337.691 205.048,325.691 202,313.5C 199.16,298.871 201.993,285.538 210.5,273.5C 219.022,263.891 229.356,256.724 241.5,252C 278.303,237.953 315.97,234.953 354.5,243C 361.167,245.667 367.833,248.333 374.5,251C 380.274,253.644 385.44,252.811 390,248.5C 394.546,218.903 408.712,195.069 432.5,177C 460.426,153.261 492.759,143.261 529.5,147C 562.178,149.68 590.845,161.68 615.5,183C 621.802,188.301 627.802,193.968 633.5,200C 637.775,203.506 642.441,204.506 647.5,203C 654.422,196.082 660.589,188.582 666,180.5C 694.587,145.31 731.421,131.477 776.5,139C 810.623,145.472 839.123,161.639 862,187.5C 871.545,202.753 880.711,218.253 889.5,234C 891.754,235.15 894.087,235.484 896.5,235C 906.684,230.076 917.017,225.409 927.5,221C 971.116,207.868 1013.12,211.868 1053.5,233C 1074.31,246.094 1086.48,264.927 1090,289.5C 1091.4,304.898 1088.73,319.564 1082,333.5C 1080.82,337.26 1081.99,340.093 1085.5,342C 1114.04,343.936 1137.7,355.436 1156.5,376.5 Z"/></g>
<g><path style="opacity:1" fill="#b2ccf9" d="M 210.5,273.5 C 201.993,285.538 199.16,298.871 202,313.5C 205.048,325.691 208.714,337.691 213,349.5C 222.336,369.836 236.836,385.336 256.5,396C 246.725,409.326 241.725,424.326 241.5,441C 243.65,478.337 261.65,504.67 295.5,520C 312.761,525.321 330.427,528.488 348.5,529.5C 362.023,557.523 383.357,577.023 412.5,588C 458.128,599.535 500.294,592.035 539,565.5C 552.156,574.652 565.323,583.819 578.5,593C 620.712,613.422 664.712,618.422 710.5,608C 742.315,601.687 768.149,585.854 788,560.5C 791.988,562.206 796.154,563.373 800.5,564C 825.123,566.95 849.79,567.283 874.5,565C 899.88,562.65 923.88,555.65 946.5,544C 983.024,524.315 1006.69,494.482 1017.5,454.5C 1040.11,459.623 1062.77,459.789 1085.5,455C 1123.03,441.306 1146.7,415.139 1156.5,376.5C 1179.29,402.031 1181.46,429.364 1163,458.5C 1138.74,488.397 1107.57,507.23 1069.5,515C 1063.86,515.864 1058.19,516.531 1052.5,517C 1050.68,518.8 1049.52,520.966 1049,523.5C 1046.68,550.475 1038.01,575.141 1023,597.5C 1003.1,617.7 978.929,629.2 950.5,632C 926.139,635.232 902.139,633.566 878.5,627C 865.027,622.731 851.694,618.065 838.5,613C 836.167,612.333 833.833,612.333 831.5,613C 824.295,624.567 816.461,635.733 808,646.5C 780.696,674.89 747.196,688.557 707.5,687.5C 650.81,683.814 601.81,662.647 560.5,624C 557.88,621.729 554.88,621.062 551.5,622C 539.644,632.433 527.977,643.1 516.5,654C 485.459,682.846 449.125,692.846 407.5,684C 394.548,680.358 382.882,674.358 372.5,666C 342.141,641.291 320.808,610.291 308.5,573C 290.926,574.924 273.26,576.424 255.5,577.5C 224.673,576.505 197.34,566.338 173.5,547C 155.471,525.704 150.305,501.537 158,474.5C 165.944,450.725 180.444,432.058 201.5,418.5C 201.833,417.5 202.167,416.5 202.5,415.5C 199.619,408.081 195.453,401.414 190,395.5C 182.132,382.1 176.799,367.766 174,352.5C 172.341,338.474 174.674,325.141 181,312.5C 188.48,297.547 198.313,284.547 210.5,273.5 Z"/></g>
</svg>
