<?xml version="1.0" encoding="UTF-8"?>
<svg id="Layer_1" xmlns="http://www.w3.org/2000/svg" viewBox="0 0 72 72">
  <defs>
    <style>
      .cls-1 {
        fill: #efcc6b;
      }

      .cls-2 {
        fill: #b16d84;
      }
    </style>
  </defs>
  <path class="cls-2" d="M21.25,26.91s-.13-25.02,18.48-22.67c18.61,2.35,10.3,15.16,10.3,15.16,0,0,17.68-5.16,19.95,12.15,2.27,17.31-17.43,17.17-17.43,17.17,0,0,8.52,6.01,3.1,14.48-5.41,8.47-15.06-6.25-15.06-6.25,0,0-19.46,21.24-26.38,4.6-6.45-15.53,8.09-15.96,8.09-15.96,0,0-23.28-7.17-16.32-17.68,6.96-10.51,15.27-1.01,15.27-1.01Z"/>
  <circle class="cls-1" cx="37.42" cy="36" r="12.11"/>
</svg>