<?xml version="1.0" encoding="UTF-8"?>
<svg id="Layer_2" xmlns="http://www.w3.org/2000/svg" xmlns:xlink="http://www.w3.org/1999/xlink" viewBox="0 0 234.4 88.91">
  <defs>
    <style>
      .cls-1 {
        fill: #97bfcc;
      }

      .cls-2 {
        fill: url(#Gradient-Green-New-7);
      }

      .cls-3 {
        fill: url(#Gradient-Green-New-3);
      }

      .cls-4 {
        fill: url(#Gradient-Green-New-6);
      }

      .cls-5 {
        fill: url(#Gradient-Green-New-9);
      }

      .cls-6 {
        fill: url(#Gradient-Green-New-4);
      }

      .cls-7 {
        fill: url(#Gradient-Green-New-5);
      }

      .cls-8 {
        fill: url(#Gradient-Green-New-2);
      }

      .cls-9 {
        fill: url(#Gradient-Green-New-8);
      }

      .cls-10 {
        fill: #efcc6b;
      }

      .cls-11 {
        fill: #96c93d;
      }

      .cls-12 {
        fill: #694d28;
      }

      .cls-13 {
        fill: #1e301b;
      }

      .cls-14 {
        fill: #fbe369;
      }

      .cls-15 {
        fill: url(#Gradient-Orange-4);
      }

      .cls-16 {
        fill: url(#Gradient-Orange-3);
      }

      .cls-17 {
        fill: url(#Gradient-Orange-2);
      }

      .cls-18 {
        fill: url(#Gradient-Green-New);
      }

      .cls-19 {
        fill: #b16d84;
      }

      .cls-20 {
        fill: url(#Gradient-Orange);
      }

      .cls-21 {
        fill: #ea8e6d;
      }

      .cls-22 {
        fill: #ede669;
      }

      .cls-23 {
        fill: #736dad;
      }
    </style>
    <linearGradient id="Gradient-Orange" x1="74.07" y1="48.91" x2="74.07" y2="82.02" gradientTransform="translate(-8.07 8.36) rotate(-6.24)" gradientUnits="userSpaceOnUse">
      <stop offset="0" stop-color="#c47f60"/>
      <stop offset="0" stop-color="#c47f5f"/>
      <stop offset=".29" stop-color="#cf8c4e"/>
      <stop offset=".5" stop-color="#d39149"/>
      <stop offset=".61" stop-color="#dda551"/>
      <stop offset=".87" stop-color="#f2d162"/>
      <stop offset="1" stop-color="#fbe369"/>
    </linearGradient>
    <linearGradient id="Gradient-Orange-2" data-name="Gradient-Orange" x1="101.17" y1="46.01" x2="101.17" y2="79.51" gradientTransform="translate(21.92 -23.11) rotate(14.35)" xlink:href="#Gradient-Orange"/>
    <linearGradient id="Gradient-Orange-3" data-name="Gradient-Orange" x1="133.75" y1="46.61" x2="133.75" y2="79.77" gradientTransform="matrix(1,0,0,1,0,0)" xlink:href="#Gradient-Orange"/>
    <linearGradient id="Gradient-Orange-4" data-name="Gradient-Orange" x1="162.54" y1="47.55" x2="162.54" y2="83.89" gradientTransform="translate(10.48 -18.67) rotate(6.89)" xlink:href="#Gradient-Orange"/>
    <linearGradient id="Gradient-Green-New" x1="21.41" y1="55.86" x2="21.41" y2="19.34" gradientUnits="userSpaceOnUse">
      <stop offset="0" stop-color="#7ec575"/>
      <stop offset=".27" stop-color="#43a456"/>
      <stop offset=".43" stop-color="#269448"/>
      <stop offset=".61" stop-color="#177840"/>
      <stop offset=".86" stop-color="#065838"/>
      <stop offset="1" stop-color="#004c35"/>
    </linearGradient>
    <linearGradient id="Gradient-Green-New-2" data-name="Gradient-Green-New" x1="46.42" y1="48.12" x2="46.42" y2="15.23" gradientTransform="translate(-.49 1.74) rotate(-1.87)" xlink:href="#Gradient-Green-New"/>
    <linearGradient id="Gradient-Green-New-3" data-name="Gradient-Green-New" x1="65.08" y1="44.24" x2="65.08" y2="11.42" gradientTransform="translate(-.27 1.04) rotate(-.81)" xlink:href="#Gradient-Green-New"/>
    <linearGradient id="Gradient-Green-New-4" data-name="Gradient-Green-New" x1="86.23" y1="41.01" x2="86.23" y2="8.19" gradientTransform="translate(-.49 5.46) rotate(-3.35)" xlink:href="#Gradient-Green-New"/>
    <linearGradient id="Gradient-Green-New-5" data-name="Gradient-Green-New" x1="115.12" y1="41.54" x2="115.12" y2="8.5" xlink:href="#Gradient-Green-New"/>
    <linearGradient id="Gradient-Green-New-6" data-name="Gradient-Green-New" x1="143.79" y1="42.72" x2="143.79" y2="9.89" gradientTransform="translate(1.36 -10.85) rotate(4.21)" xlink:href="#Gradient-Green-New"/>
    <linearGradient id="Gradient-Green-New-7" data-name="Gradient-Green-New" x1="194.1" y1="49.43" x2="194.1" y2="15.67" xlink:href="#Gradient-Green-New"/>
    <linearGradient id="Gradient-Green-New-8" data-name="Gradient-Green-New" x1="218.2" y1="54.26" x2="218.2" y2="21.58" xlink:href="#Gradient-Green-New"/>
    <linearGradient id="Gradient-Green-New-9" data-name="Gradient-Green-New" x1="167.04" y1="44.59" x2="167.04" y2="11.68" xlink:href="#Gradient-Green-New"/>
  </defs>
  <g id="Layer_1-2" data-name="Layer_1">
    <rect class="cls-21" x="102.14" y="5.33" width=".73" height="3.52"/>
    <rect class="cls-21" x="103.57" y="5.36" width=".73" height="3.52"/>
    <path class="cls-14" d="M104.25.13s-2.22-.2-2.33-.09.89.53.89.53h.01c-.85.56-1.35,1.56-1.21,2.63,0,.04.02.08.03.13-1.52-1-3.02-1.68-2.74-.28.53,2.75,4.38,2.63,5.68,2.47h.08c1.48-.21,2.52-1.58,2.32-3.06-.19-1.37-1.38-2.35-2.73-2.33Z"/>
    <path class="cls-21" d="M106.68,2.35c.2-.02,1.54.56,1.55.68s-1.39.69-1.63.64-.59-.65-.55-.89.43-.42.63-.43Z"/>
    <circle class="cls-13" cx="104.93" cy="2.21" r=".51"/>
    <path class="cls-13" d="M103.26,45.64c-1.18-.02-2.24-.35-3.16-.98l-.22-.15-.2-.17c-1.31-1.12-2.05-2.78-2.06-4.55-.06-2.93-.29-5.93-.51-8.84-.42-4.81-.99-9.87-1.69-14.99-.02-.1-.04-.2-.06-.3-.11-.58-.27-1.37-.25-2.31.03-1.75.74-3.36,1.97-4.45,1.27-1.15,2.7-1.41,3.25-1.5l.22-.05.27-.03c2.09-.24,4.08-.23,6-.23.63,0,1.26,0,1.89,0h.14c1.43.02,2.63.36,3.68,1.03,1.25.81,2.14,2,2.57,3.41.08-.15.16-.3.26-.45,1.41-2.23,3.8-2.52,4.6-2.62l.19-.02c.83-.08,1.61-.11,2.41-.1,2.03.03,3.96.22,5.83.41l.95.09c1.9.22,3.54,1.13,4.58,2.51,1,1.31,1.41,2.94,1.15,4.57-.26,1.5-1.23,11.17-1.47,13.8-.11,1.29-.19,2.62-.28,3.96-.11,1.72-.22,3.5-.39,5.29-.28,3.38-2.16,4.86-3.45,5.48-.58.3-1.69.76-4.77.72-.27,0-.54,0-.82,0-1.73-.03-3.35-.17-4.84-.42l-.11-.02c-1.23-.18-2.21-.51-2.99-.92-1.73,1.59-3.97,1.56-4.87,1.55h-.48c-.99,0-2,.07-3.07.13-1.19.07-2.42.15-3.7.17h-.07c-.2,0-.36.01-.52.01Z"/>
    <path class="cls-13" d="M122.88,46.57c-1.02-.02-2.03-.33-2.92-.92-.44-.29-.82-.62-1.16-.97-1.16-.18-2.09-.5-2.84-.9-1.73,1.59-3.97,1.56-4.87,1.55h-.48c-.99,0-2,.07-3.07.13-1.19.07-2.42.15-3.7.17h-.07c-.19,0-.36.01-.52.01-1.18-.02-2.24-.35-3.16-.98l-.22-.15-.2-.17c-1.31-1.12-2.05-2.78-2.06-4.55-.06-2.93-.29-5.93-.51-8.84-.42-4.81-.99-9.87-1.69-14.99-.02-.1-.04-.2-.06-.3-.11-.58-.27-1.37-.25-2.31.03-1.75.74-3.36,1.97-4.45,1.27-1.15,2.7-1.41,3.25-1.5l.22-.05.27-.03c1.62-.18,3.17-.22,4.61-.23.2-.05.53-.16.76-.23.79-.25,1.69-.54,2.68-.63.46-.04.95-.06,1.45-.06,3.27.05,5.32,1.29,6.1,3.69,1.33-1.12,2.91-1.32,3.53-1.39l.19-.02c.83-.08,1.61-.11,2.41-.1,2.03.03,3.96.22,5.83.41l.95.09c1.9.22,3.54,1.13,4.58,2.51,1,1.31,1.41,2.94,1.15,4.57-.26,1.5-1.23,11.17-1.47,13.8-.11,1.29-.19,2.62-.28,3.96-.11,1.72-.22,3.5-.39,5.29-.28,3.38-2.16,4.86-3.45,5.48-.45.23-1.2.55-2.91.68-1.1,1.08-2.51,1.49-3.7,1.48Z"/>
    <polygon class="cls-13" points="170.53 51.64 57.21 56.04 53.68 39.54 170.53 36.32 170.53 51.64"/>
    <path class="cls-13" d="M64.76,87.97c-1.12.03-4.88-.28-6.37-5.36-.3-1.01-.49-2.03-.65-2.93-1.35-7.47-.08-9.81.34-10.58.52-.94,1.22-1.8,2.07-2.55-2.56-.3-4.65-2.19-5.17-4.76-.22-1.03-1.6-7.77-1.78-9.38l-.03-.23v-.24c-.01-.63-.04-2.21,1.02-3.74l.1-.15.11-.14c1.3-1.63,3.22-2.13,4.48-2.45l.32-.09.16-.03c1.4-.3,2.95-.55,4.73-.76,1.89-.21,3.72-.4,5.61-.45,2.18-.05,4.12.1,5.93.47,3.28.67,6.23,2.21,8.31,4.35,1.7,1.68,3.05,3.94,3.75,6.32.9,2.99.9,6.41.01,9.49,1.99.96,3.39,2.95,3.52,5.34l.02.39c.25,5.71.19,7.74,0,8.91-.24,1.65-1.2,3.13-2.63,4.03-1.33.83-2.66.9-3.19.91l-.99.09c-5.15.47-10.01.92-14.59,2.25-.33.09-1.48.43-2.39.7l-1.37.4-.13.03c-.4.09-.81.15-1.21.15Z"/>
    <path class="cls-13" d="M104.85,84.77c-6.98,0-13.66-3.94-17.03-10.03-1.29-2.34-2.13-5.1-2.45-7.99-.54-4.15-.1-8.78,1.31-13.69.83-2.72,2.21-5.05,4.01-6.82,2.21-2.25,5.16-3.88,8.55-4.71,1.69-.39,3.36-.58,5.04-.58,2.09,0,4.12.29,6.05.86,2.66.81,4.92,2.03,6.76,3.64,2.62,2.23,4.04,5.34,4.89,7.49,1.71,4.47,2.22,9.27,1.46,13.55-.59,3.61-1.67,8.31-4.73,12.04-2.42,2.95-6.21,5.11-10.38,5.92-1.16.22-2.32.32-3.47.32Z"/>
    <path class="cls-13" d="M143.76,84.81c-.46,0-.87-.05-1.2-.11l-.97-.1c-3.88-.41-7.54-.8-11.17-.8-1.25,0-2.4.04-3.51.14-.33.02-1.36.12-2.25.2-.7.06-1.63.14-1.63.14,0,0-.31,0-.31,0-2.59,0-5.76-1.72-6.18-6.56-.1-1.05-.08-2.08-.06-2.99.14-7.54,1.84-9.58,2.4-10.25.69-.82,1.54-1.52,2.52-2.09-.91-.3-1.74-.81-2.41-1.49-1.1-1.12-1.7-2.6-1.7-4.17,0-.87-.05-7.84.1-9.49l.02-.23.04-.23c.11-.61.4-2.17,1.74-3.46l.12-.11.13-.11c1.59-1.35,3.56-1.45,4.87-1.52l.33-.02h.66c1.3,0,2.7.05,4.27.18,3.29.28,7.35.63,11.24,2.27,3.06,1.29,5.64,3.37,7.25,5.86,1.33,1.97,2.2,4.44,2.42,6.9.29,3.09-.38,6.43-1.85,9.26.41.31.78.66,1.1,1.07,1.07,1.34,1.54,3.1,1.29,4.83l-.05.3c-.88,5.7-1.34,7.68-1.77,8.79-.56,1.55-1.77,2.8-3.33,3.39-.68.26-1.38.38-2.1.38Z"/>
    <path class="cls-13" d="M163.46,88.9c-2.54.06-4.98-.13-7.25-.55-2.24-.41-4.77-.88-7.22-1.88l-.11-.05c-1.69-.73-2.97-1.91-3.72-3.41-1.03-1.99-.91-4.01-.73-5.37.18-1.23.48-2.28.74-3.2.09-.31.17-.62.26-.94l.04-.16.05-.16c.12-.4.31-1.08.76-1.81-.52-1.68-.23-3.22-.13-3.77.42-2.28,2.77-16.41,3.11-18.66l.03-.19c.48-2.55,1.82-3.9,2.91-4.6.92-.59,2-.92,3.13-.95.36,0,.73.02,1.1.07,1.19.1,6.07.3,8.74.41,1.59.07,2.93.12,3.53.15,8.83.2,10.77,1.01,11.49,1.34,2.11.93,4.36,3.18,3.29,8.65l-1.36,7.35c-.34,1.85-1.19,3.27-2.55,4.2-.35.24-.73.44-1.13.6,1.22,2.03,1.96,4.41,2.11,6.85.25,3.61-.84,7.48-3,10.57-1.71,2.46-4.28,3.69-6.15,4.29-2.68.91-5.27,1.1-7.23,1.17-.23,0-.48.02-.73.02Z"/>
    <path class="cls-13" d="M49.33,49.68c-1.08.13-6.64.67-9.76-1.35l-.16-.11c-2.36-1.66-2.51-4.37-2.56-5.6-.42-4.49-.66-8.93-.85-13.05-.04-.83-.07-1.66-.1-2.5-.08-2.03-.15-3.95-.31-5.87-.21-1.97.27-3.61,1.43-4.9l.15-.16c1.28-1.31,2.92-1.69,4.62-1.99l.18-.03c1-.19,1.95-.34,2.86-.45,1.48-.18,2.91-.25,4.25-.23h.3c1.38.08,4.25.23,6.01,2.51l.12.15.11.16c.56.84,1.18,2.25.99,4.18-.28,3.25-.28,6.6-.26,9.75.03,2.45.13,5.01.23,7.49v.28c.04.57.16,2.92.15,4.49.23,1.31,0,2.62-.66,3.77-1.37,2.39-3.88,2.92-5.09,3.17l-.27.06c-.4.09-.86.17-1.38.23Z"/>
    <path class="cls-13" d="M66.42,47.27c-2.6.04-5.34-.11-8.14-.45l-.21-.03c-4.1-.66-5.45-2.85-5.86-4.64-.26-1.07-.41-2.88-.48-8.6v-.35c0-1.22.09-12.06.22-14.45.03-1.01.33-3.34,2.35-4.81.57-.43,1.88-1.34,5.98-1.61h.13s.13-.01.13-.01c4.46-.06,5.62-.04,6.07,0,2.1.07,3.96,1.19,4.89,2.99l.07.13.06.14c.63,1.42.53,2.72.46,3.35-.2,2.72-.36,5.57-.47,8.52.3-.03.53-.04.71-.05.15-.01.32-.02.49-.02,2.15-.03,3.94.78,5.05,2.29.4.53,1.41,1.87,1.48,6.03.06,1.66.08,3.46-.15,5.31l-.02.15-.03.14c-.28,1.49-1.02,2.85-2.09,3.81l-.2.18-.22.16c-1.38.99-2.86,1.21-3.48,1.28-2.15.32-4.41.51-6.72.54Z"/>
    <path class="cls-13" d="M84,45.45c-2.05.12-3.91.03-5.69-.29l-.45-.09c-.9-.18-2.58-.52-4.03-1.79l-.18-.16c-1.34-1.3-2.05-3.07-2.09-5.25v-.24c.04-1.19-.08-8.71-.13-11.51,0-1.76-.06-9.2-.12-10.25v-.21s0-.21,0-.21c0-.27-.02-.89.18-1.66l.06-.21c.67-2.25,2.62-3.99,4.88-4.39,1.04-.2,3.08-.38,6.07-.56.96-.06,4.2-.24,5.55-.18,3.21.12,6.59,1.45,9.24,3.66,3.46,2.86,5.96,7.21,6.85,11.92.5,2.56.46,5.2-.12,7.59-.93,3.76-3.27,7.29-6.43,9.67-2.19,1.65-4.79,2.81-7.51,3.33-2.32.47-4.26.74-6.07.85Z"/>
    <path class="cls-13" d="M131.39,43.73c-1.13-.08-2.18-.5-3.05-1.22-.91-.75-1.97-2.1-2.09-4.39-.18-2.67,1.11-11.57,1.73-13.95.48-1.96,1.14-3.75,1.96-5.31.97-1.91,2.38-3.61,4.04-4.85,2.63-1.98,6.05-3.07,9.35-2.99.2,0,.38.02.56.03,2.07.15,4.25.85,6.29,2.01,1.85,1.07,3.21,2.24,4.19,3.6,1.69,2.33,2.87,5.35,3.38,8.7.47,2.87.52,6.02.14,9.87-.15,1.48-.31,3.11-.68,4.76-.13.65-.48,2.23-1.94,3.48-1.06.92-2.41,1.41-4.01,1.47-.38,0-.66,0-.94-.02-.18-.01-.35-.03-.53-.05l-.41-.04-.15-.02c-.45-.03-1.22-.07-1.99-.1-.87-.04-1.74-.09-2.23-.12-.26-.02-.47-.04-.6-.06-.46-.06-1.73-.31-2.88-1.22-1,.56-2.16.82-3.32.74h-.17s-.23-.04-.23-.04c-.94-.15-1.93-.3-2.89-.37-.74-.05-1.39-.06-1.98-.01-.05,0-.1,0-.15.01-.47.09-.95.11-1.42.08Z"/>
    <path class="cls-13" d="M166.67,47.84c-.87-.11-1.73-.28-2.55-.51-2.86-.79-5.41-1.98-7.56-3.53-1.84-1.38-3.24-2.87-4.24-4.49l-.08-.13c-.99-1.73-1.69-3.75-2.01-5.86-.65-4.59.29-9.3,2.64-13.32,2.38-4.08,6.33-7.27,10.58-8.54,2.26-.68,4.8-.87,7.34-.55,1.87.24,3.67.73,5.36,1.48,2.26,1.04,4.19,2.64,5.54,4.54,1.23,1.67,2,3.55,2.24,5.44.28,2.16-.07,4.16-.35,5.77l-.06.33c-.29,1.84-.85,3.16-1.54,4.1.03.14.05.28.06.42.12.77.26,1.54.4,2.33.1.58.21,1.17.31,1.76.68,4.08-.72,6.19-2.29,7.28-1.46,1.2-3.48,2.05-3.76,2.17-3.23,1.28-6.78,1.75-10.06,1.33Z"/>
    <path class="cls-13" d="M188.51,51.31l-.2-.04h0c-.6-.1-3.49-.48-5.29-.65-.37-.04-.68-.07-.89-.08-.33,0-.65,0-.96-.03-2.61-.26-4.64-1.97-5.18-4.37l-.02-.1c-.17-.84-.17-1.76-.07-4.08l.02-.39c.07-1.49.38-6.32.72-11.42.31-4.79.63-9.74.7-11.12.09-2.68,1.96-5.07,4.49-5.71h0c2.15-.54,6.23-.18,7.05-.1,3.21.32,3.69.43,4.04.52l.25.06.25.09c1.57.56,2.78,1.67,3.47,3.05.74-.74,2.16-1.82,4.07-1.91.35-.01.61,0,.88.03.64.06,1.29.22,1.97.49,1.52.57,2.7,1.41,3.69,2.16,1.03.75,1.99,1.57,2.91,2.44,1.63,1.54,2.33,3.79,1.83,5.83-.09.35-.2.65-.3.89-.35,1.09-.86,1.95-1.26,2.55-.54.85-1.22,1.7-2.06,2.59-1.05,1.14-2.16,2.2-3.29,3.21.57.38,1.13.75,1.69,1.12h0c.55.3,1.8.99,2.68,2.43.81,1.29,1.92,4.21-1.28,7.78l-.17.18c-1.5,1.54-3.09,2.82-4.7,3.8l-.17.1c-.82.46-2.39,1.33-4.47,1.13l-.23-.03c-.85-.1-1.71-.36-2.49-.74l-.18-.09-.18-.11c-.73-.44-1.43-.88-2.11-1.32-1.21,1.33-3.04,2.08-4.96,1.89l-.23-.02Z"/>
    <path class="cls-13" d="M214.97,55.86c-2.39-.31-4.72-1.05-6.74-2.14-1.5-.81-2.81-1.81-3.89-2.96-3.18-3.4-2.85-8.95-.71-12.35.26-.4.53-.77.81-1.11-.84-1.67-1.3-3.56-1.32-5.48-.03-3.08,1-6.3,2.83-8.85.95-1.31,2.13-2.46,3.43-3.33,1.6-1.05,3.36-1.79,5.28-2.22l.15-.03c2.03-.39,4.18-.44,6.4-.15.93.12,1.87.3,2.79.54,2.78.68,5.36,2.17,7.21,4.17,1.99,2.15,3.14,5,3.17,7.82.04,1.86-.3,3.82-.98,5.62-.56,1.55-1.38,2.82-2.45,3.77,1.4,3.38,1.12,7.15-.83,10.37-1.41,2.33-3.66,4.22-6.34,5.33-1.72.7-3.65,1.09-5.74,1.17-1.06.03-2.08-.03-3.09-.16Z"/>
    <path class="cls-13" d="M17.48,55.59c-1.61.23-4.04.45-6.55-.21-2.29-.56-4.24-1.81-5.49-3.51l-.09-.12c-.92-1.34-1.62-2.89-2.19-4.88-.88-2.86-1.57-5.88-2.16-9.5C.36,33.71.04,30.21.04,27.01v-.04c-.08-1.49-.09-2.95.69-4.36.81-1.52,2.45-2.68,4.84-3.4,1.03-.31,2.08-.53,3.11-.68.77-.11,1.55-.17,2.33-.19l.25-.02c1.47-.12,5.32-.45,7.31,2.76.19.3.39.67.55,1.11.12-.02.24-.04.36-.05.82-.11,1.65-.2,1.98-.22.32-.03.65-.05.98-.06.38-1.76,1.74-4.13,6.13-4.93l.18-.03c.31-.05.61-.09.92-.14,1.89-.26,3.61-.38,5.24-.35,2.48.01,4.59,1.38,5.68,3.68l.06.13c.6,1.38.69,2.65.74,3.49,0,.15.02.3.03.45.71,4.36,1.17,8.89,1.36,13.46.06,2.1.07,4.51-.36,6.9-.26,1.4-.64,2.58-1.18,3.61-.65,1.31-1.6,2.38-2.76,3.12-1.09.72-2.2,1.07-2.94,1.3l-.17.05c-.99.28-2.21.54-3.37.7-3.44.48-5.92.14-7.77-1.08-1.8,2.51-4.66,3.01-6.04,3.25-.29.05-.5.08-.72.11Z"/>
    <path class="cls-13" d="M17.48,55.59c-1.61.23-4.04.45-6.55-.21-2.29-.56-4.24-1.81-5.49-3.51l-.09-.12c-.2-.29-.39-.59-.57-.91-1.49-.47-2.77-1.58-3.54-3.16C-.17,44.76-.04,42.59.05,40.85l.02-.26c.11-1.38.56-2.41.85-3.08.02-.05.05-.11.07-.16C.36,33.66.04,30.19.04,27.01v-.04c-.08-1.49-.09-2.95.69-4.36.81-1.52,2.45-2.68,4.84-3.4,1.03-.31,2.08-.53,3.11-.68.77-.11,1.55-.17,2.33-.19l.25-.02c1.47-.12,5.32-.45,7.31,2.76.19.3.39.67.55,1.11.12-.02.24-.04.36-.05.82-.11,1.65-.2,1.98-.22.32-.03.65-.05.98-.06.38-1.76,1.74-4.13,6.13-4.93l.18-.03c.77-.12,1.9-.3,2.97-.45.15-.02.3-.04.44-.06.69-.91,1.77-1.8,3.43-2.04h0c.7-.1,1.42-.05,2.11.14h.04c3.31.97,4.19,4.8,4.28,5.24.25,1.22.18,2.43-.17,3.55-.24.76-.32,1.56-.2,2.35.58,3.9.96,7.92,1.13,11.98.06,2.1.07,4.51-.36,6.9-.26,1.4-.64,2.58-1.18,3.61-.65,1.31-1.6,2.38-2.76,3.12-1.09.72-2.2,1.07-2.94,1.3l-.17.05c-.99.28-2.21.54-3.37.7-2.06.29-3.78.28-5.23-.03s-3.05-.19-4.3.66c-1.57,1.07-3.3,1.37-4.28,1.54-.29.05-.5.08-.72.11Z"/>
    <path class="cls-20" d="M86.18,70.38c-.04-.71-.58-1.24-1.29-1.16-1.98.23-3.96.45-5.95.59,1.61-1.73,2.99-3.78,3.76-5.98.76-2.25.83-4.87.15-7.13-.47-1.58-1.37-3.07-2.52-4.21-1.49-1.53-3.6-2.5-5.7-2.92-1.45-.3-2.93-.39-4.42-.37-1.84,0-3.7.21-5.5.41-1.45.18-2.89.39-4.27.69-.48.13-1.77.41-2.07.78-.14.2-.13.52-.12.78.04.41.21,1.39.43,2.57h.01c.44,2.37,1.09,5.53,1.26,6.34.1.56.65.87,1.21.72,2.08-.42,4.07-1.1,6.16-1.48,1.35-.24,2.8-.42,4.2-.13,1.39.24,2.82,1.2,2.58,2.59-.09.73-.56,1.36-1.05,1.89-2.3,2.44-5.68,3.6-8.57,5.29-.77.45-1.51,1.08-1.95,1.88-.7,1.3-.07,5.76.19,7.24.15.83.3,1.66.53,2.42.24.81.71,1.9,1.57,1.7.43-.13,3.15-.94,3.62-1.07,5.43-1.56,11.1-2.01,16.71-2.53.27-.01.58-.02.78-.14.2-.13.3-.33.31-.51.27-1.26,0-6.96-.06-8.26Z"/>
    <path class="cls-17" d="M117.28,54.79c-.8-2.03-1.85-4.12-3.52-5.54-1.39-1.22-3.09-2.06-4.86-2.6-.88-.26-1.8-.44-2.73-.54h-.02c-.74-.09-1.49-.12-2.23-.1-1.18.02-2.36.17-3.49.43-2.3.55-4.53,1.67-6.18,3.37-.8.78-1.46,1.72-1.97,2.75-.01.02-.02.03-.02.03-.3.6-.54,1.23-.74,1.87-.25.87-.48,1.76-.66,2.66-.63,2.98-.87,6.08-.49,9.08.24,2.12.84,4.24,1.86,6.1,2.94,5.32,9.15,8.31,15.14,7.2,2.78-.54,5.63-1.97,7.44-4.17,2.18-2.66,3.1-6.28,3.66-9.72.63-3.55.11-7.41-1.19-10.82ZM107.57,65.92c-.4.77-1.06,1.52-1.86,1.83-1.89.61-3.97-.95-4.77-2.8-.85-2-1.02-4.42-.49-6.56.2-.86.66-1.7,1.32-2.22,1.43-1.12,3.57-.63,4.75.72,1.72,1.97,2.18,6.67,1.05,9.03Z"/>
    <path class="cls-16" d="M144.98,69.85c-1.97-.17-3.95-.34-5.92-.59,1.91-1.38,3.66-3.1,4.84-5.1,1.18-2.05,1.76-4.59,1.53-6.92-.14-1.63-.73-3.27-1.63-4.6-1.15-1.78-3.02-3.14-4.98-3.96-2.12-.9-4.41-1.33-6.7-1.6h-.01c-.99-.13-1.98-.22-2.97-.3-1.45-.11-2.9-.18-4.31-.16-.48.03-1.8.05-2.16.35-.18.17-.23.48-.28.74-.08.84-.09,4.17-.09,6.59h0c0,1.12.01,2.04.02,2.43-.01.57.46.97,1.03.94,2.11-.01,4.19-.28,6.3-.24,1.36.03,2.81.14,4.12.69,1.31.51,2.51,1.72,2.01,3.03-.24.7-.82,1.22-1.4,1.65-2.71,1.92-6.24,2.39-9.38,3.47-.84.29-1.69.76-2.27,1.45-.94,1.13-1.2,5.61-1.23,7.11-.02.83-.03,1.67.04,2.46.07.84.32,1.98,1.2,1.96.44-.04,3.26-.3,3.74-.33,5.59-.47,11.21.21,16.78.79.26.05.57.1.79.02.23-.09.36-.26.41-.44.5-1.17,1.35-6.79,1.55-8.06.1-.7-.33-1.32-1.03-1.38Z"/>
    <path class="cls-15" d="M178.19,49.7c-1.45-.67-8.06-.88-9.67-.92-.84-.05-3.54-.15-6.28-.27h-.01c-.1,0-.21-.01-.31-.01-2.69-.11-5.32-.23-6.11-.32-.34-.06-.69-.04-.94.13-.45.27-.64.85-.74,1.35-.16,1.06-.71,4.48-1.32,8.16h0c-.14.82-.28,1.64-.41,2.45h0c-.61,3.71-1.2,7.17-1.4,8.24-.09.51-.16,1.11.06,1.58.23.4.81.55,1.23.45,1.81-.32,3.65-.37,5.48-.34,1.66.04,3.34.18,4.9.73.74.27,1.46.62,2.02,1.16.65.73.51,1.98-.37,2.47-1.92,1.13-8.44-.03-10.64-.44-.86-.11-2.59-.91-3.15-.23-.18.23-.24.57-.33.86-.32,1.21-.7,2.36-.88,3.55-.12.86-.15,1.77.24,2.5.25.53.75.88,1.28,1.11,1.99.81,4.15,1.21,6.27,1.6,2.24.41,4.58.54,6.91.45,1.98-.08,3.95-.28,5.86-.93,1.4-.45,2.81-1.23,3.65-2.43,1.48-2.14,2.3-4.87,2.12-7.44-.13-1.95-.81-3.92-1.97-5.44-1.11-1.35-2.73-2.3-4.38-2.83-2.32-.69-4.86-.72-7.27-.64.08-1.39.16-2.77.33-4.18,1.59.16,11.51,1.16,13.14,1.33.42.08.93.18,1.28-.06.3-.21.43-.67.5-1.05.16-.85,1.15-6.22,1.31-7.07.21-1.14.7-3.06-.4-3.52Z"/>
    <path class="cls-22" d="M70.21,49.2c-5.52.86-8.15,1.85-9.28,2.4-.45.22-.81.55-1.08.97l-1.16,1.86h-.01c-.22-1.18-.39-2.16-.43-2.57-.01-.26-.02-.58.12-.78.3-.37,1.59-.65,2.07-.78,1.38-.3,2.82-.51,4.27-.69,1.8-.2,3.66-.4,5.5-.41Z"/>
    <path class="cls-22" d="M103.92,46.01c-9.49,3.01-12.86,10.63-13.06,11.11.18-.9.41-1.79.66-2.66.2-.64.44-1.27.74-1.87,0,0,.01-.01.02-.03.51-1.03,1.17-1.97,1.97-2.75,1.65-1.7,3.88-2.82,6.18-3.37,1.13-.26,2.31-.41,3.49-.43Z"/>
    <path class="cls-22" d="M132.12,47.08l-6.57.95c-.53.08-.98.43-1.17.93l-2.08,5.34c0-2.42.01-5.75.09-6.59.05-.26.1-.57.28-.74.36-.3,1.68-.32,2.16-.35,1.41-.02,2.86.05,4.31.16.99.08,1.98.17,2.97.29h.01Z"/>
    <path class="cls-22" d="M161.92,48.5l-4.84,1.54c-.34.11-.62.35-.78.67l-3.49,7.11c.61-3.68,1.16-7.1,1.32-8.16.1-.5.29-1.08.74-1.35.25-.17.6-.19.94-.13.79.09,3.42.21,6.11.32Z"/>
    <path class="cls-11" d="M66.59,39.77s2,.83,1.72,2.64c0,0,1.84-.68,3.75,2.95,0,0-8.57.92-6.41-6.13l.94.55Z"/>
    <path class="cls-1" d="M222.1,22.8c-.25-.01-.48,0-.72.05l.66.19c-.17.65-.38,1.37-.64,2.13l-1.21,1.01-.45-1.23c.42.16.75-.59.77-1.84.02-1.93-.73-5.05-3.12-7.73,0,0,.8-.3,1.78-.33,1.96-.04,4.61,1,2.93,7.73Z"/>
    <path class="cls-1" d="M224.45,23.81c-.13-.14-.27-.25-.43-.36l.19.67c-.35.42-.79.87-1.29,1.32l-1.89.77,1.52-1.31c.13-.07.38-.77.63-1.88.36-1.59.71-4,.74-6.57,0,0,.72.55,1.29,1.53h0c.75,1.31,1.19,3.35-.74,5.84Z"/>
    <ellipse class="cls-10" cx="142.06" cy="26.94" rx=".79" ry=".6" transform="translate(112.98 168.57) rotate(-89.14)"/>
    <ellipse class="cls-10" cx="144.11" cy="27.09" rx=".72" ry=".54" transform="translate(85.72 161.59) rotate(-77.18)"/>
    <path class="cls-11" d="M46.96,19.18s-.74-2.66-3.34-2.43c0,0-.44,2.66,3.34,2.43Z"/>
    <path class="cls-11" d="M46.93,19.54s-.18-3.67,3.33-4.24c0,0,.48,3.38-3.33,4.24Z"/>
    <path class="cls-11" d="M191.04,25.5s.62-3.62,4.16-3.42c0,0-.26,3.41-4.16,3.42Z"/>
    <path class="cls-11" d="M58.19,14.3s.22,2.1,2.64,3.54l2.05-.03.34-.29s-1-2.94-5.02-3.22Z"/>
    <path class="cls-12" d="M62.36,17.4s-.92-1.4-3.03-2.32c0,0,1.99,1.02,2.7,2.86l.95.11-.62-.65Z"/>
    <path class="cls-11" d="M84.2,31.02s.26-1.33,1.7-1.76c0,0,.53,1.58-1.66,2.54l-.05-.78Z"/>
    <path class="cls-11" d="M88.53,20.88s-2.81,1.15-1.58,3.41c0,0,2.67-1.01,1.58-3.41Z"/>
    <path class="cls-11" d="M103.28,37.83s-3.1.72-2.89-1.43.85-.79.85-.79c0,0-.24-1.43,1.16-1.7l1.35.64-.47,3.29Z"/>
    <path class="cls-11" d="M211.19,30.38s-8.22.15-5.06,7.4c0,0,3.02-3.29,2.65-4.64,0,0,2.24-.03,2.77-2.42-.15-.3-.37-.34-.37-.34"/>
    <path class="cls-18" d="M37.46,43.63c-.14.76-.35,1.53-.72,2.22-.21.45-.54.89-1,1.16-.51.36-1.16.55-1.77.75-1.66.48-5.66,1.21-7.04.2-.39-.26-.63-.72-.8-1.16-.57-1.33-3.03-9.08-3.48-10.47-.26,2.44-1.05,10.93-2.5,12.93-.59.83-1.83,1.07-2.83,1.25-1.69.27-3.51.42-5.16-.02-1.03-.25-2.05-.77-2.67-1.61-.71-1.03-1.16-2.24-1.51-3.46-.3-1.44-1.34,1.86-2.21.06-.86-1.8-.76-2.99-.68-4.5.11-1.43,1.31-2.26.88-4.43-.39-2.23-.67-4.51-.8-6.78l.72-4.23,4.35-2.12c.33-.03.66-.05.99-.05.84-.05,2.64-.34,3.06.38.13.2.16.41.15.62-.06,1.81.02,3.64.06,5.47.12,2.63.21,5.31.65,7.9.55-2.06.88-4.19,1.46-6.26l1.64-2.93s.01-.02.02-.03l.16-.29.08-.14.39-.27s.03-.03.05-.04l.87-.6c.79-.12,1.69-.22,2.02-.24.26-.02.72-.06,1.18-.05h0c.58.01,1.17.08,1.42.32,1.22,1.14,4.29,7.88,5.12,9.32-.33-3-.76-6.01-1.32-9h0s.27-3.42.27-3.42v-.02l.08-.98.73-.31.19-.07h0s3.18-1.34,3.18-1.34c1.06-.14,2.03-.25,2.45-.24.06,0,.11-.03.16-.08h0s.49-.24.49-.24l.51-1.49c.2.06,1.7,2.06,0,3.46-.16.06-.09.15-.07.2.16.51.05,1,.18,1.9.7,4.28,1.13,8.6,1.31,12.93.06,1.93.06,3.91-.28,5.8Z"/>
    <path class="cls-8" d="M51.61,39.37c.06,1.25.1,3.16.07,3.68,0,.04,0,.14,0,.14-.05.99-1.08,1.12-2.08,1.34-1.62.37-5.91.46-7.28-.43-.39-.27-.4-1.37-.43-1.82-.41-4.32-.64-8.63-.84-12.94-.07-1.38-.11-2.76-.17-4.14v-.02c-.05-1.06-.1-2.13-.17-3.19-.02-.43-.06-.85-.08-1.28-.02-.15-.04-.31-.05-.47h0c0-.05,0-.1.01-.16s.02-.12.04-.18c0-.04.03-.07.05-.1.02-.05.05-.09.09-.13.31-.32,1.72-.52,2.18-.61.62-.13,1.25-.22,1.88-.31,1.38-.2,2.77-.3,4.14-.27.6.03,2.05.07,2.43.55.17.26.21.58.18.89-.3,3.42-.31,6.84-.29,10.3.04,2.31.07,3.37.16,5.68.02.33,1.61,1.07,1.7,3.72.22,1.83-1.41-.57-1.55-.25Z"/>
    <path class="cls-3" d="M73.94,40.45c-.07.35-.23.73-.51.99-.35.24-.81.32-1.18.37-4.51.69-9.13.62-13.62.08-.59-.09-1.64-.26-1.76-.82-.3-1.12-.33-6.72-.35-7.88,0-1.4.07-7.93.14-11.71.02-1.15.05-2.04.08-2.46,0-.25.09-.81.3-.95.52-.39,2.65-.6,3.32-.64h.81c1.51-.03,4.37-.06,4.96-.01.25,0,.53.06.63.27.11.24.08.56.05.84-.17,2.29-.22,2.95-.33,5.27-.02.46.63,1.25.58,2.13s-.75,1.48-.77,1.77c-.06,1.81-.12,3.63-.16,5.43.81-.08,5.45-.64,6.26-.65.31-.03.98-.01,1.15.23.4.51.5,2.54.5,3.17.05,1.51.07,3.05-.12,4.56Z"/>
    <path class="cls-6" d="M99.18,24.94c-.63-3.37-2.44-6.76-5.11-8.97-1.72-1.43-4.01-2.42-6.24-2.5-.76-.03-3.05.09-5.31.24-.32.03-.64.05-.96.07-1.98.13-3.77.29-4.24.34-1.07.16-2.62.38-3,2.34-.04.18-.06.32-.05.42h0c0,.12.03.2.07.25h0c.34.44,1.83-1.19,2.04-.63.25.71.09,8.2.1,9.5.02,1.48.17,10.26.12,11.76.01.6.11,1.29.56,1.72.51.46,1.34.56,2.03.71,3.26.58,6.7.11,9.93-.54,1.93-.38,3.82-1.2,5.42-2.41,2.18-1.64,3.93-4.18,4.58-6.84.43-1.76.42-3.66.06-5.46ZM90.92,28.58c-.2.67-.55,1.21-1.02,1.64-.39.33-.84.6-1.37.78-1.25.41-2.71.34-4.01.09.09-3.23.24-6.46.26-9.72,1.21.08,2.47.2,3.61.6.57.25,1.13.52,1.55.96.42.47.7,1.03.89,1.6.42,1.29.52,2.76.09,4.05Z"/>
    <path class="cls-7" d="M130.08,15.12c-.31,1.82-1.34,12.3-1.51,14.12-.26,3.08-.37,6.16-.67,9.23-.04.53-.15,1.23-.65,1.43-.38.21-2.06.21-2.52.21h-.7c-1.08,0-.54,1.85-1.3,1.35-.75-.5-.74-1.4-.74-1.45-.7,0-1.4-.14-2.09-.26-.73-.11-1.92-.2-1.97-.94-.18-2.2.27-4.47.2-6.67-.77-.06-5.14.02-5.88.05.09.8.47,5.7.57,6.55.06.42.08.98-.23,1.29-.29.35-1.52.26-1.97.25-2.28.04-4.55.28-6.86.32-.28,0-.6.06-.81-.08-.21-.19-.3-.5-.3-.78-.06-3.05-.3-6.13-.53-9.18-.33-3.7-.72-7.42-1.17-11.11h-.01c-.03-.23-.05-.44-.08-.66-.08-.64-.16-1.27-.25-1.9h0c-.07-.57-.14-1.13-.22-1.68-.09-.61-.26-1.2-.25-1.8,0-.28.08-.59.29-.76.25-.24.63-.27.95-.34.75-.08,1.51-.13,2.26-.16.51-.01,1.01-.02,1.52-.02.17-.01.35-.01.52-.01.05,0,.1,0,.15-.01,1.04-.07,2.55-.78,3.52-.88,1.12-.11,2.52.06,2.25.24-.77.53-1.37,1.29-1.31,1.65.54,3.81.91,7.67,1.23,11.53,2.38-.18,4.76-.28,7.18-.21.1-1.07.19-2.14.28-3.21v-.02c.06-.71.12-1.43.18-2.15h.01s1.35-4.28,1.35-4.28t0-.02l.14-.45.42-.16s.03-.01.04-.02l1.97-.74c.37.01.74.03,1.11.05,1.55.09,3.08.26,4.63.4.69.09,1.35.56,1.24,1.28Z"/>
    <path class="cls-4" d="M152.79,26.15c-.36-2.32-1.14-4.65-2.51-6.54-.64-.89-1.6-1.6-2.58-2.16-1.35-.76-2.92-1.34-4.49-1.38-.47-.02-.94.01-1.42.08-.13.02-.26.04-.38.06-1.59.26-3.15.91-4.42,1.86-1.07.8-1.97,1.93-2.58,3.14-.22.43-.42.86-.61,1.3h0c-.17.41-.32.83-.45,1.24-.19.55-.34,1.1-.48,1.66-.53,1.97-1.72,10.47-1.58,12.45.01.28.05.61.25.76.13.11.35.1.49.04.15-.06.28-.02.47-.04,2-.17,4.02.09,6.03.41.53.07.94-.29.94-.78-.02-.63.1-1.28.14-1.91.59.07,4.29.38,4.88.46-.05,1.09-.47,2.6.6,2.75.6.07,4.24.2,4.82.28.42.03.81.09,1.19.09.32-.02.68-.06.9-.25.18-.16.24-.44.29-.71.32-1.38.46-2.82.59-4.21.29-2.86.36-5.8-.09-8.6ZM146.72,25.79c-.24.13-.68.17-.62.6h0c.42,2.19.15,4.71.15,4.71l-7.43-.55s.05-2.65,1.14-4.76h0s-1.45-1.27-.45-1.58c1-.32,1.54.08,1.54.08.1-.09.2-.18.31-.26.09-.06.16-.12.25-.17.11-.08.23-.14.35-.21.17-.08.33-.16.52-.22.18-.06.38-.11.58-.15,1.15-.19,1.91.34,2.41,1.2.04.09.09.18.13.27,0,0,.16-.04.4-.03.21.02.49.08.76.26.58.4.36.6-.03.81Z"/>
    <path class="cls-2" d="M207.31,24.77s-.13.24-.13.27c-.13.59-.43,1.12-.76,1.61-.42.67-.93,1.29-1.48,1.87-2.29,2.47-4.96,4.6-7.57,6.78.63.76,1.42,1.36,2.16,1.97,1.57,1.21,3.19,2.28,4.84,3.36.37.21.81.39,1.01.76.37.53-.34,1.31-.77,1.8-1.09,1.11-2.36,2.18-3.71,3.01-.48.26-1.04.6-1.6.5-.31-.03-.65-.13-.92-.26-.55-.33-1.09-.67-1.62-1.02-.26-.16-.86.34-2.34.19-1.49-.14.68-.48.7-1.3-1.62-1.16-3.13-2.42-4.52-3.82-.1.63-.44,4.04-.46,4.64l-.07.73c-.1.34-.54.51-.93.44-1-.17-6.07-.81-7.05-.81-.47.03-1.09-.04-1.19-.47-.1-.46.03-2.77.04-3.3.07-1.52.47-7.49.82-12.96h0c.1-1.52.19-2.98.28-4.31.16-2.48.29-4.46.32-5.24.01-.42.31-.91.7-1.02.47-.14,1.78-.14,2.99-.11.99.04,1.93.11,2.32.15.49.05,2.86.28,3.34.4.54.19.84.67.75,1.27-.16,1.28-.65,8.66-.74,9.94,1.23-.85,2.34-1.84,3.39-2.91h.01c1.34-1.37,2.56-2.87,3.74-4.4.48-.63.97-1.26,1.44-1.9.16-.19.62-.57.86-.58.28-.01.6.09.83.19.7.26,1.33.65,1.91,1.07.19.13.36.27.54.4.19.14.38.28.57.43h.01c.67.52,1.29,1.07,1.89,1.65.26.23.5.64.4.98Z"/>
    <path class="cls-9" d="M229.35,29.82c.01.2-.2,2.21-.3,2.73-.12.57-.16.55-.36,1.09-.24.68-.59,1.34-1.11,1.78-.44.37-1.06.49-1.61.55-.82.06-1.66.01-2.49-.12-.72-.1-1.48-.28-2.14-.63-.4-.2-.77-.5-.96-.88-.2-.32-.25-.71-.28-1.06-.05-.87.22-1.71.27-2.55.04-.46-.07-.93-.34-1.28-.3-.38-.8-.55-1.27-.51-1.75.09-3.09,2.06-2.59,3.69.36,1.14,1.33,2.06,2.32,2.74,1.51,1.04,3.27,1.61,4.86,2.55.45.26.9.56,1.31.91.36.32,1.11-.31,2.45,1.48.09.14-1.28-.17-1.2-.03,1.21,2.08,1.17,4.56-.09,6.63-.89,1.47-2.36,2.63-3.95,3.28-1.28.52-2.66.75-4,.8-2.49.06-5.09-.53-7.25-1.7-.98-.53-1.88-1.2-2.61-1.97-1.38-1.48-1.18-4.53-.13-6.22.46-.71,1.14-1.43,1.97-1.58.99-.21,2.02.26,2.96.58.51.14,1.02.28,1.49.46.43.2.88.48,1.03.89.22.49.13,1.09-.01,1.59-.14.41-.11.98.16,1.3.63.73,2.1.87,2.94.44.46-.23.71-.76.78-1.23.1-.7-.17-1.45-.63-1.94-1.21-1.21-3-1.57-4.54-2.29-1.83-.84-3.63-2.06-4.77-3.71-.72-1.1-1.09-2.5-1.1-3.84-.01-.79.09-1.6.29-2.39h0c.21-.86.54-1.7.96-2.47h.01c.19-.36.39-.67.61-.99.58-.79,1.32-1.53,2.15-2.09,1.09-.72,2.33-1.21,3.57-1.49.8-.16,1.62-.24,2.44-.25.29,0,.59,0,.88.03,1.25.05,2.49.24,3.68.54,1.78.43,3.51,1.36,4.77,2.71,1.1,1.19,1.81,2.85,1.82,4.45Z"/>
    <path class="cls-5" d="M178.58,27.56c-.17,1.07-.35,2.49-1.41,2.22-.91-.3-1.86-.63-2.84-.71-1.01-.1-2.04-.05-3.03-.03-.28-.02-.51.95-1.77.98-1.25.04.08-.39.17-1.68.03-.48-.02-.96,0-1.45-.02-.67-.14-1.39-.42-1.99-.2-.38-.47-.73-.87-.92-.26-.14-.65-.19-.97-.09-.55.1-1.02.44-1.41.77-1.91,1.71-2.94,5.39-1.7,7.62.25.52.69.93,1.18,1.28.94.61,2.09.97,3.22.97,2.04.04,4.09-.5,5.99-1.25.52-.19,1.54-.83,1.96-.46.22.2.36.5.39.83.21,1.39.49,2.81.73,4.25.12.72.34,2.05-.34,2.39-.37.45-2.15,1.35-2.67,1.57-2.89,1.15-6.32,1.45-9.32.62-2.11-.59-4.19-1.48-5.96-2.77-1.13-.85-2.16-1.85-2.9-3.04-.72-1.25-1.17-2.69-1.39-4.09-.2-1.41-.19-2.85.02-4.26.28-2.02.95-3.99,1.99-5.76.13-.21.26-.43.41-.64,1.69-2.58,4.35-4.74,7.26-5.62.09-.03.18-.05.27-.07.01-.01.02-.01.02-.01,2.09-.57,4.38-.53,6.51,0,.85.18,1.66.45,2.42.79,1.37.63,2.62,1.64,3.49,2.88.69.93,1.19,2.01,1.33,3.13.2,1.5-.11,3.05-.36,4.54Z"/>
    <path class="cls-22" d="M61.15,17.42l-3.17,1.01c-.41.13-.72.46-.81.88l-.51,2.17c.02-1.15.05-2.04.08-2.46,0-.25.09-.81.3-.95.52-.39,2.65-.6,3.32-.64h.8Z"/>
    <path class="cls-22" d="M10.24,23.43c-1.1.09-2.19.3-3.23.61-.44.13-1.65.58-1.87,1-.17.31-.07,1.49-.06,1.85,0,.96.04,1.92.09,2.89l.52-3.03c.13-.75.61-1.39,1.29-1.73l3.26-1.59Z"/>
    <path class="cls-11" d="M10.25,29.57s-1.43,2.33.64,3.96c0,0-.2,3.6,3.31,3.56,0,0,1.05-2.71-.87-4.66,0,0-.31-3.75-3.08-2.86"/>
    <path class="cls-12" d="M4.61,19.53s6.44,1.01,5.52,6.36,3.25,9.15,3.25,9.15c0,0-3.36-6.74-2.19-9.64s-.01-5.02-2.53-6.15c-.94-.42-2.3-.66-2.93-.58-1.07.14-1.11.87-1.11.87Z"/>
    <path class="cls-11" d="M56.85,31.67s-.54.38-.31,1.62c0,0,1.05.05,1.77-2.11l-1.46.5Z"/>
    <path class="cls-11" d="M61.37,25.6s-1.07-1.78-.13-3.51c0,0,1.24,1.38.39,3.33l-.26.18Z"/>
    <path class="cls-12" d="M66.6,21.63s-3.87,6.7-10.03,5.81c-.22-.06-1.66-.71.02-1.83v.37s3.14,2.23,10.1-5.89c.15.07.1,1.26-.1,1.54Z"/>
    <path class="cls-12" d="M66.19,31s2.3-.24.87,5.17c-1.43,5.41,2.45,7.95,2.45,7.95,0,0-5.19-.48-3.25-7.97,0,0,.5-1.89.4-2.52s-.51-1.11-.51-1.11l.04-1.53Z"/>
    <path class="cls-12" d="M102.5,36.08s-.93,1.49.19,2.78c0,0,3.66,1.6,9.91-2.45,0,0,.45-1.02-.14-1.46,0,0-9.19,5.56-9.96,1.13Z"/>
    <path class="cls-22" d="M165.17,16.22c-.41.21-6.98,3.7-9.93,12.09.28-2.02.95-3.99,1.99-5.76.13-.21.26-.43.41-.64,1.69-2.58,4.35-4.74,7.26-5.62.09-.03.18-.05.27-.07Z"/>
    <path class="cls-19" d="M163.69,14.99s-.01-2.31,1.71-2.09.95,1.4.95,1.4c0,0,1.63-.48,1.84,1.12s-1.61,1.59-1.61,1.59c0,0,.79.55.29,1.34s-1.39-.58-1.39-.58c0,0-1.8,1.96-2.44.43-.6-1.43.75-1.47.75-1.47,0,0-2.15-.66-1.51-1.63s1.41-.09,1.41-.09Z"/>
    <circle class="cls-10" cx="165.35" cy="15.99" r="1.12"/>
    <path class="cls-11" d="M195.19,40.27s-2.6-.85-2.07-3.44c0,0-2.48-2.62.22-4.86,0,0,2.55,1.39,2.35,4.12,0,0,2.19,3.06-.5,4.17"/>
    <path class="cls-12" d="M197.47,51.47s4.18-4.83.01-8.31c-4.17-3.48-3.44-9.08-3.44-9.08,0,0,1.8,7.31,4.57,8.77,2.77,1.46,3.24,3.84,2.04,6.33-.45.93-1.24,2.21-1.77,2.56-.9.59-1.41-.27-1.41-.27Z"/>
    <path class="cls-22" d="M23.08,26.9h-.05c-.46-.01-.92.03-1.18.05-.33.02-1.23.12-2.02.24-.56.09-1.06.19-1.27.29-.41.22-.8.91-1.12,1.65-.34.77-.6,1.59-.73,2.04-.03.1-.06.21-.09.32l2.05-2.83c.15-.2.35-.35.59-.43l3.93-1.32h-.11Z"/>
    <path class="cls-22" d="M44.84,18.75l-2.48,1.09c-.34.15-.59.46-.65.83l-.83,4.54v-.02c-.05-1.06-.1-2.13-.17-3.19-.02-.43-.06-.85-.08-1.28-.02-.15-.04-.31-.05-.47h0c0-.05,0-.1.01-.16s.02-.12.04-.18c0-.04.03-.07.05-.1.02-.05.05-.09.09-.13.31-.32,1.72-.52,2.18-.61.62-.13,1.25-.22,1.88-.31Z"/>
    <path class="cls-22" d="M82.52,13.71c-7.45,1.12-8.18,3.41-8.18,3.41h0s-.07-.12-.07-.23h0c-.01-.11,0-.25.05-.43.38-1.96,1.93-2.18,3-2.34.47-.05,2.26-.21,4.24-.34.32-.02.64-.04.96-.07Z"/>
    <path class="cls-22" d="M141.41,16.21c-5.32,2.41-8.06,7.54-8.06,7.54.13-.41.28-.83.45-1.23h0c.19-.45.39-.88.61-1.31.61-1.21,1.51-2.34,2.58-3.14,1.27-.95,2.83-1.6,4.42-1.86Z"/>
    <path class="cls-22" d="M188.37,18.24l-3.02,1.02c-.69.23-1.22.8-1.41,1.5l-2.17,7.99c.1-1.51.19-2.97.28-4.3.16-2.48.29-4.46.32-5.24.01-.42.31-.91.7-1.02.47-.14,1.78-.14,2.99-.11.99.04,1.93.11,2.32.15Z"/>
    <path class="cls-22" d="M203.9,21.32h-1.96c-.43,0-.82.19-1.1.51-2.33,2.67-5.51,4.95-5.72,5.1,1.34-1.36,2.56-2.86,3.74-4.39.48-.63.97-1.26,1.44-1.9.16-.19.62-.57.86-.58.28-.01.6.09.83.19.7.26,1.33.65,1.91,1.07Z"/>
    <path class="cls-22" d="M219.08,22.12c-7.63,2.24-10.45,6.95-10.62,7.25.21-.85.54-1.69.96-2.46h.01c.19-.36.39-.67.61-.99.58-.79,1.32-1.53,2.15-2.09,1.09-.72,2.33-1.21,3.57-1.49.8-.16,1.62-.24,2.44-.25.29,0,.59,0,.88.03Z"/>
    <path class="cls-22" d="M122.47,13.37c-.63-.01-1.22.01-1.85.07-.25.04-.88.1-1.03.34-.08.11-.1.26-.1.42-.01.13-.01.26-.01.38-.03.54-.07,1.08-.1,1.62-.06.95-.13,1.91-.22,2.86-.06.72-.12,1.44-.18,2.15l1.62-6.62v-.02c.12-.19.29-.33.49-.42.01-.01.03-.01.04-.02l1.97-.74c-.21,0-.42-.02-.63-.02Z"/>
    <path class="cls-11" d="M126.79,18.53s8.21.45,5.59-7.01c0,0-3.25,3.06-2.98,4.44,0,0-2.23-.13-2.94,2.21.13.31.34.37.34.37"/>
    <path class="cls-12" d="M118.93,21.61s.01-1.69.36-1.92,1.7-2.59,4.71-1.63,6.86-1.3,7.91-4.39c0,0-.96,6.15-8.14,5.03-.68-.11-2.71-.54-4.85,2.9Z"/>
    <path class="cls-22" d="M32.71,21.39c-1.13.16-2.36.35-3.17.48-.43.08-1.01.18-1.47.38-.4.18-.7.43-.73.81-.06.33.33,1.65.42,1.99.17.82.33,1.64.49,2.47l.27-3.41v-.02c.05-.54.36-1.01.82-1.28h.01l5.81-1.66c-.42-.01-1.39.1-2.45.24Z"/>
    <path class="cls-22" d="M101.41,13.37c.16,3.16-.55,5.42-.55,5.42-.08-.64-.16-1.27-.25-1.9h0c-.07-.57-.14-1.13-.22-1.68-.09-.61-.26-1.2-.25-1.8,0-.28.08-.59.29-.76.25-.24.63-.27.95-.34.75-.08,1.51-.13,2.26-.16.51-.01,1.01-.02,1.52-.02.17-.01.35-.01.52-.01.05,0,.1,0,.15-.01l-4.42,1.26Z"/>
    <path class="cls-23" d="M103.87,41.51s-.05,2.19-1.68,1.94-.86-1.35-.86-1.35c0,0-1.56.41-1.72-1.11s1.57-1.46,1.57-1.46c0,0-.73-.55-.23-1.28s1.3.59,1.3.59c0,0,1.6-2.1,2.23-.31.63,1.78-.66,1.35-.66,1.35,0,0,2.02.69,1.38,1.59s-1.34.05-1.34.05Z"/>
    <circle class="cls-10" cx="102.32" cy="40.52" r=".75"/>
  </g>
</svg>