<?xml version="1.0" encoding="UTF-8"?>
<svg id="Layer_1" xmlns="http://www.w3.org/2000/svg" viewBox="0 0 72 72">
  <defs>
    <style>
      .cls-1 {
        fill: #efcc6b;
      }

      .cls-2 {
        fill: #736dad;
      }
    </style>
  </defs>
  <path class="cls-2" d="M51.57,46.75s-2.6,25.08-20.98,20.7c-18.38-4.38-8.66-16.3-8.66-16.3,0,0-18.27,3.25-18.66-14.34-.39-17.59,19.33-15.3,19.33-15.3,0,0-7.88-6.94-1.53-14.84,6.35-7.9,14.41,7.9,14.41,7.9,0,0,20.23-22.6,25.83-1.58,5.61,21.02-8.75,14.94-8.75,14.94,0,0,22.54,9.72,14.42,19.48-8.12,9.77-15.41-.66-15.41-.66Z"/>
  <circle class="cls-1" cx="34.7" cy="33.98" r="8.63"/>
</svg>