<?xml version="1.0" encoding="UTF-8"?>
<svg id="Layer_1" xmlns="http://www.w3.org/2000/svg" viewBox="0 0 72 72">
  <defs>
    <style>
      .cls-1 {
        fill: #efcc6b;
      }

      .cls-2 {
        fill: #004d35;
      }
    </style>
  </defs>
  <path class="cls-2" d="M22.79,23.14S28.16-1.49,45.94,4.9c17.78,6.4,6.8,17.16,6.8,17.16,0,0,18.52-1.2,16.95,16.33-1.56,17.52-20.91,13.06-20.91,13.06,0,0,7.06,7.78-.13,14.92-7.18,7.14-13.44-9.45-13.44-9.45,0,0-22.61,20.21-25.85-1.3-3.24-21.51,10.36-13.88,10.36-13.88,0,0-21.32-12.16-12.17-20.96,9.15-8.81,15.24,2.36,15.24,2.36Z"/>
  <circle class="cls-1" cx="38.13" cy="37.71" r="8.63"/>
</svg>